M48
; DRILL file {KiCad 7.0.7} date Wed Aug 23 10:00:18 2023
; FORMAT={-:-/ absolute / inch / decimal}
; #@! TF.CreationDate,2023-08-23T10:00:18+05:30
; #@! TF.GenerationSoftware,Kicad,Pcbnew,7.0.7
; #@! TF.FileFunction,Plated,1,2,PTH
FMAT,2
INCH
; #@! TA.AperFunction,Plated,PTH,ComponentDrill
T1C0.0374
; #@! TA.AperFunction,Plated,PTH,ViaDrill
T2C0.0394
; #@! TA.AperFunction,Plated,PTH,ComponentDrill
T3C0.0394
; #@! TA.AperFunction,Plated,PTH,ComponentDrill
T4C0.0433
; #@! TA.AperFunction,Plated,PTH,ComponentDrill
T5C0.0984
%
G90
G05
T1
X6.2275Y-1.315
X6.2275Y-1.4134
X6.2275Y-1.5119
T2
X6.8275Y-0.915
X6.8275Y-2.665
T3
X2.8048Y-2.137
X2.8048Y-2.8528
X4.3875Y-2.137
X4.3875Y-2.8528
X4.6275Y-1.165
X4.6275Y-1.265
X4.6275Y-1.365
X4.6275Y-1.465
X4.8775Y-2.515
X4.9775Y-2.515
X5.0775Y-2.515
X5.1775Y-2.515
X5.4275Y-1.365
X5.4275Y-1.465
X5.4275Y-1.565
X7.728Y-1.5503
X7.728Y-1.6503
X7.728Y-1.7503
X7.728Y-1.8503
X7.728Y-1.9503
X7.728Y-2.0503
X7.728Y-2.1503
X7.728Y-2.2503
X7.728Y-2.3503
X7.728Y-2.4503
X7.728Y-2.5503
X7.728Y-2.6503
X7.728Y-2.7503
X7.728Y-2.8503
X7.728Y-2.9503
X7.728Y-3.0503
X7.728Y-3.1503
X7.728Y-3.2503
X7.728Y-3.3503
X7.728Y-3.4503
X7.728Y-3.5503
X7.728Y-3.6503
X8.628Y-1.5503
X8.628Y-1.6503
X8.628Y-1.7503
X8.628Y-1.8503
X8.628Y-1.9503
X8.628Y-2.0503
X8.628Y-2.1503
X8.628Y-2.2503
X8.628Y-2.3503
X8.628Y-2.4503
X8.628Y-2.5503
X8.628Y-2.6503
X8.628Y-2.7503
X8.628Y-2.8503
X8.628Y-2.9503
X8.628Y-3.0503
X8.628Y-3.1503
X8.628Y-3.2503
X8.628Y-3.3503
X8.628Y-3.4503
X8.628Y-3.5503
X8.628Y-3.6503
T4
X3.8275Y-1.265
X3.8275Y-1.465
X8.9275Y-2.715
X9.1275Y-2.715
T5
X2.7725Y-0.91
X2.7775Y-4.115
X9.2775Y-4.065
X9.2825Y-0.91
T3
G00X2.9913Y-1.5756
M15
G01X2.9913Y-1.6544
M16
G05
G00X3.07Y-1.8
M15
G01X3.1488Y-1.8
M16
G05
G00X3.2275Y-1.5756
M15
G01X3.2275Y-1.6544
M16
G05
T0
M30
