  0
SECTION
  2
HEADER
  9
$ANGBASE
  50
0.0
  9
$ANGDIR
  70
1
  9
$MEASUREMENT
  70
0
  0
ENDSEC
  0
SECTION
  2
TABLES
  0
TABLE
  2
LTYPE
  70
4
  0
LTYPE
  5
40F
  2
CONTINUOUS
  70
0
  3
Solid line
  72
65
  73
0
  40
0.0
  0
LTYPE
  5
410
  2
DASHDOT
 70
0
  3
Dash Dot ____ _ ____ _
 72
65
 73
4
 40
2.0
 49
1.25
 49
-0.25
 49
0.25
 49
-0.25
  0
LTYPE
  5
411
  2
DASHED
 70
0
  3
Dashed __ __ __ __ __
 72
65
 73
2
 40
0.75
 49
0.5
 49
-0.25
  0
LTYPE
  5
43B
  2
DOTTED
 70
0
  3
Dotted .  .  .  .
 72
65
 73
2
 40
0.2
 49
0.0
 49
-0.2
  0
ENDTAB
  0
TABLE
  2
STYLE
  70
4
  0
STYLE
  2
KICAD
  70
0
  40
0
  41
1
  42
1
  50
0
  71
0
  3
isocp.shx
  0
STYLE
  2
KICADB
  70
0
  40
0
  41
1
  42
1
  50
0
  71
0
  3
isocp.shx
  0
STYLE
  2
KICADI
  70
0
  40
0
  41
1
  42
1
  50
15
  71
0
  3
isocp.shx
  0
STYLE
  2
KICADBI
  70
0
  40
0
  41
1
  42
1
  50
15
  71
0
  3
isocp.shx
  0
ENDTAB
  0
TABLE
  2
LAYER
  70
1
  0
LAYER
  2
BLACK
  70
0
  62
7
  6
CONTINUOUS
  0
ENDTAB
  0
ENDSEC
  0
SECTION
  2
ENTITIES
0
LINE
8
BLACK
6
CONTINUOUS
10
9.42809
20
-0.716256
11
9.42872
21
-0.716256
0
LINE
8
BLACK
6
CONTINUOUS
10
9.42872
20
-0.716256
11
9.42922
21
-0.716622
0
LINE
8
BLACK
6
CONTINUOUS
10
9.42922
20
-0.716622
11
9.42981
21
-0.716815
0
LINE
8
BLACK
6
CONTINUOUS
10
9.42981
20
-0.716815
11
9.43018
21
-0.717319
0
LINE
8
BLACK
6
CONTINUOUS
10
9.43018
20
-0.717319
11
9.43069
21
-0.717686
0
LINE
8
BLACK
6
CONTINUOUS
10
9.43069
20
-0.717686
11
9.43088
21
-0.718279
0
LINE
8
BLACK
6
CONTINUOUS
10
9.43088
20
-0.718279
11
9.43124
21
-0.718783
0
LINE
8
BLACK
6
CONTINUOUS
10
9.43124
20
-0.718783
11
9.43124
21
-0.719407
0
LINE
8
BLACK
6
CONTINUOUS
10
9.43124
20
-0.719407
11
9.43144
21
-0.72
0
LINE
8
BLACK
6
CONTINUOUS
10
9.43144
20
-0.72
11
9.43144
21
-4.27
0
LINE
8
BLACK
6
CONTINUOUS
10
9.43144
20
-4.27
11
9.43124
21
-4.27059
0
LINE
8
BLACK
6
CONTINUOUS
10
9.43124
20
-4.27059
11
9.43124
21
-4.27122
0
LINE
8
BLACK
6
CONTINUOUS
10
9.43124
20
-4.27122
11
9.43088
21
-4.27172
0
LINE
8
BLACK
6
CONTINUOUS
10
9.43088
20
-4.27172
11
9.43069
21
-4.27231
0
LINE
8
BLACK
6
CONTINUOUS
10
9.43069
20
-4.27231
11
9.43018
21
-4.27268
0
LINE
8
BLACK
6
CONTINUOUS
10
9.43018
20
-4.27268
11
9.42981
21
-4.27319
0
LINE
8
BLACK
6
CONTINUOUS
10
9.42981
20
-4.27319
11
9.42922
21
-4.27338
0
LINE
8
BLACK
6
CONTINUOUS
10
9.42922
20
-4.27338
11
9.42872
21
-4.27374
0
LINE
8
BLACK
6
CONTINUOUS
10
9.42872
20
-4.27374
11
9.42809
21
-4.27374
0
LINE
8
BLACK
6
CONTINUOUS
10
9.42809
20
-4.27374
11
9.4275
21
-4.27394
0
LINE
8
BLACK
6
CONTINUOUS
10
9.4275
20
-4.27394
11
2.6275
21
-4.27394
0
LINE
8
BLACK
6
CONTINUOUS
10
2.6275
20
-4.27394
11
2.62691
21
-4.27374
0
LINE
8
BLACK
6
CONTINUOUS
10
2.62691
20
-4.27374
11
2.62628
21
-4.27374
0
LINE
8
BLACK
6
CONTINUOUS
10
2.62628
20
-4.27374
11
2.62578
21
-4.27338
0
LINE
8
BLACK
6
CONTINUOUS
10
2.62578
20
-4.27338
11
2.62519
21
-4.27319
0
LINE
8
BLACK
6
CONTINUOUS
10
2.62519
20
-4.27319
11
2.62482
21
-4.27268
0
LINE
8
BLACK
6
CONTINUOUS
10
2.62482
20
-4.27268
11
2.62431
21
-4.27231
0
LINE
8
BLACK
6
CONTINUOUS
10
2.62431
20
-4.27231
11
2.62412
21
-4.27172
0
LINE
8
BLACK
6
CONTINUOUS
10
2.62412
20
-4.27172
11
2.62376
21
-4.27122
0
LINE
8
BLACK
6
CONTINUOUS
10
2.62376
20
-4.27122
11
2.62376
21
-4.27059
0
LINE
8
BLACK
6
CONTINUOUS
10
2.62376
20
-4.27059
11
2.62356
21
-4.27
0
LINE
8
BLACK
6
CONTINUOUS
10
2.62356
20
-4.27
11
2.62356
21
-0.72
0
LINE
8
BLACK
6
CONTINUOUS
10
2.62356
20
-0.72
11
2.62376
21
-0.719407
0
LINE
8
BLACK
6
CONTINUOUS
10
2.62376
20
-0.719407
11
2.62376
21
-0.718783
0
LINE
8
BLACK
6
CONTINUOUS
10
2.62376
20
-0.718783
11
2.62412
21
-0.718279
0
LINE
8
BLACK
6
CONTINUOUS
10
2.62412
20
-0.718279
11
2.62431
21
-0.717686
0
LINE
8
BLACK
6
CONTINUOUS
10
2.62431
20
-0.717686
11
2.62482
21
-0.717319
0
LINE
8
BLACK
6
CONTINUOUS
10
2.62482
20
-0.717319
11
2.62519
21
-0.716815
0
LINE
8
BLACK
6
CONTINUOUS
10
2.62519
20
-0.716815
11
2.62578
21
-0.716622
0
LINE
8
BLACK
6
CONTINUOUS
10
2.62578
20
-0.716622
11
2.62628
21
-0.716256
0
LINE
8
BLACK
6
CONTINUOUS
10
2.62628
20
-0.716256
11
2.62691
21
-0.716256
0
LINE
8
BLACK
6
CONTINUOUS
10
2.62691
20
-0.716256
11
2.6275
21
-0.716063
0
LINE
8
BLACK
6
CONTINUOUS
10
2.6275
20
-0.716063
11
9.4275
21
-0.716063
0
LINE
8
BLACK
6
CONTINUOUS
10
9.4275
20
-0.716063
11
9.42809
21
-0.716256
0
LINE
8
BLACK
6
CONTINUOUS
10
2.63144
20
-0.723937
11
2.63144
21
-4.26606
0
LINE
8
BLACK
6
CONTINUOUS
10
2.63144
20
-4.26606
11
9.42356
21
-4.26606
0
LINE
8
BLACK
6
CONTINUOUS
10
9.42356
20
-4.26606
11
9.42356
21
-0.723937
0
LINE
8
BLACK
6
CONTINUOUS
10
9.42356
20
-0.723937
11
2.63144
21
-0.723937
  0
ENDSEC
  0
EOF
