  0
SECTION
  2
HEADER
  9
$ANGBASE
  50
0.0
  9
$ANGDIR
  70
1
  9
$MEASUREMENT
  70
0
  0
ENDSEC
  0
SECTION
  2
TABLES
  0
TABLE
  2
LTYPE
  70
4
  0
LTYPE
  5
40F
  2
CONTINUOUS
  70
0
  3
Solid line
  72
65
  73
0
  40
0.0
  0
LTYPE
  5
410
  2
DASHDOT
 70
0
  3
Dash Dot ____ _ ____ _
 72
65
 73
4
 40
2.0
 49
1.25
 49
-0.25
 49
0.25
 49
-0.25
  0
LTYPE
  5
411
  2
DASHED
 70
0
  3
Dashed __ __ __ __ __
 72
65
 73
2
 40
0.75
 49
0.5
 49
-0.25
  0
LTYPE
  5
43B
  2
DOTTED
 70
0
  3
Dotted .  .  .  .
 72
65
 73
2
 40
0.2
 49
0.0
 49
-0.2
  0
ENDTAB
  0
TABLE
  2
STYLE
  70
4
  0
STYLE
  2
KICAD
  70
0
  40
0
  41
1
  42
1
  50
0
  71
0
  3
isocp.shx
  0
STYLE
  2
KICADB
  70
0
  40
0
  41
1
  42
1
  50
0
  71
0
  3
isocp.shx
  0
STYLE
  2
KICADI
  70
0
  40
0
  41
1
  42
1
  50
15
  71
0
  3
isocp.shx
  0
STYLE
  2
KICADBI
  70
0
  40
0
  41
1
  42
1
  50
15
  71
0
  3
isocp.shx
  0
ENDTAB
  0
TABLE
  2
LAYER
  70
1
  0
LAYER
  2
BLACK
  70
0
  62
7
  6
CONTINUOUS
  0
ENDTAB
  0
ENDSEC
  0
SECTION
  2
ENTITIES
0
LINE
8
BLACK
6
CONTINUOUS
10
2.79594
20
-4.01832
11
2.80792
21
-4.02139
0
LINE
8
BLACK
6
CONTINUOUS
10
2.80792
20
-4.02139
11
2.81941
21
-4.02594
0
LINE
8
BLACK
6
CONTINUOUS
10
2.81941
20
-4.02594
11
2.83024
21
-4.0319
0
LINE
8
BLACK
6
CONTINUOUS
10
2.83024
20
-4.0319
11
2.84024
21
-4.03916
0
LINE
8
BLACK
6
CONTINUOUS
10
2.84024
20
-4.03916
11
2.84925
21
-4.04762
0
LINE
8
BLACK
6
CONTINUOUS
10
2.84925
20
-4.04762
11
2.85713
21
-4.05715
0
LINE
8
BLACK
6
CONTINUOUS
10
2.85713
20
-4.05715
11
2.86375
21
-4.06758
0
LINE
8
BLACK
6
CONTINUOUS
10
2.86375
20
-4.06758
11
2.86901
21
-4.07877
0
LINE
8
BLACK
6
CONTINUOUS
10
2.86901
20
-4.07877
11
2.87283
21
-4.09052
0
LINE
8
BLACK
6
CONTINUOUS
10
2.87283
20
-4.09052
11
2.87515
21
-4.10266
0
LINE
8
BLACK
6
CONTINUOUS
10
2.87515
20
-4.10266
11
2.87593
21
-4.115
0
LINE
8
BLACK
6
CONTINUOUS
10
2.87593
20
-4.115
11
2.87515
21
-4.12734
0
LINE
8
BLACK
6
CONTINUOUS
10
2.87515
20
-4.12734
11
2.87283
21
-4.13948
0
LINE
8
BLACK
6
CONTINUOUS
10
2.87283
20
-4.13948
11
2.86901
21
-4.15123
0
LINE
8
BLACK
6
CONTINUOUS
10
2.86901
20
-4.15123
11
2.86375
21
-4.16242
0
LINE
8
BLACK
6
CONTINUOUS
10
2.86375
20
-4.16242
11
2.85713
21
-4.17285
0
LINE
8
BLACK
6
CONTINUOUS
10
2.85713
20
-4.17285
11
2.84925
21
-4.18238
0
LINE
8
BLACK
6
CONTINUOUS
10
2.84925
20
-4.18238
11
2.84024
21
-4.19084
0
LINE
8
BLACK
6
CONTINUOUS
10
2.84024
20
-4.19084
11
2.83024
21
-4.1981
0
LINE
8
BLACK
6
CONTINUOUS
10
2.83024
20
-4.1981
11
2.81941
21
-4.20406
0
LINE
8
BLACK
6
CONTINUOUS
10
2.81941
20
-4.20406
11
2.80792
21
-4.20861
0
LINE
8
BLACK
6
CONTINUOUS
10
2.80792
20
-4.20861
11
2.79594
21
-4.21168
0
LINE
8
BLACK
6
CONTINUOUS
10
2.79594
20
-4.21168
11
2.78368
21
-4.21323
0
LINE
8
BLACK
6
CONTINUOUS
10
2.78368
20
-4.21323
11
2.77132
21
-4.21323
0
LINE
8
BLACK
6
CONTINUOUS
10
2.77132
20
-4.21323
11
2.75906
21
-4.21168
0
LINE
8
BLACK
6
CONTINUOUS
10
2.75906
20
-4.21168
11
2.74708
21
-4.20861
0
LINE
8
BLACK
6
CONTINUOUS
10
2.74708
20
-4.20861
11
2.73559
21
-4.20406
0
LINE
8
BLACK
6
CONTINUOUS
10
2.73559
20
-4.20406
11
2.72476
21
-4.1981
0
LINE
8
BLACK
6
CONTINUOUS
10
2.72476
20
-4.1981
11
2.71476
21
-4.19084
0
LINE
8
BLACK
6
CONTINUOUS
10
2.71476
20
-4.19084
11
2.70575
21
-4.18238
0
LINE
8
BLACK
6
CONTINUOUS
10
2.70575
20
-4.18238
11
2.69787
21
-4.17285
0
LINE
8
BLACK
6
CONTINUOUS
10
2.69787
20
-4.17285
11
2.69125
21
-4.16242
0
LINE
8
BLACK
6
CONTINUOUS
10
2.69125
20
-4.16242
11
2.68599
21
-4.15123
0
LINE
8
BLACK
6
CONTINUOUS
10
2.68599
20
-4.15123
11
2.68217
21
-4.13948
0
LINE
8
BLACK
6
CONTINUOUS
10
2.68217
20
-4.13948
11
2.67985
21
-4.12734
0
LINE
8
BLACK
6
CONTINUOUS
10
2.67985
20
-4.12734
11
2.67907
21
-4.115
0
LINE
8
BLACK
6
CONTINUOUS
10
2.67907
20
-4.115
11
2.67985
21
-4.10266
0
LINE
8
BLACK
6
CONTINUOUS
10
2.67985
20
-4.10266
11
2.68217
21
-4.09052
0
LINE
8
BLACK
6
CONTINUOUS
10
2.68217
20
-4.09052
11
2.68599
21
-4.07877
0
LINE
8
BLACK
6
CONTINUOUS
10
2.68599
20
-4.07877
11
2.69125
21
-4.06758
0
LINE
8
BLACK
6
CONTINUOUS
10
2.69125
20
-4.06758
11
2.69787
21
-4.05715
0
LINE
8
BLACK
6
CONTINUOUS
10
2.69787
20
-4.05715
11
2.70575
21
-4.04762
0
LINE
8
BLACK
6
CONTINUOUS
10
2.70575
20
-4.04762
11
2.71476
21
-4.03916
0
LINE
8
BLACK
6
CONTINUOUS
10
2.71476
20
-4.03916
11
2.72476
21
-4.0319
0
LINE
8
BLACK
6
CONTINUOUS
10
2.72476
20
-4.0319
11
2.73559
21
-4.02594
0
LINE
8
BLACK
6
CONTINUOUS
10
2.73559
20
-4.02594
11
2.74708
21
-4.02139
0
LINE
8
BLACK
6
CONTINUOUS
10
2.74708
20
-4.02139
11
2.75906
21
-4.01832
0
LINE
8
BLACK
6
CONTINUOUS
10
2.75906
20
-4.01832
11
2.77132
21
-4.01677
0
LINE
8
BLACK
6
CONTINUOUS
10
2.77132
20
-4.01677
11
2.78368
21
-4.01677
0
LINE
8
BLACK
6
CONTINUOUS
10
2.78368
20
-4.01677
11
2.79594
21
-4.01832
0
LINE
8
BLACK
6
CONTINUOUS
10
9.29594
20
-3.96832
11
9.30792
21
-3.97139
0
LINE
8
BLACK
6
CONTINUOUS
10
9.30792
20
-3.97139
11
9.31941
21
-3.97594
0
LINE
8
BLACK
6
CONTINUOUS
10
9.31941
20
-3.97594
11
9.33024
21
-3.9819
0
LINE
8
BLACK
6
CONTINUOUS
10
9.33024
20
-3.9819
11
9.34024
21
-3.98916
0
LINE
8
BLACK
6
CONTINUOUS
10
9.34024
20
-3.98916
11
9.34925
21
-3.99762
0
LINE
8
BLACK
6
CONTINUOUS
10
9.34925
20
-3.99762
11
9.35713
21
-4.00715
0
LINE
8
BLACK
6
CONTINUOUS
10
9.35713
20
-4.00715
11
9.36375
21
-4.01758
0
LINE
8
BLACK
6
CONTINUOUS
10
9.36375
20
-4.01758
11
9.36901
21
-4.02877
0
LINE
8
BLACK
6
CONTINUOUS
10
9.36901
20
-4.02877
11
9.37283
21
-4.04052
0
LINE
8
BLACK
6
CONTINUOUS
10
9.37283
20
-4.04052
11
9.37515
21
-4.05266
0
LINE
8
BLACK
6
CONTINUOUS
10
9.37515
20
-4.05266
11
9.37593
21
-4.065
0
LINE
8
BLACK
6
CONTINUOUS
10
9.37593
20
-4.065
11
9.37515
21
-4.07734
0
LINE
8
BLACK
6
CONTINUOUS
10
9.37515
20
-4.07734
11
9.37283
21
-4.08948
0
LINE
8
BLACK
6
CONTINUOUS
10
9.37283
20
-4.08948
11
9.36901
21
-4.10123
0
LINE
8
BLACK
6
CONTINUOUS
10
9.36901
20
-4.10123
11
9.36375
21
-4.11242
0
LINE
8
BLACK
6
CONTINUOUS
10
9.36375
20
-4.11242
11
9.35713
21
-4.12285
0
LINE
8
BLACK
6
CONTINUOUS
10
9.35713
20
-4.12285
11
9.34925
21
-4.13238
0
LINE
8
BLACK
6
CONTINUOUS
10
9.34925
20
-4.13238
11
9.34024
21
-4.14084
0
LINE
8
BLACK
6
CONTINUOUS
10
9.34024
20
-4.14084
11
9.33024
21
-4.1481
0
LINE
8
BLACK
6
CONTINUOUS
10
9.33024
20
-4.1481
11
9.31941
21
-4.15406
0
LINE
8
BLACK
6
CONTINUOUS
10
9.31941
20
-4.15406
11
9.30792
21
-4.15861
0
LINE
8
BLACK
6
CONTINUOUS
10
9.30792
20
-4.15861
11
9.29594
21
-4.16168
0
LINE
8
BLACK
6
CONTINUOUS
10
9.29594
20
-4.16168
11
9.28368
21
-4.16323
0
LINE
8
BLACK
6
CONTINUOUS
10
9.28368
20
-4.16323
11
9.27132
21
-4.16323
0
LINE
8
BLACK
6
CONTINUOUS
10
9.27132
20
-4.16323
11
9.25906
21
-4.16168
0
LINE
8
BLACK
6
CONTINUOUS
10
9.25906
20
-4.16168
11
9.24708
21
-4.15861
0
LINE
8
BLACK
6
CONTINUOUS
10
9.24708
20
-4.15861
11
9.23559
21
-4.15406
0
LINE
8
BLACK
6
CONTINUOUS
10
9.23559
20
-4.15406
11
9.22476
21
-4.1481
0
LINE
8
BLACK
6
CONTINUOUS
10
9.22476
20
-4.1481
11
9.21476
21
-4.14084
0
LINE
8
BLACK
6
CONTINUOUS
10
9.21476
20
-4.14084
11
9.20575
21
-4.13238
0
LINE
8
BLACK
6
CONTINUOUS
10
9.20575
20
-4.13238
11
9.19787
21
-4.12285
0
LINE
8
BLACK
6
CONTINUOUS
10
9.19787
20
-4.12285
11
9.19125
21
-4.11242
0
LINE
8
BLACK
6
CONTINUOUS
10
9.19125
20
-4.11242
11
9.18599
21
-4.10123
0
LINE
8
BLACK
6
CONTINUOUS
10
9.18599
20
-4.10123
11
9.18217
21
-4.08948
0
LINE
8
BLACK
6
CONTINUOUS
10
9.18217
20
-4.08948
11
9.17985
21
-4.07734
0
LINE
8
BLACK
6
CONTINUOUS
10
9.17985
20
-4.07734
11
9.17907
21
-4.065
0
LINE
8
BLACK
6
CONTINUOUS
10
9.17907
20
-4.065
11
9.17985
21
-4.05266
0
LINE
8
BLACK
6
CONTINUOUS
10
9.17985
20
-4.05266
11
9.18217
21
-4.04052
0
LINE
8
BLACK
6
CONTINUOUS
10
9.18217
20
-4.04052
11
9.18599
21
-4.02877
0
LINE
8
BLACK
6
CONTINUOUS
10
9.18599
20
-4.02877
11
9.19125
21
-4.01758
0
LINE
8
BLACK
6
CONTINUOUS
10
9.19125
20
-4.01758
11
9.19787
21
-4.00715
0
LINE
8
BLACK
6
CONTINUOUS
10
9.19787
20
-4.00715
11
9.20575
21
-3.99762
0
LINE
8
BLACK
6
CONTINUOUS
10
9.20575
20
-3.99762
11
9.21476
21
-3.98916
0
LINE
8
BLACK
6
CONTINUOUS
10
9.21476
20
-3.98916
11
9.22476
21
-3.9819
0
LINE
8
BLACK
6
CONTINUOUS
10
9.22476
20
-3.9819
11
9.23559
21
-3.97594
0
LINE
8
BLACK
6
CONTINUOUS
10
9.23559
20
-3.97594
11
9.24708
21
-3.97139
0
LINE
8
BLACK
6
CONTINUOUS
10
9.24708
20
-3.97139
11
9.25906
21
-3.96832
0
LINE
8
BLACK
6
CONTINUOUS
10
9.25906
20
-3.96832
11
9.27132
21
-3.96677
0
LINE
8
BLACK
6
CONTINUOUS
10
9.27132
20
-3.96677
11
9.28368
21
-3.96677
0
LINE
8
BLACK
6
CONTINUOUS
10
9.28368
20
-3.96677
11
9.29594
21
-3.96832
0
LINE
8
BLACK
6
CONTINUOUS
10
7.73833
20
-3.61851
11
7.74472
21
-3.62135
0
LINE
8
BLACK
6
CONTINUOUS
10
7.74472
20
-3.62135
11
7.75038
21
-3.62547
0
LINE
8
BLACK
6
CONTINUOUS
10
7.75038
20
-3.62547
11
7.75507
21
-3.63066
0
LINE
8
BLACK
6
CONTINUOUS
10
7.75507
20
-3.63066
11
7.75856
21
-3.63672
0
LINE
8
BLACK
6
CONTINUOUS
10
7.75856
20
-3.63672
11
7.76073
21
-3.64338
0
LINE
8
BLACK
6
CONTINUOUS
10
7.76073
20
-3.64338
11
7.76146
21
-3.65033
0
LINE
8
BLACK
6
CONTINUOUS
10
7.76146
20
-3.65033
11
7.76073
21
-3.65729
0
LINE
8
BLACK
6
CONTINUOUS
10
7.76073
20
-3.65729
11
7.75856
21
-3.66395
0
LINE
8
BLACK
6
CONTINUOUS
10
7.75856
20
-3.66395
11
7.75507
21
-3.67
0
LINE
8
BLACK
6
CONTINUOUS
10
7.75507
20
-3.67
11
7.75038
21
-3.6752
0
LINE
8
BLACK
6
CONTINUOUS
10
7.75038
20
-3.6752
11
7.74472
21
-3.67932
0
LINE
8
BLACK
6
CONTINUOUS
10
7.74472
20
-3.67932
11
7.73833
21
-3.68216
0
LINE
8
BLACK
6
CONTINUOUS
10
7.73833
20
-3.68216
11
7.73149
21
-3.68362
0
LINE
8
BLACK
6
CONTINUOUS
10
7.73149
20
-3.68362
11
7.72449
21
-3.68362
0
LINE
8
BLACK
6
CONTINUOUS
10
7.72449
20
-3.68362
11
7.71765
21
-3.68216
0
LINE
8
BLACK
6
CONTINUOUS
10
7.71765
20
-3.68216
11
7.71126
21
-3.67932
0
LINE
8
BLACK
6
CONTINUOUS
10
7.71126
20
-3.67932
11
7.7056
21
-3.6752
0
LINE
8
BLACK
6
CONTINUOUS
10
7.7056
20
-3.6752
11
7.70092
21
-3.67
0
LINE
8
BLACK
6
CONTINUOUS
10
7.70092
20
-3.67
11
7.69742
21
-3.66395
0
LINE
8
BLACK
6
CONTINUOUS
10
7.69742
20
-3.66395
11
7.69526
21
-3.65729
0
LINE
8
BLACK
6
CONTINUOUS
10
7.69526
20
-3.65729
11
7.69453
21
-3.65033
0
LINE
8
BLACK
6
CONTINUOUS
10
7.69453
20
-3.65033
11
7.69526
21
-3.64338
0
LINE
8
BLACK
6
CONTINUOUS
10
7.69526
20
-3.64338
11
7.69742
21
-3.63672
0
LINE
8
BLACK
6
CONTINUOUS
10
7.69742
20
-3.63672
11
7.70092
21
-3.63066
0
LINE
8
BLACK
6
CONTINUOUS
10
7.70092
20
-3.63066
11
7.7056
21
-3.62547
0
LINE
8
BLACK
6
CONTINUOUS
10
7.7056
20
-3.62547
11
7.71126
21
-3.62135
0
LINE
8
BLACK
6
CONTINUOUS
10
7.71126
20
-3.62135
11
7.71765
21
-3.61851
0
LINE
8
BLACK
6
CONTINUOUS
10
7.71765
20
-3.61851
11
7.72449
21
-3.61705
0
LINE
8
BLACK
6
CONTINUOUS
10
7.72449
20
-3.61705
11
7.73149
21
-3.61705
0
LINE
8
BLACK
6
CONTINUOUS
10
7.73149
20
-3.61705
11
7.73833
21
-3.61851
0
LINE
8
BLACK
6
CONTINUOUS
10
8.63833
20
-3.61851
11
8.64472
21
-3.62135
0
LINE
8
BLACK
6
CONTINUOUS
10
8.64472
20
-3.62135
11
8.65038
21
-3.62547
0
LINE
8
BLACK
6
CONTINUOUS
10
8.65038
20
-3.62547
11
8.65507
21
-3.63066
0
LINE
8
BLACK
6
CONTINUOUS
10
8.65507
20
-3.63066
11
8.65856
21
-3.63672
0
LINE
8
BLACK
6
CONTINUOUS
10
8.65856
20
-3.63672
11
8.66073
21
-3.64338
0
LINE
8
BLACK
6
CONTINUOUS
10
8.66073
20
-3.64338
11
8.66146
21
-3.65033
0
LINE
8
BLACK
6
CONTINUOUS
10
8.66146
20
-3.65033
11
8.66073
21
-3.65729
0
LINE
8
BLACK
6
CONTINUOUS
10
8.66073
20
-3.65729
11
8.65856
21
-3.66395
0
LINE
8
BLACK
6
CONTINUOUS
10
8.65856
20
-3.66395
11
8.65507
21
-3.67
0
LINE
8
BLACK
6
CONTINUOUS
10
8.65507
20
-3.67
11
8.65038
21
-3.6752
0
LINE
8
BLACK
6
CONTINUOUS
10
8.65038
20
-3.6752
11
8.64472
21
-3.67932
0
LINE
8
BLACK
6
CONTINUOUS
10
8.64472
20
-3.67932
11
8.63833
21
-3.68216
0
LINE
8
BLACK
6
CONTINUOUS
10
8.63833
20
-3.68216
11
8.63149
21
-3.68362
0
LINE
8
BLACK
6
CONTINUOUS
10
8.63149
20
-3.68362
11
8.62449
21
-3.68362
0
LINE
8
BLACK
6
CONTINUOUS
10
8.62449
20
-3.68362
11
8.61765
21
-3.68216
0
LINE
8
BLACK
6
CONTINUOUS
10
8.61765
20
-3.68216
11
8.61126
21
-3.67932
0
LINE
8
BLACK
6
CONTINUOUS
10
8.61126
20
-3.67932
11
8.6056
21
-3.6752
0
LINE
8
BLACK
6
CONTINUOUS
10
8.6056
20
-3.6752
11
8.60092
21
-3.67
0
LINE
8
BLACK
6
CONTINUOUS
10
8.60092
20
-3.67
11
8.59742
21
-3.66395
0
LINE
8
BLACK
6
CONTINUOUS
10
8.59742
20
-3.66395
11
8.59526
21
-3.65729
0
LINE
8
BLACK
6
CONTINUOUS
10
8.59526
20
-3.65729
11
8.59453
21
-3.65033
0
LINE
8
BLACK
6
CONTINUOUS
10
8.59453
20
-3.65033
11
8.59526
21
-3.64338
0
LINE
8
BLACK
6
CONTINUOUS
10
8.59526
20
-3.64338
11
8.59742
21
-3.63672
0
LINE
8
BLACK
6
CONTINUOUS
10
8.59742
20
-3.63672
11
8.60092
21
-3.63066
0
LINE
8
BLACK
6
CONTINUOUS
10
8.60092
20
-3.63066
11
8.6056
21
-3.62547
0
LINE
8
BLACK
6
CONTINUOUS
10
8.6056
20
-3.62547
11
8.61126
21
-3.62135
0
LINE
8
BLACK
6
CONTINUOUS
10
8.61126
20
-3.62135
11
8.61765
21
-3.61851
0
LINE
8
BLACK
6
CONTINUOUS
10
8.61765
20
-3.61851
11
8.62449
21
-3.61705
0
LINE
8
BLACK
6
CONTINUOUS
10
8.62449
20
-3.61705
11
8.63149
21
-3.61705
0
LINE
8
BLACK
6
CONTINUOUS
10
8.63149
20
-3.61705
11
8.63833
21
-3.61851
0
LINE
8
BLACK
6
CONTINUOUS
10
7.73833
20
-3.51851
11
7.74472
21
-3.52135
0
LINE
8
BLACK
6
CONTINUOUS
10
7.74472
20
-3.52135
11
7.75038
21
-3.52547
0
LINE
8
BLACK
6
CONTINUOUS
10
7.75038
20
-3.52547
11
7.75507
21
-3.53066
0
LINE
8
BLACK
6
CONTINUOUS
10
7.75507
20
-3.53066
11
7.75856
21
-3.53672
0
LINE
8
BLACK
6
CONTINUOUS
10
7.75856
20
-3.53672
11
7.76073
21
-3.54338
0
LINE
8
BLACK
6
CONTINUOUS
10
7.76073
20
-3.54338
11
7.76146
21
-3.55033
0
LINE
8
BLACK
6
CONTINUOUS
10
7.76146
20
-3.55033
11
7.76073
21
-3.55729
0
LINE
8
BLACK
6
CONTINUOUS
10
7.76073
20
-3.55729
11
7.75856
21
-3.56395
0
LINE
8
BLACK
6
CONTINUOUS
10
7.75856
20
-3.56395
11
7.75507
21
-3.57
0
LINE
8
BLACK
6
CONTINUOUS
10
7.75507
20
-3.57
11
7.75038
21
-3.5752
0
LINE
8
BLACK
6
CONTINUOUS
10
7.75038
20
-3.5752
11
7.74472
21
-3.57932
0
LINE
8
BLACK
6
CONTINUOUS
10
7.74472
20
-3.57932
11
7.73833
21
-3.58216
0
LINE
8
BLACK
6
CONTINUOUS
10
7.73833
20
-3.58216
11
7.73149
21
-3.58362
0
LINE
8
BLACK
6
CONTINUOUS
10
7.73149
20
-3.58362
11
7.72449
21
-3.58362
0
LINE
8
BLACK
6
CONTINUOUS
10
7.72449
20
-3.58362
11
7.71765
21
-3.58216
0
LINE
8
BLACK
6
CONTINUOUS
10
7.71765
20
-3.58216
11
7.71126
21
-3.57932
0
LINE
8
BLACK
6
CONTINUOUS
10
7.71126
20
-3.57932
11
7.7056
21
-3.5752
0
LINE
8
BLACK
6
CONTINUOUS
10
7.7056
20
-3.5752
11
7.70092
21
-3.57
0
LINE
8
BLACK
6
CONTINUOUS
10
7.70092
20
-3.57
11
7.69742
21
-3.56395
0
LINE
8
BLACK
6
CONTINUOUS
10
7.69742
20
-3.56395
11
7.69526
21
-3.55729
0
LINE
8
BLACK
6
CONTINUOUS
10
7.69526
20
-3.55729
11
7.69453
21
-3.55033
0
LINE
8
BLACK
6
CONTINUOUS
10
7.69453
20
-3.55033
11
7.69526
21
-3.54338
0
LINE
8
BLACK
6
CONTINUOUS
10
7.69526
20
-3.54338
11
7.69742
21
-3.53672
0
LINE
8
BLACK
6
CONTINUOUS
10
7.69742
20
-3.53672
11
7.70092
21
-3.53066
0
LINE
8
BLACK
6
CONTINUOUS
10
7.70092
20
-3.53066
11
7.7056
21
-3.52547
0
LINE
8
BLACK
6
CONTINUOUS
10
7.7056
20
-3.52547
11
7.71126
21
-3.52135
0
LINE
8
BLACK
6
CONTINUOUS
10
7.71126
20
-3.52135
11
7.71765
21
-3.51851
0
LINE
8
BLACK
6
CONTINUOUS
10
7.71765
20
-3.51851
11
7.72449
21
-3.51705
0
LINE
8
BLACK
6
CONTINUOUS
10
7.72449
20
-3.51705
11
7.73149
21
-3.51705
0
LINE
8
BLACK
6
CONTINUOUS
10
7.73149
20
-3.51705
11
7.73833
21
-3.51851
0
LINE
8
BLACK
6
CONTINUOUS
10
8.63833
20
-3.51851
11
8.64472
21
-3.52135
0
LINE
8
BLACK
6
CONTINUOUS
10
8.64472
20
-3.52135
11
8.65038
21
-3.52547
0
LINE
8
BLACK
6
CONTINUOUS
10
8.65038
20
-3.52547
11
8.65507
21
-3.53066
0
LINE
8
BLACK
6
CONTINUOUS
10
8.65507
20
-3.53066
11
8.65856
21
-3.53672
0
LINE
8
BLACK
6
CONTINUOUS
10
8.65856
20
-3.53672
11
8.66073
21
-3.54338
0
LINE
8
BLACK
6
CONTINUOUS
10
8.66073
20
-3.54338
11
8.66146
21
-3.55033
0
LINE
8
BLACK
6
CONTINUOUS
10
8.66146
20
-3.55033
11
8.66073
21
-3.55729
0
LINE
8
BLACK
6
CONTINUOUS
10
8.66073
20
-3.55729
11
8.65856
21
-3.56395
0
LINE
8
BLACK
6
CONTINUOUS
10
8.65856
20
-3.56395
11
8.65507
21
-3.57
0
LINE
8
BLACK
6
CONTINUOUS
10
8.65507
20
-3.57
11
8.65038
21
-3.5752
0
LINE
8
BLACK
6
CONTINUOUS
10
8.65038
20
-3.5752
11
8.64472
21
-3.57932
0
LINE
8
BLACK
6
CONTINUOUS
10
8.64472
20
-3.57932
11
8.63833
21
-3.58216
0
LINE
8
BLACK
6
CONTINUOUS
10
8.63833
20
-3.58216
11
8.63149
21
-3.58362
0
LINE
8
BLACK
6
CONTINUOUS
10
8.63149
20
-3.58362
11
8.62449
21
-3.58362
0
LINE
8
BLACK
6
CONTINUOUS
10
8.62449
20
-3.58362
11
8.61765
21
-3.58216
0
LINE
8
BLACK
6
CONTINUOUS
10
8.61765
20
-3.58216
11
8.61126
21
-3.57932
0
LINE
8
BLACK
6
CONTINUOUS
10
8.61126
20
-3.57932
11
8.6056
21
-3.5752
0
LINE
8
BLACK
6
CONTINUOUS
10
8.6056
20
-3.5752
11
8.60092
21
-3.57
0
LINE
8
BLACK
6
CONTINUOUS
10
8.60092
20
-3.57
11
8.59742
21
-3.56395
0
LINE
8
BLACK
6
CONTINUOUS
10
8.59742
20
-3.56395
11
8.59526
21
-3.55729
0
LINE
8
BLACK
6
CONTINUOUS
10
8.59526
20
-3.55729
11
8.59453
21
-3.55033
0
LINE
8
BLACK
6
CONTINUOUS
10
8.59453
20
-3.55033
11
8.59526
21
-3.54338
0
LINE
8
BLACK
6
CONTINUOUS
10
8.59526
20
-3.54338
11
8.59742
21
-3.53672
0
LINE
8
BLACK
6
CONTINUOUS
10
8.59742
20
-3.53672
11
8.60092
21
-3.53066
0
LINE
8
BLACK
6
CONTINUOUS
10
8.60092
20
-3.53066
11
8.6056
21
-3.52547
0
LINE
8
BLACK
6
CONTINUOUS
10
8.6056
20
-3.52547
11
8.61126
21
-3.52135
0
LINE
8
BLACK
6
CONTINUOUS
10
8.61126
20
-3.52135
11
8.61765
21
-3.51851
0
LINE
8
BLACK
6
CONTINUOUS
10
8.61765
20
-3.51851
11
8.62449
21
-3.51705
0
LINE
8
BLACK
6
CONTINUOUS
10
8.62449
20
-3.51705
11
8.63149
21
-3.51705
0
LINE
8
BLACK
6
CONTINUOUS
10
8.63149
20
-3.51705
11
8.63833
21
-3.51851
0
LINE
8
BLACK
6
CONTINUOUS
10
5.41735
20
-3.44641
11
5.42697
21
-3.44871
0
LINE
8
BLACK
6
CONTINUOUS
10
5.42697
20
-3.44871
11
5.4361
21
-3.4525
0
LINE
8
BLACK
6
CONTINUOUS
10
5.4361
20
-3.4525
11
5.44453
21
-3.45766
0
LINE
8
BLACK
6
CONTINUOUS
10
5.44453
20
-3.45766
11
5.45204
21
-3.46408
0
LINE
8
BLACK
6
CONTINUOUS
10
5.45204
20
-3.46408
11
5.45846
21
-3.4716
0
LINE
8
BLACK
6
CONTINUOUS
10
5.45846
20
-3.4716
11
5.46363
21
-3.48002
0
LINE
8
BLACK
6
CONTINUOUS
10
5.46363
20
-3.48002
11
5.46741
21
-3.48916
0
LINE
8
BLACK
6
CONTINUOUS
10
5.46741
20
-3.48916
11
5.46972
21
-3.49877
0
LINE
8
BLACK
6
CONTINUOUS
10
5.46972
20
-3.49877
11
5.47049
21
-3.50862
0
LINE
8
BLACK
6
CONTINUOUS
10
5.47049
20
-3.50862
11
5.46972
21
-3.51848
0
LINE
8
BLACK
6
CONTINUOUS
10
5.46972
20
-3.51848
11
5.46741
21
-3.52809
0
LINE
8
BLACK
6
CONTINUOUS
10
5.46741
20
-3.52809
11
5.46363
21
-3.53722
0
LINE
8
BLACK
6
CONTINUOUS
10
5.46363
20
-3.53722
11
5.45846
21
-3.54565
0
LINE
8
BLACK
6
CONTINUOUS
10
5.45846
20
-3.54565
11
5.45204
21
-3.55316
0
LINE
8
BLACK
6
CONTINUOUS
10
5.45204
20
-3.55316
11
5.44453
21
-3.55958
0
LINE
8
BLACK
6
CONTINUOUS
10
5.44453
20
-3.55958
11
5.4361
21
-3.56475
0
LINE
8
BLACK
6
CONTINUOUS
10
5.4361
20
-3.56475
11
5.42697
21
-3.56853
0
LINE
8
BLACK
6
CONTINUOUS
10
5.42697
20
-3.56853
11
5.41735
21
-3.57084
0
LINE
8
BLACK
6
CONTINUOUS
10
5.41735
20
-3.57084
11
5.4075
21
-3.57161
0
LINE
8
BLACK
6
CONTINUOUS
10
5.4075
20
-3.57161
11
5.39765
21
-3.57084
0
LINE
8
BLACK
6
CONTINUOUS
10
5.39765
20
-3.57084
11
5.38803
21
-3.56853
0
LINE
8
BLACK
6
CONTINUOUS
10
5.38803
20
-3.56853
11
5.3789
21
-3.56475
0
LINE
8
BLACK
6
CONTINUOUS
10
5.3789
20
-3.56475
11
5.37047
21
-3.55958
0
LINE
8
BLACK
6
CONTINUOUS
10
5.37047
20
-3.55958
11
5.36296
21
-3.55316
0
LINE
8
BLACK
6
CONTINUOUS
10
5.36296
20
-3.55316
11
5.35654
21
-3.54565
0
LINE
8
BLACK
6
CONTINUOUS
10
5.35654
20
-3.54565
11
5.35137
21
-3.53722
0
LINE
8
BLACK
6
CONTINUOUS
10
5.35137
20
-3.53722
11
5.34759
21
-3.52809
0
LINE
8
BLACK
6
CONTINUOUS
10
5.34759
20
-3.52809
11
5.34528
21
-3.51848
0
LINE
8
BLACK
6
CONTINUOUS
10
5.34528
20
-3.51848
11
5.34451
21
-3.50862
0
LINE
8
BLACK
6
CONTINUOUS
10
5.34451
20
-3.50862
11
5.34528
21
-3.49877
0
LINE
8
BLACK
6
CONTINUOUS
10
5.34528
20
-3.49877
11
5.34759
21
-3.48916
0
LINE
8
BLACK
6
CONTINUOUS
10
5.34759
20
-3.48916
11
5.35137
21
-3.48002
0
LINE
8
BLACK
6
CONTINUOUS
10
5.35137
20
-3.48002
11
5.35654
21
-3.4716
0
LINE
8
BLACK
6
CONTINUOUS
10
5.35654
20
-3.4716
11
5.36296
21
-3.46408
0
LINE
8
BLACK
6
CONTINUOUS
10
5.36296
20
-3.46408
11
5.37047
21
-3.45766
0
LINE
8
BLACK
6
CONTINUOUS
10
5.37047
20
-3.45766
11
5.3789
21
-3.4525
0
LINE
8
BLACK
6
CONTINUOUS
10
5.3789
20
-3.4525
11
5.38803
21
-3.44871
0
LINE
8
BLACK
6
CONTINUOUS
10
5.38803
20
-3.44871
11
5.39765
21
-3.44641
0
LINE
8
BLACK
6
CONTINUOUS
10
5.39765
20
-3.44641
11
5.4075
21
-3.44563
0
LINE
8
BLACK
6
CONTINUOUS
10
5.4075
20
-3.44563
11
5.41735
21
-3.44641
0
LINE
8
BLACK
6
CONTINUOUS
10
7.29924
20
-3.44641
11
7.30886
21
-3.44871
0
LINE
8
BLACK
6
CONTINUOUS
10
7.30886
20
-3.44871
11
7.31799
21
-3.4525
0
LINE
8
BLACK
6
CONTINUOUS
10
7.31799
20
-3.4525
11
7.32642
21
-3.45766
0
LINE
8
BLACK
6
CONTINUOUS
10
7.32642
20
-3.45766
11
7.33393
21
-3.46408
0
LINE
8
BLACK
6
CONTINUOUS
10
7.33393
20
-3.46408
11
7.34035
21
-3.4716
0
LINE
8
BLACK
6
CONTINUOUS
10
7.34035
20
-3.4716
11
7.34552
21
-3.48002
0
LINE
8
BLACK
6
CONTINUOUS
10
7.34552
20
-3.48002
11
7.3493
21
-3.48916
0
LINE
8
BLACK
6
CONTINUOUS
10
7.3493
20
-3.48916
11
7.35161
21
-3.49877
0
LINE
8
BLACK
6
CONTINUOUS
10
7.35161
20
-3.49877
11
7.35238
21
-3.50862
0
LINE
8
BLACK
6
CONTINUOUS
10
7.35238
20
-3.50862
11
7.35161
21
-3.51848
0
LINE
8
BLACK
6
CONTINUOUS
10
7.35161
20
-3.51848
11
7.3493
21
-3.52809
0
LINE
8
BLACK
6
CONTINUOUS
10
7.3493
20
-3.52809
11
7.34552
21
-3.53722
0
LINE
8
BLACK
6
CONTINUOUS
10
7.34552
20
-3.53722
11
7.34035
21
-3.54565
0
LINE
8
BLACK
6
CONTINUOUS
10
7.34035
20
-3.54565
11
7.33393
21
-3.55316
0
LINE
8
BLACK
6
CONTINUOUS
10
7.33393
20
-3.55316
11
7.32642
21
-3.55958
0
LINE
8
BLACK
6
CONTINUOUS
10
7.32642
20
-3.55958
11
7.31799
21
-3.56475
0
LINE
8
BLACK
6
CONTINUOUS
10
7.31799
20
-3.56475
11
7.30886
21
-3.56853
0
LINE
8
BLACK
6
CONTINUOUS
10
7.30886
20
-3.56853
11
7.29924
21
-3.57084
0
LINE
8
BLACK
6
CONTINUOUS
10
7.29924
20
-3.57084
11
7.28939
21
-3.57161
0
LINE
8
BLACK
6
CONTINUOUS
10
7.28939
20
-3.57161
11
7.27954
21
-3.57084
0
LINE
8
BLACK
6
CONTINUOUS
10
7.27954
20
-3.57084
11
7.26992
21
-3.56853
0
LINE
8
BLACK
6
CONTINUOUS
10
7.26992
20
-3.56853
11
7.26079
21
-3.56475
0
LINE
8
BLACK
6
CONTINUOUS
10
7.26079
20
-3.56475
11
7.25236
21
-3.55958
0
LINE
8
BLACK
6
CONTINUOUS
10
7.25236
20
-3.55958
11
7.24485
21
-3.55316
0
LINE
8
BLACK
6
CONTINUOUS
10
7.24485
20
-3.55316
11
7.23843
21
-3.54565
0
LINE
8
BLACK
6
CONTINUOUS
10
7.23843
20
-3.54565
11
7.23326
21
-3.53722
0
LINE
8
BLACK
6
CONTINUOUS
10
7.23326
20
-3.53722
11
7.22948
21
-3.52809
0
LINE
8
BLACK
6
CONTINUOUS
10
7.22948
20
-3.52809
11
7.22717
21
-3.51848
0
LINE
8
BLACK
6
CONTINUOUS
10
7.22717
20
-3.51848
11
7.2264
21
-3.50862
0
LINE
8
BLACK
6
CONTINUOUS
10
7.2264
20
-3.50862
11
7.22717
21
-3.49877
0
LINE
8
BLACK
6
CONTINUOUS
10
7.22717
20
-3.49877
11
7.22948
21
-3.48916
0
LINE
8
BLACK
6
CONTINUOUS
10
7.22948
20
-3.48916
11
7.23326
21
-3.48002
0
LINE
8
BLACK
6
CONTINUOUS
10
7.23326
20
-3.48002
11
7.23843
21
-3.4716
0
LINE
8
BLACK
6
CONTINUOUS
10
7.23843
20
-3.4716
11
7.24485
21
-3.46408
0
LINE
8
BLACK
6
CONTINUOUS
10
7.24485
20
-3.46408
11
7.25236
21
-3.45766
0
LINE
8
BLACK
6
CONTINUOUS
10
7.25236
20
-3.45766
11
7.26079
21
-3.4525
0
LINE
8
BLACK
6
CONTINUOUS
10
7.26079
20
-3.4525
11
7.26992
21
-3.44871
0
LINE
8
BLACK
6
CONTINUOUS
10
7.26992
20
-3.44871
11
7.27954
21
-3.44641
0
LINE
8
BLACK
6
CONTINUOUS
10
7.27954
20
-3.44641
11
7.28939
21
-3.44563
0
LINE
8
BLACK
6
CONTINUOUS
10
7.28939
20
-3.44563
11
7.29924
21
-3.44641
0
LINE
8
BLACK
6
CONTINUOUS
10
7.73833
20
-3.41851
11
7.74472
21
-3.42135
0
LINE
8
BLACK
6
CONTINUOUS
10
7.74472
20
-3.42135
11
7.75038
21
-3.42547
0
LINE
8
BLACK
6
CONTINUOUS
10
7.75038
20
-3.42547
11
7.75507
21
-3.43066
0
LINE
8
BLACK
6
CONTINUOUS
10
7.75507
20
-3.43066
11
7.75856
21
-3.43672
0
LINE
8
BLACK
6
CONTINUOUS
10
7.75856
20
-3.43672
11
7.76073
21
-3.44338
0
LINE
8
BLACK
6
CONTINUOUS
10
7.76073
20
-3.44338
11
7.76146
21
-3.45033
0
LINE
8
BLACK
6
CONTINUOUS
10
7.76146
20
-3.45033
11
7.76073
21
-3.45729
0
LINE
8
BLACK
6
CONTINUOUS
10
7.76073
20
-3.45729
11
7.75856
21
-3.46395
0
LINE
8
BLACK
6
CONTINUOUS
10
7.75856
20
-3.46395
11
7.75507
21
-3.47
0
LINE
8
BLACK
6
CONTINUOUS
10
7.75507
20
-3.47
11
7.75038
21
-3.4752
0
LINE
8
BLACK
6
CONTINUOUS
10
7.75038
20
-3.4752
11
7.74472
21
-3.47932
0
LINE
8
BLACK
6
CONTINUOUS
10
7.74472
20
-3.47932
11
7.73833
21
-3.48216
0
LINE
8
BLACK
6
CONTINUOUS
10
7.73833
20
-3.48216
11
7.73149
21
-3.48362
0
LINE
8
BLACK
6
CONTINUOUS
10
7.73149
20
-3.48362
11
7.72449
21
-3.48362
0
LINE
8
BLACK
6
CONTINUOUS
10
7.72449
20
-3.48362
11
7.71765
21
-3.48216
0
LINE
8
BLACK
6
CONTINUOUS
10
7.71765
20
-3.48216
11
7.71126
21
-3.47932
0
LINE
8
BLACK
6
CONTINUOUS
10
7.71126
20
-3.47932
11
7.7056
21
-3.4752
0
LINE
8
BLACK
6
CONTINUOUS
10
7.7056
20
-3.4752
11
7.70092
21
-3.47
0
LINE
8
BLACK
6
CONTINUOUS
10
7.70092
20
-3.47
11
7.69742
21
-3.46395
0
LINE
8
BLACK
6
CONTINUOUS
10
7.69742
20
-3.46395
11
7.69526
21
-3.45729
0
LINE
8
BLACK
6
CONTINUOUS
10
7.69526
20
-3.45729
11
7.69453
21
-3.45033
0
LINE
8
BLACK
6
CONTINUOUS
10
7.69453
20
-3.45033
11
7.69526
21
-3.44338
0
LINE
8
BLACK
6
CONTINUOUS
10
7.69526
20
-3.44338
11
7.69742
21
-3.43672
0
LINE
8
BLACK
6
CONTINUOUS
10
7.69742
20
-3.43672
11
7.70092
21
-3.43066
0
LINE
8
BLACK
6
CONTINUOUS
10
7.70092
20
-3.43066
11
7.7056
21
-3.42547
0
LINE
8
BLACK
6
CONTINUOUS
10
7.7056
20
-3.42547
11
7.71126
21
-3.42135
0
LINE
8
BLACK
6
CONTINUOUS
10
7.71126
20
-3.42135
11
7.71765
21
-3.41851
0
LINE
8
BLACK
6
CONTINUOUS
10
7.71765
20
-3.41851
11
7.72449
21
-3.41705
0
LINE
8
BLACK
6
CONTINUOUS
10
7.72449
20
-3.41705
11
7.73149
21
-3.41705
0
LINE
8
BLACK
6
CONTINUOUS
10
7.73149
20
-3.41705
11
7.73833
21
-3.41851
0
LINE
8
BLACK
6
CONTINUOUS
10
8.63833
20
-3.41851
11
8.64472
21
-3.42135
0
LINE
8
BLACK
6
CONTINUOUS
10
8.64472
20
-3.42135
11
8.65038
21
-3.42547
0
LINE
8
BLACK
6
CONTINUOUS
10
8.65038
20
-3.42547
11
8.65507
21
-3.43066
0
LINE
8
BLACK
6
CONTINUOUS
10
8.65507
20
-3.43066
11
8.65856
21
-3.43672
0
LINE
8
BLACK
6
CONTINUOUS
10
8.65856
20
-3.43672
11
8.66073
21
-3.44338
0
LINE
8
BLACK
6
CONTINUOUS
10
8.66073
20
-3.44338
11
8.66146
21
-3.45033
0
LINE
8
BLACK
6
CONTINUOUS
10
8.66146
20
-3.45033
11
8.66073
21
-3.45729
0
LINE
8
BLACK
6
CONTINUOUS
10
8.66073
20
-3.45729
11
8.65856
21
-3.46395
0
LINE
8
BLACK
6
CONTINUOUS
10
8.65856
20
-3.46395
11
8.65507
21
-3.47
0
LINE
8
BLACK
6
CONTINUOUS
10
8.65507
20
-3.47
11
8.65038
21
-3.4752
0
LINE
8
BLACK
6
CONTINUOUS
10
8.65038
20
-3.4752
11
8.64472
21
-3.47932
0
LINE
8
BLACK
6
CONTINUOUS
10
8.64472
20
-3.47932
11
8.63833
21
-3.48216
0
LINE
8
BLACK
6
CONTINUOUS
10
8.63833
20
-3.48216
11
8.63149
21
-3.48362
0
LINE
8
BLACK
6
CONTINUOUS
10
8.63149
20
-3.48362
11
8.62449
21
-3.48362
0
LINE
8
BLACK
6
CONTINUOUS
10
8.62449
20
-3.48362
11
8.61765
21
-3.48216
0
LINE
8
BLACK
6
CONTINUOUS
10
8.61765
20
-3.48216
11
8.61126
21
-3.47932
0
LINE
8
BLACK
6
CONTINUOUS
10
8.61126
20
-3.47932
11
8.6056
21
-3.4752
0
LINE
8
BLACK
6
CONTINUOUS
10
8.6056
20
-3.4752
11
8.60092
21
-3.47
0
LINE
8
BLACK
6
CONTINUOUS
10
8.60092
20
-3.47
11
8.59742
21
-3.46395
0
LINE
8
BLACK
6
CONTINUOUS
10
8.59742
20
-3.46395
11
8.59526
21
-3.45729
0
LINE
8
BLACK
6
CONTINUOUS
10
8.59526
20
-3.45729
11
8.59453
21
-3.45033
0
LINE
8
BLACK
6
CONTINUOUS
10
8.59453
20
-3.45033
11
8.59526
21
-3.44338
0
LINE
8
BLACK
6
CONTINUOUS
10
8.59526
20
-3.44338
11
8.59742
21
-3.43672
0
LINE
8
BLACK
6
CONTINUOUS
10
8.59742
20
-3.43672
11
8.60092
21
-3.43066
0
LINE
8
BLACK
6
CONTINUOUS
10
8.60092
20
-3.43066
11
8.6056
21
-3.42547
0
LINE
8
BLACK
6
CONTINUOUS
10
8.6056
20
-3.42547
11
8.61126
21
-3.42135
0
LINE
8
BLACK
6
CONTINUOUS
10
8.61126
20
-3.42135
11
8.61765
21
-3.41851
0
LINE
8
BLACK
6
CONTINUOUS
10
8.61765
20
-3.41851
11
8.62449
21
-3.41705
0
LINE
8
BLACK
6
CONTINUOUS
10
8.62449
20
-3.41705
11
8.63149
21
-3.41705
0
LINE
8
BLACK
6
CONTINUOUS
10
8.63149
20
-3.41705
11
8.63833
21
-3.41851
0
LINE
8
BLACK
6
CONTINUOUS
10
7.73833
20
-3.31851
11
7.74472
21
-3.32135
0
LINE
8
BLACK
6
CONTINUOUS
10
7.74472
20
-3.32135
11
7.75038
21
-3.32547
0
LINE
8
BLACK
6
CONTINUOUS
10
7.75038
20
-3.32547
11
7.75507
21
-3.33066
0
LINE
8
BLACK
6
CONTINUOUS
10
7.75507
20
-3.33066
11
7.75856
21
-3.33672
0
LINE
8
BLACK
6
CONTINUOUS
10
7.75856
20
-3.33672
11
7.76073
21
-3.34338
0
LINE
8
BLACK
6
CONTINUOUS
10
7.76073
20
-3.34338
11
7.76146
21
-3.35033
0
LINE
8
BLACK
6
CONTINUOUS
10
7.76146
20
-3.35033
11
7.76073
21
-3.35729
0
LINE
8
BLACK
6
CONTINUOUS
10
7.76073
20
-3.35729
11
7.75856
21
-3.36395
0
LINE
8
BLACK
6
CONTINUOUS
10
7.75856
20
-3.36395
11
7.75507
21
-3.37
0
LINE
8
BLACK
6
CONTINUOUS
10
7.75507
20
-3.37
11
7.75038
21
-3.3752
0
LINE
8
BLACK
6
CONTINUOUS
10
7.75038
20
-3.3752
11
7.74472
21
-3.37932
0
LINE
8
BLACK
6
CONTINUOUS
10
7.74472
20
-3.37932
11
7.73833
21
-3.38216
0
LINE
8
BLACK
6
CONTINUOUS
10
7.73833
20
-3.38216
11
7.73149
21
-3.38362
0
LINE
8
BLACK
6
CONTINUOUS
10
7.73149
20
-3.38362
11
7.72449
21
-3.38362
0
LINE
8
BLACK
6
CONTINUOUS
10
7.72449
20
-3.38362
11
7.71765
21
-3.38216
0
LINE
8
BLACK
6
CONTINUOUS
10
7.71765
20
-3.38216
11
7.71126
21
-3.37932
0
LINE
8
BLACK
6
CONTINUOUS
10
7.71126
20
-3.37932
11
7.7056
21
-3.3752
0
LINE
8
BLACK
6
CONTINUOUS
10
7.7056
20
-3.3752
11
7.70092
21
-3.37
0
LINE
8
BLACK
6
CONTINUOUS
10
7.70092
20
-3.37
11
7.69742
21
-3.36395
0
LINE
8
BLACK
6
CONTINUOUS
10
7.69742
20
-3.36395
11
7.69526
21
-3.35729
0
LINE
8
BLACK
6
CONTINUOUS
10
7.69526
20
-3.35729
11
7.69453
21
-3.35033
0
LINE
8
BLACK
6
CONTINUOUS
10
7.69453
20
-3.35033
11
7.69526
21
-3.34338
0
LINE
8
BLACK
6
CONTINUOUS
10
7.69526
20
-3.34338
11
7.69742
21
-3.33672
0
LINE
8
BLACK
6
CONTINUOUS
10
7.69742
20
-3.33672
11
7.70092
21
-3.33066
0
LINE
8
BLACK
6
CONTINUOUS
10
7.70092
20
-3.33066
11
7.7056
21
-3.32547
0
LINE
8
BLACK
6
CONTINUOUS
10
7.7056
20
-3.32547
11
7.71126
21
-3.32135
0
LINE
8
BLACK
6
CONTINUOUS
10
7.71126
20
-3.32135
11
7.71765
21
-3.31851
0
LINE
8
BLACK
6
CONTINUOUS
10
7.71765
20
-3.31851
11
7.72449
21
-3.31705
0
LINE
8
BLACK
6
CONTINUOUS
10
7.72449
20
-3.31705
11
7.73149
21
-3.31705
0
LINE
8
BLACK
6
CONTINUOUS
10
7.73149
20
-3.31705
11
7.73833
21
-3.31851
0
LINE
8
BLACK
6
CONTINUOUS
10
8.63833
20
-3.31851
11
8.64472
21
-3.32135
0
LINE
8
BLACK
6
CONTINUOUS
10
8.64472
20
-3.32135
11
8.65038
21
-3.32547
0
LINE
8
BLACK
6
CONTINUOUS
10
8.65038
20
-3.32547
11
8.65507
21
-3.33066
0
LINE
8
BLACK
6
CONTINUOUS
10
8.65507
20
-3.33066
11
8.65856
21
-3.33672
0
LINE
8
BLACK
6
CONTINUOUS
10
8.65856
20
-3.33672
11
8.66073
21
-3.34338
0
LINE
8
BLACK
6
CONTINUOUS
10
8.66073
20
-3.34338
11
8.66146
21
-3.35033
0
LINE
8
BLACK
6
CONTINUOUS
10
8.66146
20
-3.35033
11
8.66073
21
-3.35729
0
LINE
8
BLACK
6
CONTINUOUS
10
8.66073
20
-3.35729
11
8.65856
21
-3.36395
0
LINE
8
BLACK
6
CONTINUOUS
10
8.65856
20
-3.36395
11
8.65507
21
-3.37
0
LINE
8
BLACK
6
CONTINUOUS
10
8.65507
20
-3.37
11
8.65038
21
-3.3752
0
LINE
8
BLACK
6
CONTINUOUS
10
8.65038
20
-3.3752
11
8.64472
21
-3.37932
0
LINE
8
BLACK
6
CONTINUOUS
10
8.64472
20
-3.37932
11
8.63833
21
-3.38216
0
LINE
8
BLACK
6
CONTINUOUS
10
8.63833
20
-3.38216
11
8.63149
21
-3.38362
0
LINE
8
BLACK
6
CONTINUOUS
10
8.63149
20
-3.38362
11
8.62449
21
-3.38362
0
LINE
8
BLACK
6
CONTINUOUS
10
8.62449
20
-3.38362
11
8.61765
21
-3.38216
0
LINE
8
BLACK
6
CONTINUOUS
10
8.61765
20
-3.38216
11
8.61126
21
-3.37932
0
LINE
8
BLACK
6
CONTINUOUS
10
8.61126
20
-3.37932
11
8.6056
21
-3.3752
0
LINE
8
BLACK
6
CONTINUOUS
10
8.6056
20
-3.3752
11
8.60092
21
-3.37
0
LINE
8
BLACK
6
CONTINUOUS
10
8.60092
20
-3.37
11
8.59742
21
-3.36395
0
LINE
8
BLACK
6
CONTINUOUS
10
8.59742
20
-3.36395
11
8.59526
21
-3.35729
0
LINE
8
BLACK
6
CONTINUOUS
10
8.59526
20
-3.35729
11
8.59453
21
-3.35033
0
LINE
8
BLACK
6
CONTINUOUS
10
8.59453
20
-3.35033
11
8.59526
21
-3.34338
0
LINE
8
BLACK
6
CONTINUOUS
10
8.59526
20
-3.34338
11
8.59742
21
-3.33672
0
LINE
8
BLACK
6
CONTINUOUS
10
8.59742
20
-3.33672
11
8.60092
21
-3.33066
0
LINE
8
BLACK
6
CONTINUOUS
10
8.60092
20
-3.33066
11
8.6056
21
-3.32547
0
LINE
8
BLACK
6
CONTINUOUS
10
8.6056
20
-3.32547
11
8.61126
21
-3.32135
0
LINE
8
BLACK
6
CONTINUOUS
10
8.61126
20
-3.32135
11
8.61765
21
-3.31851
0
LINE
8
BLACK
6
CONTINUOUS
10
8.61765
20
-3.31851
11
8.62449
21
-3.31705
0
LINE
8
BLACK
6
CONTINUOUS
10
8.62449
20
-3.31705
11
8.63149
21
-3.31705
0
LINE
8
BLACK
6
CONTINUOUS
10
8.63149
20
-3.31705
11
8.63833
21
-3.31851
0
LINE
8
BLACK
6
CONTINUOUS
10
7.73833
20
-3.21851
11
7.74472
21
-3.22135
0
LINE
8
BLACK
6
CONTINUOUS
10
7.74472
20
-3.22135
11
7.75038
21
-3.22547
0
LINE
8
BLACK
6
CONTINUOUS
10
7.75038
20
-3.22547
11
7.75507
21
-3.23066
0
LINE
8
BLACK
6
CONTINUOUS
10
7.75507
20
-3.23066
11
7.75856
21
-3.23672
0
LINE
8
BLACK
6
CONTINUOUS
10
7.75856
20
-3.23672
11
7.76073
21
-3.24338
0
LINE
8
BLACK
6
CONTINUOUS
10
7.76073
20
-3.24338
11
7.76146
21
-3.25033
0
LINE
8
BLACK
6
CONTINUOUS
10
7.76146
20
-3.25033
11
7.76073
21
-3.25729
0
LINE
8
BLACK
6
CONTINUOUS
10
7.76073
20
-3.25729
11
7.75856
21
-3.26395
0
LINE
8
BLACK
6
CONTINUOUS
10
7.75856
20
-3.26395
11
7.75507
21
-3.27
0
LINE
8
BLACK
6
CONTINUOUS
10
7.75507
20
-3.27
11
7.75038
21
-3.2752
0
LINE
8
BLACK
6
CONTINUOUS
10
7.75038
20
-3.2752
11
7.74472
21
-3.27932
0
LINE
8
BLACK
6
CONTINUOUS
10
7.74472
20
-3.27932
11
7.73833
21
-3.28216
0
LINE
8
BLACK
6
CONTINUOUS
10
7.73833
20
-3.28216
11
7.73149
21
-3.28362
0
LINE
8
BLACK
6
CONTINUOUS
10
7.73149
20
-3.28362
11
7.72449
21
-3.28362
0
LINE
8
BLACK
6
CONTINUOUS
10
7.72449
20
-3.28362
11
7.71765
21
-3.28216
0
LINE
8
BLACK
6
CONTINUOUS
10
7.71765
20
-3.28216
11
7.71126
21
-3.27932
0
LINE
8
BLACK
6
CONTINUOUS
10
7.71126
20
-3.27932
11
7.7056
21
-3.2752
0
LINE
8
BLACK
6
CONTINUOUS
10
7.7056
20
-3.2752
11
7.70092
21
-3.27
0
LINE
8
BLACK
6
CONTINUOUS
10
7.70092
20
-3.27
11
7.69742
21
-3.26395
0
LINE
8
BLACK
6
CONTINUOUS
10
7.69742
20
-3.26395
11
7.69526
21
-3.25729
0
LINE
8
BLACK
6
CONTINUOUS
10
7.69526
20
-3.25729
11
7.69453
21
-3.25033
0
LINE
8
BLACK
6
CONTINUOUS
10
7.69453
20
-3.25033
11
7.69526
21
-3.24338
0
LINE
8
BLACK
6
CONTINUOUS
10
7.69526
20
-3.24338
11
7.69742
21
-3.23672
0
LINE
8
BLACK
6
CONTINUOUS
10
7.69742
20
-3.23672
11
7.70092
21
-3.23066
0
LINE
8
BLACK
6
CONTINUOUS
10
7.70092
20
-3.23066
11
7.7056
21
-3.22547
0
LINE
8
BLACK
6
CONTINUOUS
10
7.7056
20
-3.22547
11
7.71126
21
-3.22135
0
LINE
8
BLACK
6
CONTINUOUS
10
7.71126
20
-3.22135
11
7.71765
21
-3.21851
0
LINE
8
BLACK
6
CONTINUOUS
10
7.71765
20
-3.21851
11
7.72449
21
-3.21705
0
LINE
8
BLACK
6
CONTINUOUS
10
7.72449
20
-3.21705
11
7.73149
21
-3.21705
0
LINE
8
BLACK
6
CONTINUOUS
10
7.73149
20
-3.21705
11
7.73833
21
-3.21851
0
LINE
8
BLACK
6
CONTINUOUS
10
8.63833
20
-3.21851
11
8.64472
21
-3.22135
0
LINE
8
BLACK
6
CONTINUOUS
10
8.64472
20
-3.22135
11
8.65038
21
-3.22547
0
LINE
8
BLACK
6
CONTINUOUS
10
8.65038
20
-3.22547
11
8.65507
21
-3.23066
0
LINE
8
BLACK
6
CONTINUOUS
10
8.65507
20
-3.23066
11
8.65856
21
-3.23672
0
LINE
8
BLACK
6
CONTINUOUS
10
8.65856
20
-3.23672
11
8.66073
21
-3.24338
0
LINE
8
BLACK
6
CONTINUOUS
10
8.66073
20
-3.24338
11
8.66146
21
-3.25033
0
LINE
8
BLACK
6
CONTINUOUS
10
8.66146
20
-3.25033
11
8.66073
21
-3.25729
0
LINE
8
BLACK
6
CONTINUOUS
10
8.66073
20
-3.25729
11
8.65856
21
-3.26395
0
LINE
8
BLACK
6
CONTINUOUS
10
8.65856
20
-3.26395
11
8.65507
21
-3.27
0
LINE
8
BLACK
6
CONTINUOUS
10
8.65507
20
-3.27
11
8.65038
21
-3.2752
0
LINE
8
BLACK
6
CONTINUOUS
10
8.65038
20
-3.2752
11
8.64472
21
-3.27932
0
LINE
8
BLACK
6
CONTINUOUS
10
8.64472
20
-3.27932
11
8.63833
21
-3.28216
0
LINE
8
BLACK
6
CONTINUOUS
10
8.63833
20
-3.28216
11
8.63149
21
-3.28362
0
LINE
8
BLACK
6
CONTINUOUS
10
8.63149
20
-3.28362
11
8.62449
21
-3.28362
0
LINE
8
BLACK
6
CONTINUOUS
10
8.62449
20
-3.28362
11
8.61765
21
-3.28216
0
LINE
8
BLACK
6
CONTINUOUS
10
8.61765
20
-3.28216
11
8.61126
21
-3.27932
0
LINE
8
BLACK
6
CONTINUOUS
10
8.61126
20
-3.27932
11
8.6056
21
-3.2752
0
LINE
8
BLACK
6
CONTINUOUS
10
8.6056
20
-3.2752
11
8.60092
21
-3.27
0
LINE
8
BLACK
6
CONTINUOUS
10
8.60092
20
-3.27
11
8.59742
21
-3.26395
0
LINE
8
BLACK
6
CONTINUOUS
10
8.59742
20
-3.26395
11
8.59526
21
-3.25729
0
LINE
8
BLACK
6
CONTINUOUS
10
8.59526
20
-3.25729
11
8.59453
21
-3.25033
0
LINE
8
BLACK
6
CONTINUOUS
10
8.59453
20
-3.25033
11
8.59526
21
-3.24338
0
LINE
8
BLACK
6
CONTINUOUS
10
8.59526
20
-3.24338
11
8.59742
21
-3.23672
0
LINE
8
BLACK
6
CONTINUOUS
10
8.59742
20
-3.23672
11
8.60092
21
-3.23066
0
LINE
8
BLACK
6
CONTINUOUS
10
8.60092
20
-3.23066
11
8.6056
21
-3.22547
0
LINE
8
BLACK
6
CONTINUOUS
10
8.6056
20
-3.22547
11
8.61126
21
-3.22135
0
LINE
8
BLACK
6
CONTINUOUS
10
8.61126
20
-3.22135
11
8.61765
21
-3.21851
0
LINE
8
BLACK
6
CONTINUOUS
10
8.61765
20
-3.21851
11
8.62449
21
-3.21705
0
LINE
8
BLACK
6
CONTINUOUS
10
8.62449
20
-3.21705
11
8.63149
21
-3.21705
0
LINE
8
BLACK
6
CONTINUOUS
10
8.63149
20
-3.21705
11
8.63833
21
-3.21851
0
LINE
8
BLACK
6
CONTINUOUS
10
7.73833
20
-3.11851
11
7.74472
21
-3.12135
0
LINE
8
BLACK
6
CONTINUOUS
10
7.74472
20
-3.12135
11
7.75038
21
-3.12547
0
LINE
8
BLACK
6
CONTINUOUS
10
7.75038
20
-3.12547
11
7.75507
21
-3.13066
0
LINE
8
BLACK
6
CONTINUOUS
10
7.75507
20
-3.13066
11
7.75856
21
-3.13672
0
LINE
8
BLACK
6
CONTINUOUS
10
7.75856
20
-3.13672
11
7.76073
21
-3.14338
0
LINE
8
BLACK
6
CONTINUOUS
10
7.76073
20
-3.14338
11
7.76146
21
-3.15033
0
LINE
8
BLACK
6
CONTINUOUS
10
7.76146
20
-3.15033
11
7.76073
21
-3.15729
0
LINE
8
BLACK
6
CONTINUOUS
10
7.76073
20
-3.15729
11
7.75856
21
-3.16395
0
LINE
8
BLACK
6
CONTINUOUS
10
7.75856
20
-3.16395
11
7.75507
21
-3.17
0
LINE
8
BLACK
6
CONTINUOUS
10
7.75507
20
-3.17
11
7.75038
21
-3.1752
0
LINE
8
BLACK
6
CONTINUOUS
10
7.75038
20
-3.1752
11
7.74472
21
-3.17932
0
LINE
8
BLACK
6
CONTINUOUS
10
7.74472
20
-3.17932
11
7.73833
21
-3.18216
0
LINE
8
BLACK
6
CONTINUOUS
10
7.73833
20
-3.18216
11
7.73149
21
-3.18362
0
LINE
8
BLACK
6
CONTINUOUS
10
7.73149
20
-3.18362
11
7.72449
21
-3.18362
0
LINE
8
BLACK
6
CONTINUOUS
10
7.72449
20
-3.18362
11
7.71765
21
-3.18216
0
LINE
8
BLACK
6
CONTINUOUS
10
7.71765
20
-3.18216
11
7.71126
21
-3.17932
0
LINE
8
BLACK
6
CONTINUOUS
10
7.71126
20
-3.17932
11
7.7056
21
-3.1752
0
LINE
8
BLACK
6
CONTINUOUS
10
7.7056
20
-3.1752
11
7.70092
21
-3.17
0
LINE
8
BLACK
6
CONTINUOUS
10
7.70092
20
-3.17
11
7.69742
21
-3.16395
0
LINE
8
BLACK
6
CONTINUOUS
10
7.69742
20
-3.16395
11
7.69526
21
-3.15729
0
LINE
8
BLACK
6
CONTINUOUS
10
7.69526
20
-3.15729
11
7.69453
21
-3.15033
0
LINE
8
BLACK
6
CONTINUOUS
10
7.69453
20
-3.15033
11
7.69526
21
-3.14338
0
LINE
8
BLACK
6
CONTINUOUS
10
7.69526
20
-3.14338
11
7.69742
21
-3.13672
0
LINE
8
BLACK
6
CONTINUOUS
10
7.69742
20
-3.13672
11
7.70092
21
-3.13066
0
LINE
8
BLACK
6
CONTINUOUS
10
7.70092
20
-3.13066
11
7.7056
21
-3.12547
0
LINE
8
BLACK
6
CONTINUOUS
10
7.7056
20
-3.12547
11
7.71126
21
-3.12135
0
LINE
8
BLACK
6
CONTINUOUS
10
7.71126
20
-3.12135
11
7.71765
21
-3.11851
0
LINE
8
BLACK
6
CONTINUOUS
10
7.71765
20
-3.11851
11
7.72449
21
-3.11705
0
LINE
8
BLACK
6
CONTINUOUS
10
7.72449
20
-3.11705
11
7.73149
21
-3.11705
0
LINE
8
BLACK
6
CONTINUOUS
10
7.73149
20
-3.11705
11
7.73833
21
-3.11851
0
LINE
8
BLACK
6
CONTINUOUS
10
8.63833
20
-3.11851
11
8.64472
21
-3.12135
0
LINE
8
BLACK
6
CONTINUOUS
10
8.64472
20
-3.12135
11
8.65038
21
-3.12547
0
LINE
8
BLACK
6
CONTINUOUS
10
8.65038
20
-3.12547
11
8.65507
21
-3.13066
0
LINE
8
BLACK
6
CONTINUOUS
10
8.65507
20
-3.13066
11
8.65856
21
-3.13672
0
LINE
8
BLACK
6
CONTINUOUS
10
8.65856
20
-3.13672
11
8.66073
21
-3.14338
0
LINE
8
BLACK
6
CONTINUOUS
10
8.66073
20
-3.14338
11
8.66146
21
-3.15033
0
LINE
8
BLACK
6
CONTINUOUS
10
8.66146
20
-3.15033
11
8.66073
21
-3.15729
0
LINE
8
BLACK
6
CONTINUOUS
10
8.66073
20
-3.15729
11
8.65856
21
-3.16395
0
LINE
8
BLACK
6
CONTINUOUS
10
8.65856
20
-3.16395
11
8.65507
21
-3.17
0
LINE
8
BLACK
6
CONTINUOUS
10
8.65507
20
-3.17
11
8.65038
21
-3.1752
0
LINE
8
BLACK
6
CONTINUOUS
10
8.65038
20
-3.1752
11
8.64472
21
-3.17932
0
LINE
8
BLACK
6
CONTINUOUS
10
8.64472
20
-3.17932
11
8.63833
21
-3.18216
0
LINE
8
BLACK
6
CONTINUOUS
10
8.63833
20
-3.18216
11
8.63149
21
-3.18362
0
LINE
8
BLACK
6
CONTINUOUS
10
8.63149
20
-3.18362
11
8.62449
21
-3.18362
0
LINE
8
BLACK
6
CONTINUOUS
10
8.62449
20
-3.18362
11
8.61765
21
-3.18216
0
LINE
8
BLACK
6
CONTINUOUS
10
8.61765
20
-3.18216
11
8.61126
21
-3.17932
0
LINE
8
BLACK
6
CONTINUOUS
10
8.61126
20
-3.17932
11
8.6056
21
-3.1752
0
LINE
8
BLACK
6
CONTINUOUS
10
8.6056
20
-3.1752
11
8.60092
21
-3.17
0
LINE
8
BLACK
6
CONTINUOUS
10
8.60092
20
-3.17
11
8.59742
21
-3.16395
0
LINE
8
BLACK
6
CONTINUOUS
10
8.59742
20
-3.16395
11
8.59526
21
-3.15729
0
LINE
8
BLACK
6
CONTINUOUS
10
8.59526
20
-3.15729
11
8.59453
21
-3.15033
0
LINE
8
BLACK
6
CONTINUOUS
10
8.59453
20
-3.15033
11
8.59526
21
-3.14338
0
LINE
8
BLACK
6
CONTINUOUS
10
8.59526
20
-3.14338
11
8.59742
21
-3.13672
0
LINE
8
BLACK
6
CONTINUOUS
10
8.59742
20
-3.13672
11
8.60092
21
-3.13066
0
LINE
8
BLACK
6
CONTINUOUS
10
8.60092
20
-3.13066
11
8.6056
21
-3.12547
0
LINE
8
BLACK
6
CONTINUOUS
10
8.6056
20
-3.12547
11
8.61126
21
-3.12135
0
LINE
8
BLACK
6
CONTINUOUS
10
8.61126
20
-3.12135
11
8.61765
21
-3.11851
0
LINE
8
BLACK
6
CONTINUOUS
10
8.61765
20
-3.11851
11
8.62449
21
-3.11705
0
LINE
8
BLACK
6
CONTINUOUS
10
8.62449
20
-3.11705
11
8.63149
21
-3.11705
0
LINE
8
BLACK
6
CONTINUOUS
10
8.63149
20
-3.11705
11
8.63833
21
-3.11851
0
LINE
8
BLACK
6
CONTINUOUS
10
7.73833
20
-3.01851
11
7.74472
21
-3.02135
0
LINE
8
BLACK
6
CONTINUOUS
10
7.74472
20
-3.02135
11
7.75038
21
-3.02547
0
LINE
8
BLACK
6
CONTINUOUS
10
7.75038
20
-3.02547
11
7.75507
21
-3.03066
0
LINE
8
BLACK
6
CONTINUOUS
10
7.75507
20
-3.03066
11
7.75856
21
-3.03672
0
LINE
8
BLACK
6
CONTINUOUS
10
7.75856
20
-3.03672
11
7.76073
21
-3.04338
0
LINE
8
BLACK
6
CONTINUOUS
10
7.76073
20
-3.04338
11
7.76146
21
-3.05033
0
LINE
8
BLACK
6
CONTINUOUS
10
7.76146
20
-3.05033
11
7.76073
21
-3.05729
0
LINE
8
BLACK
6
CONTINUOUS
10
7.76073
20
-3.05729
11
7.75856
21
-3.06395
0
LINE
8
BLACK
6
CONTINUOUS
10
7.75856
20
-3.06395
11
7.75507
21
-3.07
0
LINE
8
BLACK
6
CONTINUOUS
10
7.75507
20
-3.07
11
7.75038
21
-3.0752
0
LINE
8
BLACK
6
CONTINUOUS
10
7.75038
20
-3.0752
11
7.74472
21
-3.07932
0
LINE
8
BLACK
6
CONTINUOUS
10
7.74472
20
-3.07932
11
7.73833
21
-3.08216
0
LINE
8
BLACK
6
CONTINUOUS
10
7.73833
20
-3.08216
11
7.73149
21
-3.08362
0
LINE
8
BLACK
6
CONTINUOUS
10
7.73149
20
-3.08362
11
7.72449
21
-3.08362
0
LINE
8
BLACK
6
CONTINUOUS
10
7.72449
20
-3.08362
11
7.71765
21
-3.08216
0
LINE
8
BLACK
6
CONTINUOUS
10
7.71765
20
-3.08216
11
7.71126
21
-3.07932
0
LINE
8
BLACK
6
CONTINUOUS
10
7.71126
20
-3.07932
11
7.7056
21
-3.0752
0
LINE
8
BLACK
6
CONTINUOUS
10
7.7056
20
-3.0752
11
7.70092
21
-3.07
0
LINE
8
BLACK
6
CONTINUOUS
10
7.70092
20
-3.07
11
7.69742
21
-3.06395
0
LINE
8
BLACK
6
CONTINUOUS
10
7.69742
20
-3.06395
11
7.69526
21
-3.05729
0
LINE
8
BLACK
6
CONTINUOUS
10
7.69526
20
-3.05729
11
7.69453
21
-3.05033
0
LINE
8
BLACK
6
CONTINUOUS
10
7.69453
20
-3.05033
11
7.69526
21
-3.04338
0
LINE
8
BLACK
6
CONTINUOUS
10
7.69526
20
-3.04338
11
7.69742
21
-3.03672
0
LINE
8
BLACK
6
CONTINUOUS
10
7.69742
20
-3.03672
11
7.70092
21
-3.03066
0
LINE
8
BLACK
6
CONTINUOUS
10
7.70092
20
-3.03066
11
7.7056
21
-3.02547
0
LINE
8
BLACK
6
CONTINUOUS
10
7.7056
20
-3.02547
11
7.71126
21
-3.02135
0
LINE
8
BLACK
6
CONTINUOUS
10
7.71126
20
-3.02135
11
7.71765
21
-3.01851
0
LINE
8
BLACK
6
CONTINUOUS
10
7.71765
20
-3.01851
11
7.72449
21
-3.01705
0
LINE
8
BLACK
6
CONTINUOUS
10
7.72449
20
-3.01705
11
7.73149
21
-3.01705
0
LINE
8
BLACK
6
CONTINUOUS
10
7.73149
20
-3.01705
11
7.73833
21
-3.01851
0
LINE
8
BLACK
6
CONTINUOUS
10
8.63833
20
-3.01851
11
8.64472
21
-3.02135
0
LINE
8
BLACK
6
CONTINUOUS
10
8.64472
20
-3.02135
11
8.65038
21
-3.02547
0
LINE
8
BLACK
6
CONTINUOUS
10
8.65038
20
-3.02547
11
8.65507
21
-3.03066
0
LINE
8
BLACK
6
CONTINUOUS
10
8.65507
20
-3.03066
11
8.65856
21
-3.03672
0
LINE
8
BLACK
6
CONTINUOUS
10
8.65856
20
-3.03672
11
8.66073
21
-3.04338
0
LINE
8
BLACK
6
CONTINUOUS
10
8.66073
20
-3.04338
11
8.66146
21
-3.05033
0
LINE
8
BLACK
6
CONTINUOUS
10
8.66146
20
-3.05033
11
8.66073
21
-3.05729
0
LINE
8
BLACK
6
CONTINUOUS
10
8.66073
20
-3.05729
11
8.65856
21
-3.06395
0
LINE
8
BLACK
6
CONTINUOUS
10
8.65856
20
-3.06395
11
8.65507
21
-3.07
0
LINE
8
BLACK
6
CONTINUOUS
10
8.65507
20
-3.07
11
8.65038
21
-3.0752
0
LINE
8
BLACK
6
CONTINUOUS
10
8.65038
20
-3.0752
11
8.64472
21
-3.07932
0
LINE
8
BLACK
6
CONTINUOUS
10
8.64472
20
-3.07932
11
8.63833
21
-3.08216
0
LINE
8
BLACK
6
CONTINUOUS
10
8.63833
20
-3.08216
11
8.63149
21
-3.08362
0
LINE
8
BLACK
6
CONTINUOUS
10
8.63149
20
-3.08362
11
8.62449
21
-3.08362
0
LINE
8
BLACK
6
CONTINUOUS
10
8.62449
20
-3.08362
11
8.61765
21
-3.08216
0
LINE
8
BLACK
6
CONTINUOUS
10
8.61765
20
-3.08216
11
8.61126
21
-3.07932
0
LINE
8
BLACK
6
CONTINUOUS
10
8.61126
20
-3.07932
11
8.6056
21
-3.0752
0
LINE
8
BLACK
6
CONTINUOUS
10
8.6056
20
-3.0752
11
8.60092
21
-3.07
0
LINE
8
BLACK
6
CONTINUOUS
10
8.60092
20
-3.07
11
8.59742
21
-3.06395
0
LINE
8
BLACK
6
CONTINUOUS
10
8.59742
20
-3.06395
11
8.59526
21
-3.05729
0
LINE
8
BLACK
6
CONTINUOUS
10
8.59526
20
-3.05729
11
8.59453
21
-3.05033
0
LINE
8
BLACK
6
CONTINUOUS
10
8.59453
20
-3.05033
11
8.59526
21
-3.04338
0
LINE
8
BLACK
6
CONTINUOUS
10
8.59526
20
-3.04338
11
8.59742
21
-3.03672
0
LINE
8
BLACK
6
CONTINUOUS
10
8.59742
20
-3.03672
11
8.60092
21
-3.03066
0
LINE
8
BLACK
6
CONTINUOUS
10
8.60092
20
-3.03066
11
8.6056
21
-3.02547
0
LINE
8
BLACK
6
CONTINUOUS
10
8.6056
20
-3.02547
11
8.61126
21
-3.02135
0
LINE
8
BLACK
6
CONTINUOUS
10
8.61126
20
-3.02135
11
8.61765
21
-3.01851
0
LINE
8
BLACK
6
CONTINUOUS
10
8.61765
20
-3.01851
11
8.62449
21
-3.01705
0
LINE
8
BLACK
6
CONTINUOUS
10
8.62449
20
-3.01705
11
8.63149
21
-3.01705
0
LINE
8
BLACK
6
CONTINUOUS
10
8.63149
20
-3.01705
11
8.63833
21
-3.01851
0
LINE
8
BLACK
6
CONTINUOUS
10
7.73833
20
-2.91851
11
7.74472
21
-2.92135
0
LINE
8
BLACK
6
CONTINUOUS
10
7.74472
20
-2.92135
11
7.75038
21
-2.92547
0
LINE
8
BLACK
6
CONTINUOUS
10
7.75038
20
-2.92547
11
7.75507
21
-2.93066
0
LINE
8
BLACK
6
CONTINUOUS
10
7.75507
20
-2.93066
11
7.75856
21
-2.93672
0
LINE
8
BLACK
6
CONTINUOUS
10
7.75856
20
-2.93672
11
7.76073
21
-2.94338
0
LINE
8
BLACK
6
CONTINUOUS
10
7.76073
20
-2.94338
11
7.76146
21
-2.95033
0
LINE
8
BLACK
6
CONTINUOUS
10
7.76146
20
-2.95033
11
7.76073
21
-2.95729
0
LINE
8
BLACK
6
CONTINUOUS
10
7.76073
20
-2.95729
11
7.75856
21
-2.96395
0
LINE
8
BLACK
6
CONTINUOUS
10
7.75856
20
-2.96395
11
7.75507
21
-2.97
0
LINE
8
BLACK
6
CONTINUOUS
10
7.75507
20
-2.97
11
7.75038
21
-2.9752
0
LINE
8
BLACK
6
CONTINUOUS
10
7.75038
20
-2.9752
11
7.74472
21
-2.97932
0
LINE
8
BLACK
6
CONTINUOUS
10
7.74472
20
-2.97932
11
7.73833
21
-2.98216
0
LINE
8
BLACK
6
CONTINUOUS
10
7.73833
20
-2.98216
11
7.73149
21
-2.98362
0
LINE
8
BLACK
6
CONTINUOUS
10
7.73149
20
-2.98362
11
7.72449
21
-2.98362
0
LINE
8
BLACK
6
CONTINUOUS
10
7.72449
20
-2.98362
11
7.71765
21
-2.98216
0
LINE
8
BLACK
6
CONTINUOUS
10
7.71765
20
-2.98216
11
7.71126
21
-2.97932
0
LINE
8
BLACK
6
CONTINUOUS
10
7.71126
20
-2.97932
11
7.7056
21
-2.9752
0
LINE
8
BLACK
6
CONTINUOUS
10
7.7056
20
-2.9752
11
7.70092
21
-2.97
0
LINE
8
BLACK
6
CONTINUOUS
10
7.70092
20
-2.97
11
7.69742
21
-2.96395
0
LINE
8
BLACK
6
CONTINUOUS
10
7.69742
20
-2.96395
11
7.69526
21
-2.95729
0
LINE
8
BLACK
6
CONTINUOUS
10
7.69526
20
-2.95729
11
7.69453
21
-2.95033
0
LINE
8
BLACK
6
CONTINUOUS
10
7.69453
20
-2.95033
11
7.69526
21
-2.94338
0
LINE
8
BLACK
6
CONTINUOUS
10
7.69526
20
-2.94338
11
7.69742
21
-2.93672
0
LINE
8
BLACK
6
CONTINUOUS
10
7.69742
20
-2.93672
11
7.70092
21
-2.93066
0
LINE
8
BLACK
6
CONTINUOUS
10
7.70092
20
-2.93066
11
7.7056
21
-2.92547
0
LINE
8
BLACK
6
CONTINUOUS
10
7.7056
20
-2.92547
11
7.71126
21
-2.92135
0
LINE
8
BLACK
6
CONTINUOUS
10
7.71126
20
-2.92135
11
7.71765
21
-2.91851
0
LINE
8
BLACK
6
CONTINUOUS
10
7.71765
20
-2.91851
11
7.72449
21
-2.91705
0
LINE
8
BLACK
6
CONTINUOUS
10
7.72449
20
-2.91705
11
7.73149
21
-2.91705
0
LINE
8
BLACK
6
CONTINUOUS
10
7.73149
20
-2.91705
11
7.73833
21
-2.91851
0
LINE
8
BLACK
6
CONTINUOUS
10
8.63833
20
-2.91851
11
8.64472
21
-2.92135
0
LINE
8
BLACK
6
CONTINUOUS
10
8.64472
20
-2.92135
11
8.65038
21
-2.92547
0
LINE
8
BLACK
6
CONTINUOUS
10
8.65038
20
-2.92547
11
8.65507
21
-2.93066
0
LINE
8
BLACK
6
CONTINUOUS
10
8.65507
20
-2.93066
11
8.65856
21
-2.93672
0
LINE
8
BLACK
6
CONTINUOUS
10
8.65856
20
-2.93672
11
8.66073
21
-2.94338
0
LINE
8
BLACK
6
CONTINUOUS
10
8.66073
20
-2.94338
11
8.66146
21
-2.95033
0
LINE
8
BLACK
6
CONTINUOUS
10
8.66146
20
-2.95033
11
8.66073
21
-2.95729
0
LINE
8
BLACK
6
CONTINUOUS
10
8.66073
20
-2.95729
11
8.65856
21
-2.96395
0
LINE
8
BLACK
6
CONTINUOUS
10
8.65856
20
-2.96395
11
8.65507
21
-2.97
0
LINE
8
BLACK
6
CONTINUOUS
10
8.65507
20
-2.97
11
8.65038
21
-2.9752
0
LINE
8
BLACK
6
CONTINUOUS
10
8.65038
20
-2.9752
11
8.64472
21
-2.97932
0
LINE
8
BLACK
6
CONTINUOUS
10
8.64472
20
-2.97932
11
8.63833
21
-2.98216
0
LINE
8
BLACK
6
CONTINUOUS
10
8.63833
20
-2.98216
11
8.63149
21
-2.98362
0
LINE
8
BLACK
6
CONTINUOUS
10
8.63149
20
-2.98362
11
8.62449
21
-2.98362
0
LINE
8
BLACK
6
CONTINUOUS
10
8.62449
20
-2.98362
11
8.61765
21
-2.98216
0
LINE
8
BLACK
6
CONTINUOUS
10
8.61765
20
-2.98216
11
8.61126
21
-2.97932
0
LINE
8
BLACK
6
CONTINUOUS
10
8.61126
20
-2.97932
11
8.6056
21
-2.9752
0
LINE
8
BLACK
6
CONTINUOUS
10
8.6056
20
-2.9752
11
8.60092
21
-2.97
0
LINE
8
BLACK
6
CONTINUOUS
10
8.60092
20
-2.97
11
8.59742
21
-2.96395
0
LINE
8
BLACK
6
CONTINUOUS
10
8.59742
20
-2.96395
11
8.59526
21
-2.95729
0
LINE
8
BLACK
6
CONTINUOUS
10
8.59526
20
-2.95729
11
8.59453
21
-2.95033
0
LINE
8
BLACK
6
CONTINUOUS
10
8.59453
20
-2.95033
11
8.59526
21
-2.94338
0
LINE
8
BLACK
6
CONTINUOUS
10
8.59526
20
-2.94338
11
8.59742
21
-2.93672
0
LINE
8
BLACK
6
CONTINUOUS
10
8.59742
20
-2.93672
11
8.60092
21
-2.93066
0
LINE
8
BLACK
6
CONTINUOUS
10
8.60092
20
-2.93066
11
8.6056
21
-2.92547
0
LINE
8
BLACK
6
CONTINUOUS
10
8.6056
20
-2.92547
11
8.61126
21
-2.92135
0
LINE
8
BLACK
6
CONTINUOUS
10
8.61126
20
-2.92135
11
8.61765
21
-2.91851
0
LINE
8
BLACK
6
CONTINUOUS
10
8.61765
20
-2.91851
11
8.62449
21
-2.91705
0
LINE
8
BLACK
6
CONTINUOUS
10
8.62449
20
-2.91705
11
8.63149
21
-2.91705
0
LINE
8
BLACK
6
CONTINUOUS
10
8.63149
20
-2.91705
11
8.63833
21
-2.91851
0
LINE
8
BLACK
6
CONTINUOUS
10
2.84419
20
-2.89217
11
2.76545
21
-2.89217
0
LINE
8
BLACK
6
CONTINUOUS
10
2.76545
20
-2.89217
11
2.76545
21
-2.81343
0
LINE
8
BLACK
6
CONTINUOUS
10
2.76545
20
-2.81343
11
2.84419
21
-2.81343
0
LINE
8
BLACK
6
CONTINUOUS
10
2.84419
20
-2.81343
11
2.84419
21
-2.89217
0
LINE
8
BLACK
6
CONTINUOUS
10
4.42687
20
-2.89217
11
4.34813
21
-2.89217
0
LINE
8
BLACK
6
CONTINUOUS
10
4.34813
20
-2.89217
11
4.34813
21
-2.81343
0
LINE
8
BLACK
6
CONTINUOUS
10
4.34813
20
-2.81343
11
4.42687
21
-2.81343
0
LINE
8
BLACK
6
CONTINUOUS
10
4.42687
20
-2.81343
11
4.42687
21
-2.89217
0
LINE
8
BLACK
6
CONTINUOUS
10
7.73833
20
-2.81851
11
7.74472
21
-2.82135
0
LINE
8
BLACK
6
CONTINUOUS
10
7.74472
20
-2.82135
11
7.75038
21
-2.82547
0
LINE
8
BLACK
6
CONTINUOUS
10
7.75038
20
-2.82547
11
7.75507
21
-2.83066
0
LINE
8
BLACK
6
CONTINUOUS
10
7.75507
20
-2.83066
11
7.75856
21
-2.83672
0
LINE
8
BLACK
6
CONTINUOUS
10
7.75856
20
-2.83672
11
7.76073
21
-2.84338
0
LINE
8
BLACK
6
CONTINUOUS
10
7.76073
20
-2.84338
11
7.76146
21
-2.85033
0
LINE
8
BLACK
6
CONTINUOUS
10
7.76146
20
-2.85033
11
7.76073
21
-2.85729
0
LINE
8
BLACK
6
CONTINUOUS
10
7.76073
20
-2.85729
11
7.75856
21
-2.86395
0
LINE
8
BLACK
6
CONTINUOUS
10
7.75856
20
-2.86395
11
7.75507
21
-2.87
0
LINE
8
BLACK
6
CONTINUOUS
10
7.75507
20
-2.87
11
7.75038
21
-2.8752
0
LINE
8
BLACK
6
CONTINUOUS
10
7.75038
20
-2.8752
11
7.74472
21
-2.87932
0
LINE
8
BLACK
6
CONTINUOUS
10
7.74472
20
-2.87932
11
7.73833
21
-2.88216
0
LINE
8
BLACK
6
CONTINUOUS
10
7.73833
20
-2.88216
11
7.73149
21
-2.88362
0
LINE
8
BLACK
6
CONTINUOUS
10
7.73149
20
-2.88362
11
7.72449
21
-2.88362
0
LINE
8
BLACK
6
CONTINUOUS
10
7.72449
20
-2.88362
11
7.71765
21
-2.88216
0
LINE
8
BLACK
6
CONTINUOUS
10
7.71765
20
-2.88216
11
7.71126
21
-2.87932
0
LINE
8
BLACK
6
CONTINUOUS
10
7.71126
20
-2.87932
11
7.7056
21
-2.8752
0
LINE
8
BLACK
6
CONTINUOUS
10
7.7056
20
-2.8752
11
7.70092
21
-2.87
0
LINE
8
BLACK
6
CONTINUOUS
10
7.70092
20
-2.87
11
7.69742
21
-2.86395
0
LINE
8
BLACK
6
CONTINUOUS
10
7.69742
20
-2.86395
11
7.69526
21
-2.85729
0
LINE
8
BLACK
6
CONTINUOUS
10
7.69526
20
-2.85729
11
7.69453
21
-2.85033
0
LINE
8
BLACK
6
CONTINUOUS
10
7.69453
20
-2.85033
11
7.69526
21
-2.84338
0
LINE
8
BLACK
6
CONTINUOUS
10
7.69526
20
-2.84338
11
7.69742
21
-2.83672
0
LINE
8
BLACK
6
CONTINUOUS
10
7.69742
20
-2.83672
11
7.70092
21
-2.83066
0
LINE
8
BLACK
6
CONTINUOUS
10
7.70092
20
-2.83066
11
7.7056
21
-2.82547
0
LINE
8
BLACK
6
CONTINUOUS
10
7.7056
20
-2.82547
11
7.71126
21
-2.82135
0
LINE
8
BLACK
6
CONTINUOUS
10
7.71126
20
-2.82135
11
7.71765
21
-2.81851
0
LINE
8
BLACK
6
CONTINUOUS
10
7.71765
20
-2.81851
11
7.72449
21
-2.81705
0
LINE
8
BLACK
6
CONTINUOUS
10
7.72449
20
-2.81705
11
7.73149
21
-2.81705
0
LINE
8
BLACK
6
CONTINUOUS
10
7.73149
20
-2.81705
11
7.73833
21
-2.81851
0
LINE
8
BLACK
6
CONTINUOUS
10
8.63833
20
-2.81851
11
8.64472
21
-2.82135
0
LINE
8
BLACK
6
CONTINUOUS
10
8.64472
20
-2.82135
11
8.65038
21
-2.82547
0
LINE
8
BLACK
6
CONTINUOUS
10
8.65038
20
-2.82547
11
8.65507
21
-2.83066
0
LINE
8
BLACK
6
CONTINUOUS
10
8.65507
20
-2.83066
11
8.65856
21
-2.83672
0
LINE
8
BLACK
6
CONTINUOUS
10
8.65856
20
-2.83672
11
8.66073
21
-2.84338
0
LINE
8
BLACK
6
CONTINUOUS
10
8.66073
20
-2.84338
11
8.66146
21
-2.85033
0
LINE
8
BLACK
6
CONTINUOUS
10
8.66146
20
-2.85033
11
8.66073
21
-2.85729
0
LINE
8
BLACK
6
CONTINUOUS
10
8.66073
20
-2.85729
11
8.65856
21
-2.86395
0
LINE
8
BLACK
6
CONTINUOUS
10
8.65856
20
-2.86395
11
8.65507
21
-2.87
0
LINE
8
BLACK
6
CONTINUOUS
10
8.65507
20
-2.87
11
8.65038
21
-2.8752
0
LINE
8
BLACK
6
CONTINUOUS
10
8.65038
20
-2.8752
11
8.64472
21
-2.87932
0
LINE
8
BLACK
6
CONTINUOUS
10
8.64472
20
-2.87932
11
8.63833
21
-2.88216
0
LINE
8
BLACK
6
CONTINUOUS
10
8.63833
20
-2.88216
11
8.63149
21
-2.88362
0
LINE
8
BLACK
6
CONTINUOUS
10
8.63149
20
-2.88362
11
8.62449
21
-2.88362
0
LINE
8
BLACK
6
CONTINUOUS
10
8.62449
20
-2.88362
11
8.61765
21
-2.88216
0
LINE
8
BLACK
6
CONTINUOUS
10
8.61765
20
-2.88216
11
8.61126
21
-2.87932
0
LINE
8
BLACK
6
CONTINUOUS
10
8.61126
20
-2.87932
11
8.6056
21
-2.8752
0
LINE
8
BLACK
6
CONTINUOUS
10
8.6056
20
-2.8752
11
8.60092
21
-2.87
0
LINE
8
BLACK
6
CONTINUOUS
10
8.60092
20
-2.87
11
8.59742
21
-2.86395
0
LINE
8
BLACK
6
CONTINUOUS
10
8.59742
20
-2.86395
11
8.59526
21
-2.85729
0
LINE
8
BLACK
6
CONTINUOUS
10
8.59526
20
-2.85729
11
8.59453
21
-2.85033
0
LINE
8
BLACK
6
CONTINUOUS
10
8.59453
20
-2.85033
11
8.59526
21
-2.84338
0
LINE
8
BLACK
6
CONTINUOUS
10
8.59526
20
-2.84338
11
8.59742
21
-2.83672
0
LINE
8
BLACK
6
CONTINUOUS
10
8.59742
20
-2.83672
11
8.60092
21
-2.83066
0
LINE
8
BLACK
6
CONTINUOUS
10
8.60092
20
-2.83066
11
8.6056
21
-2.82547
0
LINE
8
BLACK
6
CONTINUOUS
10
8.6056
20
-2.82547
11
8.61126
21
-2.82135
0
LINE
8
BLACK
6
CONTINUOUS
10
8.61126
20
-2.82135
11
8.61765
21
-2.81851
0
LINE
8
BLACK
6
CONTINUOUS
10
8.61765
20
-2.81851
11
8.62449
21
-2.81705
0
LINE
8
BLACK
6
CONTINUOUS
10
8.62449
20
-2.81705
11
8.63149
21
-2.81705
0
LINE
8
BLACK
6
CONTINUOUS
10
8.63149
20
-2.81705
11
8.63833
21
-2.81851
0
LINE
8
BLACK
6
CONTINUOUS
10
7.73833
20
-2.71851
11
7.74472
21
-2.72135
0
LINE
8
BLACK
6
CONTINUOUS
10
7.74472
20
-2.72135
11
7.75038
21
-2.72547
0
LINE
8
BLACK
6
CONTINUOUS
10
7.75038
20
-2.72547
11
7.75507
21
-2.73066
0
LINE
8
BLACK
6
CONTINUOUS
10
7.75507
20
-2.73066
11
7.75856
21
-2.73672
0
LINE
8
BLACK
6
CONTINUOUS
10
7.75856
20
-2.73672
11
7.76073
21
-2.74338
0
LINE
8
BLACK
6
CONTINUOUS
10
7.76073
20
-2.74338
11
7.76146
21
-2.75033
0
LINE
8
BLACK
6
CONTINUOUS
10
7.76146
20
-2.75033
11
7.76073
21
-2.75729
0
LINE
8
BLACK
6
CONTINUOUS
10
7.76073
20
-2.75729
11
7.75856
21
-2.76395
0
LINE
8
BLACK
6
CONTINUOUS
10
7.75856
20
-2.76395
11
7.75507
21
-2.77
0
LINE
8
BLACK
6
CONTINUOUS
10
7.75507
20
-2.77
11
7.75038
21
-2.7752
0
LINE
8
BLACK
6
CONTINUOUS
10
7.75038
20
-2.7752
11
7.74472
21
-2.77932
0
LINE
8
BLACK
6
CONTINUOUS
10
7.74472
20
-2.77932
11
7.73833
21
-2.78216
0
LINE
8
BLACK
6
CONTINUOUS
10
7.73833
20
-2.78216
11
7.73149
21
-2.78362
0
LINE
8
BLACK
6
CONTINUOUS
10
7.73149
20
-2.78362
11
7.72449
21
-2.78362
0
LINE
8
BLACK
6
CONTINUOUS
10
7.72449
20
-2.78362
11
7.71765
21
-2.78216
0
LINE
8
BLACK
6
CONTINUOUS
10
7.71765
20
-2.78216
11
7.71126
21
-2.77932
0
LINE
8
BLACK
6
CONTINUOUS
10
7.71126
20
-2.77932
11
7.7056
21
-2.7752
0
LINE
8
BLACK
6
CONTINUOUS
10
7.7056
20
-2.7752
11
7.70092
21
-2.77
0
LINE
8
BLACK
6
CONTINUOUS
10
7.70092
20
-2.77
11
7.69742
21
-2.76395
0
LINE
8
BLACK
6
CONTINUOUS
10
7.69742
20
-2.76395
11
7.69526
21
-2.75729
0
LINE
8
BLACK
6
CONTINUOUS
10
7.69526
20
-2.75729
11
7.69453
21
-2.75033
0
LINE
8
BLACK
6
CONTINUOUS
10
7.69453
20
-2.75033
11
7.69526
21
-2.74338
0
LINE
8
BLACK
6
CONTINUOUS
10
7.69526
20
-2.74338
11
7.69742
21
-2.73672
0
LINE
8
BLACK
6
CONTINUOUS
10
7.69742
20
-2.73672
11
7.70092
21
-2.73066
0
LINE
8
BLACK
6
CONTINUOUS
10
7.70092
20
-2.73066
11
7.7056
21
-2.72547
0
LINE
8
BLACK
6
CONTINUOUS
10
7.7056
20
-2.72547
11
7.71126
21
-2.72135
0
LINE
8
BLACK
6
CONTINUOUS
10
7.71126
20
-2.72135
11
7.71765
21
-2.71851
0
LINE
8
BLACK
6
CONTINUOUS
10
7.71765
20
-2.71851
11
7.72449
21
-2.71705
0
LINE
8
BLACK
6
CONTINUOUS
10
7.72449
20
-2.71705
11
7.73149
21
-2.71705
0
LINE
8
BLACK
6
CONTINUOUS
10
7.73149
20
-2.71705
11
7.73833
21
-2.71851
0
LINE
8
BLACK
6
CONTINUOUS
10
8.63833
20
-2.71851
11
8.64472
21
-2.72135
0
LINE
8
BLACK
6
CONTINUOUS
10
8.64472
20
-2.72135
11
8.65038
21
-2.72547
0
LINE
8
BLACK
6
CONTINUOUS
10
8.65038
20
-2.72547
11
8.65507
21
-2.73066
0
LINE
8
BLACK
6
CONTINUOUS
10
8.65507
20
-2.73066
11
8.65856
21
-2.73672
0
LINE
8
BLACK
6
CONTINUOUS
10
8.65856
20
-2.73672
11
8.66073
21
-2.74338
0
LINE
8
BLACK
6
CONTINUOUS
10
8.66073
20
-2.74338
11
8.66146
21
-2.75033
0
LINE
8
BLACK
6
CONTINUOUS
10
8.66146
20
-2.75033
11
8.66073
21
-2.75729
0
LINE
8
BLACK
6
CONTINUOUS
10
8.66073
20
-2.75729
11
8.65856
21
-2.76395
0
LINE
8
BLACK
6
CONTINUOUS
10
8.65856
20
-2.76395
11
8.65507
21
-2.77
0
LINE
8
BLACK
6
CONTINUOUS
10
8.65507
20
-2.77
11
8.65038
21
-2.7752
0
LINE
8
BLACK
6
CONTINUOUS
10
8.65038
20
-2.7752
11
8.64472
21
-2.77932
0
LINE
8
BLACK
6
CONTINUOUS
10
8.64472
20
-2.77932
11
8.63833
21
-2.78216
0
LINE
8
BLACK
6
CONTINUOUS
10
8.63833
20
-2.78216
11
8.63149
21
-2.78362
0
LINE
8
BLACK
6
CONTINUOUS
10
8.63149
20
-2.78362
11
8.62449
21
-2.78362
0
LINE
8
BLACK
6
CONTINUOUS
10
8.62449
20
-2.78362
11
8.61765
21
-2.78216
0
LINE
8
BLACK
6
CONTINUOUS
10
8.61765
20
-2.78216
11
8.61126
21
-2.77932
0
LINE
8
BLACK
6
CONTINUOUS
10
8.61126
20
-2.77932
11
8.6056
21
-2.7752
0
LINE
8
BLACK
6
CONTINUOUS
10
8.6056
20
-2.7752
11
8.60092
21
-2.77
0
LINE
8
BLACK
6
CONTINUOUS
10
8.60092
20
-2.77
11
8.59742
21
-2.76395
0
LINE
8
BLACK
6
CONTINUOUS
10
8.59742
20
-2.76395
11
8.59526
21
-2.75729
0
LINE
8
BLACK
6
CONTINUOUS
10
8.59526
20
-2.75729
11
8.59453
21
-2.75033
0
LINE
8
BLACK
6
CONTINUOUS
10
8.59453
20
-2.75033
11
8.59526
21
-2.74338
0
LINE
8
BLACK
6
CONTINUOUS
10
8.59526
20
-2.74338
11
8.59742
21
-2.73672
0
LINE
8
BLACK
6
CONTINUOUS
10
8.59742
20
-2.73672
11
8.60092
21
-2.73066
0
LINE
8
BLACK
6
CONTINUOUS
10
8.60092
20
-2.73066
11
8.6056
21
-2.72547
0
LINE
8
BLACK
6
CONTINUOUS
10
8.6056
20
-2.72547
11
8.61126
21
-2.72135
0
LINE
8
BLACK
6
CONTINUOUS
10
8.61126
20
-2.72135
11
8.61765
21
-2.71851
0
LINE
8
BLACK
6
CONTINUOUS
10
8.61765
20
-2.71851
11
8.62449
21
-2.71705
0
LINE
8
BLACK
6
CONTINUOUS
10
8.62449
20
-2.71705
11
8.63149
21
-2.71705
0
LINE
8
BLACK
6
CONTINUOUS
10
8.63149
20
-2.71705
11
8.63833
21
-2.71851
0
LINE
8
BLACK
6
CONTINUOUS
10
8.95998
20
-2.74748
11
8.89502
21
-2.74748
0
LINE
8
BLACK
6
CONTINUOUS
10
8.89502
20
-2.74748
11
8.89502
21
-2.68252
0
LINE
8
BLACK
6
CONTINUOUS
10
8.89502
20
-2.68252
11
8.95998
21
-2.68252
0
LINE
8
BLACK
6
CONTINUOUS
10
8.95998
20
-2.68252
11
8.95998
21
-2.74748
0
LINE
8
BLACK
6
CONTINUOUS
10
9.13754
20
-2.68411
11
9.14374
21
-2.68687
0
LINE
8
BLACK
6
CONTINUOUS
10
9.14374
20
-2.68687
11
9.14923
21
-2.69086
0
LINE
8
BLACK
6
CONTINUOUS
10
9.14923
20
-2.69086
11
9.15378
21
-2.69591
0
LINE
8
BLACK
6
CONTINUOUS
10
9.15378
20
-2.69591
11
9.15717
21
-2.70179
0
LINE
8
BLACK
6
CONTINUOUS
10
9.15717
20
-2.70179
11
9.15927
21
-2.70825
0
LINE
8
BLACK
6
CONTINUOUS
10
9.15927
20
-2.70825
11
9.15998
21
-2.715
0
LINE
8
BLACK
6
CONTINUOUS
10
9.15998
20
-2.715
11
9.15927
21
-2.72175
0
LINE
8
BLACK
6
CONTINUOUS
10
9.15927
20
-2.72175
11
9.15717
21
-2.72821
0
LINE
8
BLACK
6
CONTINUOUS
10
9.15717
20
-2.72821
11
9.15378
21
-2.73409
0
LINE
8
BLACK
6
CONTINUOUS
10
9.15378
20
-2.73409
11
9.14923
21
-2.73914
0
LINE
8
BLACK
6
CONTINUOUS
10
9.14923
20
-2.73914
11
9.14374
21
-2.74313
0
LINE
8
BLACK
6
CONTINUOUS
10
9.14374
20
-2.74313
11
9.13754
21
-2.74589
0
LINE
8
BLACK
6
CONTINUOUS
10
9.13754
20
-2.74589
11
9.1309
21
-2.7473
0
LINE
8
BLACK
6
CONTINUOUS
10
9.1309
20
-2.7473
11
9.1241
21
-2.7473
0
LINE
8
BLACK
6
CONTINUOUS
10
9.1241
20
-2.7473
11
9.11746
21
-2.74589
0
LINE
8
BLACK
6
CONTINUOUS
10
9.11746
20
-2.74589
11
9.11126
21
-2.74313
0
LINE
8
BLACK
6
CONTINUOUS
10
9.11126
20
-2.74313
11
9.10577
21
-2.73914
0
LINE
8
BLACK
6
CONTINUOUS
10
9.10577
20
-2.73914
11
9.10122
21
-2.73409
0
LINE
8
BLACK
6
CONTINUOUS
10
9.10122
20
-2.73409
11
9.09783
21
-2.72821
0
LINE
8
BLACK
6
CONTINUOUS
10
9.09783
20
-2.72821
11
9.09573
21
-2.72175
0
LINE
8
BLACK
6
CONTINUOUS
10
9.09573
20
-2.72175
11
9.09502
21
-2.715
0
LINE
8
BLACK
6
CONTINUOUS
10
9.09502
20
-2.715
11
9.09573
21
-2.70825
0
LINE
8
BLACK
6
CONTINUOUS
10
9.09573
20
-2.70825
11
9.09783
21
-2.70179
0
LINE
8
BLACK
6
CONTINUOUS
10
9.09783
20
-2.70179
11
9.10122
21
-2.69591
0
LINE
8
BLACK
6
CONTINUOUS
10
9.10122
20
-2.69591
11
9.10577
21
-2.69086
0
LINE
8
BLACK
6
CONTINUOUS
10
9.10577
20
-2.69086
11
9.11126
21
-2.68687
0
LINE
8
BLACK
6
CONTINUOUS
10
9.11126
20
-2.68687
11
9.11746
21
-2.68411
0
LINE
8
BLACK
6
CONTINUOUS
10
9.11746
20
-2.68411
11
9.1241
21
-2.6827
0
LINE
8
BLACK
6
CONTINUOUS
10
9.1241
20
-2.6827
11
9.1309
21
-2.6827
0
LINE
8
BLACK
6
CONTINUOUS
10
9.1309
20
-2.6827
11
9.13754
21
-2.68411
0
LINE
8
BLACK
6
CONTINUOUS
10
7.73833
20
-2.61851
11
7.74472
21
-2.62135
0
LINE
8
BLACK
6
CONTINUOUS
10
7.74472
20
-2.62135
11
7.75038
21
-2.62547
0
LINE
8
BLACK
6
CONTINUOUS
10
7.75038
20
-2.62547
11
7.75507
21
-2.63066
0
LINE
8
BLACK
6
CONTINUOUS
10
7.75507
20
-2.63066
11
7.75856
21
-2.63672
0
LINE
8
BLACK
6
CONTINUOUS
10
7.75856
20
-2.63672
11
7.76073
21
-2.64338
0
LINE
8
BLACK
6
CONTINUOUS
10
7.76073
20
-2.64338
11
7.76146
21
-2.65033
0
LINE
8
BLACK
6
CONTINUOUS
10
7.76146
20
-2.65033
11
7.76073
21
-2.65729
0
LINE
8
BLACK
6
CONTINUOUS
10
7.76073
20
-2.65729
11
7.75856
21
-2.66395
0
LINE
8
BLACK
6
CONTINUOUS
10
7.75856
20
-2.66395
11
7.75507
21
-2.67
0
LINE
8
BLACK
6
CONTINUOUS
10
7.75507
20
-2.67
11
7.75038
21
-2.6752
0
LINE
8
BLACK
6
CONTINUOUS
10
7.75038
20
-2.6752
11
7.74472
21
-2.67932
0
LINE
8
BLACK
6
CONTINUOUS
10
7.74472
20
-2.67932
11
7.73833
21
-2.68216
0
LINE
8
BLACK
6
CONTINUOUS
10
7.73833
20
-2.68216
11
7.73149
21
-2.68362
0
LINE
8
BLACK
6
CONTINUOUS
10
7.73149
20
-2.68362
11
7.72449
21
-2.68362
0
LINE
8
BLACK
6
CONTINUOUS
10
7.72449
20
-2.68362
11
7.71765
21
-2.68216
0
LINE
8
BLACK
6
CONTINUOUS
10
7.71765
20
-2.68216
11
7.71126
21
-2.67932
0
LINE
8
BLACK
6
CONTINUOUS
10
7.71126
20
-2.67932
11
7.7056
21
-2.6752
0
LINE
8
BLACK
6
CONTINUOUS
10
7.7056
20
-2.6752
11
7.70092
21
-2.67
0
LINE
8
BLACK
6
CONTINUOUS
10
7.70092
20
-2.67
11
7.69742
21
-2.66395
0
LINE
8
BLACK
6
CONTINUOUS
10
7.69742
20
-2.66395
11
7.69526
21
-2.65729
0
LINE
8
BLACK
6
CONTINUOUS
10
7.69526
20
-2.65729
11
7.69453
21
-2.65033
0
LINE
8
BLACK
6
CONTINUOUS
10
7.69453
20
-2.65033
11
7.69526
21
-2.64338
0
LINE
8
BLACK
6
CONTINUOUS
10
7.69526
20
-2.64338
11
7.69742
21
-2.63672
0
LINE
8
BLACK
6
CONTINUOUS
10
7.69742
20
-2.63672
11
7.70092
21
-2.63066
0
LINE
8
BLACK
6
CONTINUOUS
10
7.70092
20
-2.63066
11
7.7056
21
-2.62547
0
LINE
8
BLACK
6
CONTINUOUS
10
7.7056
20
-2.62547
11
7.71126
21
-2.62135
0
LINE
8
BLACK
6
CONTINUOUS
10
7.71126
20
-2.62135
11
7.71765
21
-2.61851
0
LINE
8
BLACK
6
CONTINUOUS
10
7.71765
20
-2.61851
11
7.72449
21
-2.61705
0
LINE
8
BLACK
6
CONTINUOUS
10
7.72449
20
-2.61705
11
7.73149
21
-2.61705
0
LINE
8
BLACK
6
CONTINUOUS
10
7.73149
20
-2.61705
11
7.73833
21
-2.61851
0
LINE
8
BLACK
6
CONTINUOUS
10
8.63833
20
-2.61851
11
8.64472
21
-2.62135
0
LINE
8
BLACK
6
CONTINUOUS
10
8.64472
20
-2.62135
11
8.65038
21
-2.62547
0
LINE
8
BLACK
6
CONTINUOUS
10
8.65038
20
-2.62547
11
8.65507
21
-2.63066
0
LINE
8
BLACK
6
CONTINUOUS
10
8.65507
20
-2.63066
11
8.65856
21
-2.63672
0
LINE
8
BLACK
6
CONTINUOUS
10
8.65856
20
-2.63672
11
8.66073
21
-2.64338
0
LINE
8
BLACK
6
CONTINUOUS
10
8.66073
20
-2.64338
11
8.66146
21
-2.65033
0
LINE
8
BLACK
6
CONTINUOUS
10
8.66146
20
-2.65033
11
8.66073
21
-2.65729
0
LINE
8
BLACK
6
CONTINUOUS
10
8.66073
20
-2.65729
11
8.65856
21
-2.66395
0
LINE
8
BLACK
6
CONTINUOUS
10
8.65856
20
-2.66395
11
8.65507
21
-2.67
0
LINE
8
BLACK
6
CONTINUOUS
10
8.65507
20
-2.67
11
8.65038
21
-2.6752
0
LINE
8
BLACK
6
CONTINUOUS
10
8.65038
20
-2.6752
11
8.64472
21
-2.67932
0
LINE
8
BLACK
6
CONTINUOUS
10
8.64472
20
-2.67932
11
8.63833
21
-2.68216
0
LINE
8
BLACK
6
CONTINUOUS
10
8.63833
20
-2.68216
11
8.63149
21
-2.68362
0
LINE
8
BLACK
6
CONTINUOUS
10
8.63149
20
-2.68362
11
8.62449
21
-2.68362
0
LINE
8
BLACK
6
CONTINUOUS
10
8.62449
20
-2.68362
11
8.61765
21
-2.68216
0
LINE
8
BLACK
6
CONTINUOUS
10
8.61765
20
-2.68216
11
8.61126
21
-2.67932
0
LINE
8
BLACK
6
CONTINUOUS
10
8.61126
20
-2.67932
11
8.6056
21
-2.6752
0
LINE
8
BLACK
6
CONTINUOUS
10
8.6056
20
-2.6752
11
8.60092
21
-2.67
0
LINE
8
BLACK
6
CONTINUOUS
10
8.60092
20
-2.67
11
8.59742
21
-2.66395
0
LINE
8
BLACK
6
CONTINUOUS
10
8.59742
20
-2.66395
11
8.59526
21
-2.65729
0
LINE
8
BLACK
6
CONTINUOUS
10
8.59526
20
-2.65729
11
8.59453
21
-2.65033
0
LINE
8
BLACK
6
CONTINUOUS
10
8.59453
20
-2.65033
11
8.59526
21
-2.64338
0
LINE
8
BLACK
6
CONTINUOUS
10
8.59526
20
-2.64338
11
8.59742
21
-2.63672
0
LINE
8
BLACK
6
CONTINUOUS
10
8.59742
20
-2.63672
11
8.60092
21
-2.63066
0
LINE
8
BLACK
6
CONTINUOUS
10
8.60092
20
-2.63066
11
8.6056
21
-2.62547
0
LINE
8
BLACK
6
CONTINUOUS
10
8.6056
20
-2.62547
11
8.61126
21
-2.62135
0
LINE
8
BLACK
6
CONTINUOUS
10
8.61126
20
-2.62135
11
8.61765
21
-2.61851
0
LINE
8
BLACK
6
CONTINUOUS
10
8.61765
20
-2.61851
11
8.62449
21
-2.61705
0
LINE
8
BLACK
6
CONTINUOUS
10
8.62449
20
-2.61705
11
8.63149
21
-2.61705
0
LINE
8
BLACK
6
CONTINUOUS
10
8.63149
20
-2.61705
11
8.63833
21
-2.61851
0
LINE
8
BLACK
6
CONTINUOUS
10
7.73833
20
-2.51851
11
7.74472
21
-2.52135
0
LINE
8
BLACK
6
CONTINUOUS
10
7.74472
20
-2.52135
11
7.75038
21
-2.52547
0
LINE
8
BLACK
6
CONTINUOUS
10
7.75038
20
-2.52547
11
7.75507
21
-2.53066
0
LINE
8
BLACK
6
CONTINUOUS
10
7.75507
20
-2.53066
11
7.75856
21
-2.53672
0
LINE
8
BLACK
6
CONTINUOUS
10
7.75856
20
-2.53672
11
7.76073
21
-2.54338
0
LINE
8
BLACK
6
CONTINUOUS
10
7.76073
20
-2.54338
11
7.76146
21
-2.55033
0
LINE
8
BLACK
6
CONTINUOUS
10
7.76146
20
-2.55033
11
7.76073
21
-2.55729
0
LINE
8
BLACK
6
CONTINUOUS
10
7.76073
20
-2.55729
11
7.75856
21
-2.56395
0
LINE
8
BLACK
6
CONTINUOUS
10
7.75856
20
-2.56395
11
7.75507
21
-2.57
0
LINE
8
BLACK
6
CONTINUOUS
10
7.75507
20
-2.57
11
7.75038
21
-2.5752
0
LINE
8
BLACK
6
CONTINUOUS
10
7.75038
20
-2.5752
11
7.74472
21
-2.57932
0
LINE
8
BLACK
6
CONTINUOUS
10
7.74472
20
-2.57932
11
7.73833
21
-2.58216
0
LINE
8
BLACK
6
CONTINUOUS
10
7.73833
20
-2.58216
11
7.73149
21
-2.58362
0
LINE
8
BLACK
6
CONTINUOUS
10
7.73149
20
-2.58362
11
7.72449
21
-2.58362
0
LINE
8
BLACK
6
CONTINUOUS
10
7.72449
20
-2.58362
11
7.71765
21
-2.58216
0
LINE
8
BLACK
6
CONTINUOUS
10
7.71765
20
-2.58216
11
7.71126
21
-2.57932
0
LINE
8
BLACK
6
CONTINUOUS
10
7.71126
20
-2.57932
11
7.7056
21
-2.5752
0
LINE
8
BLACK
6
CONTINUOUS
10
7.7056
20
-2.5752
11
7.70092
21
-2.57
0
LINE
8
BLACK
6
CONTINUOUS
10
7.70092
20
-2.57
11
7.69742
21
-2.56395
0
LINE
8
BLACK
6
CONTINUOUS
10
7.69742
20
-2.56395
11
7.69526
21
-2.55729
0
LINE
8
BLACK
6
CONTINUOUS
10
7.69526
20
-2.55729
11
7.69453
21
-2.55033
0
LINE
8
BLACK
6
CONTINUOUS
10
7.69453
20
-2.55033
11
7.69526
21
-2.54338
0
LINE
8
BLACK
6
CONTINUOUS
10
7.69526
20
-2.54338
11
7.69742
21
-2.53672
0
LINE
8
BLACK
6
CONTINUOUS
10
7.69742
20
-2.53672
11
7.70092
21
-2.53066
0
LINE
8
BLACK
6
CONTINUOUS
10
7.70092
20
-2.53066
11
7.7056
21
-2.52547
0
LINE
8
BLACK
6
CONTINUOUS
10
7.7056
20
-2.52547
11
7.71126
21
-2.52135
0
LINE
8
BLACK
6
CONTINUOUS
10
7.71126
20
-2.52135
11
7.71765
21
-2.51851
0
LINE
8
BLACK
6
CONTINUOUS
10
7.71765
20
-2.51851
11
7.72449
21
-2.51705
0
LINE
8
BLACK
6
CONTINUOUS
10
7.72449
20
-2.51705
11
7.73149
21
-2.51705
0
LINE
8
BLACK
6
CONTINUOUS
10
7.73149
20
-2.51705
11
7.73833
21
-2.51851
0
LINE
8
BLACK
6
CONTINUOUS
10
8.63833
20
-2.51851
11
8.64472
21
-2.52135
0
LINE
8
BLACK
6
CONTINUOUS
10
8.64472
20
-2.52135
11
8.65038
21
-2.52547
0
LINE
8
BLACK
6
CONTINUOUS
10
8.65038
20
-2.52547
11
8.65507
21
-2.53066
0
LINE
8
BLACK
6
CONTINUOUS
10
8.65507
20
-2.53066
11
8.65856
21
-2.53672
0
LINE
8
BLACK
6
CONTINUOUS
10
8.65856
20
-2.53672
11
8.66073
21
-2.54338
0
LINE
8
BLACK
6
CONTINUOUS
10
8.66073
20
-2.54338
11
8.66146
21
-2.55033
0
LINE
8
BLACK
6
CONTINUOUS
10
8.66146
20
-2.55033
11
8.66073
21
-2.55729
0
LINE
8
BLACK
6
CONTINUOUS
10
8.66073
20
-2.55729
11
8.65856
21
-2.56395
0
LINE
8
BLACK
6
CONTINUOUS
10
8.65856
20
-2.56395
11
8.65507
21
-2.57
0
LINE
8
BLACK
6
CONTINUOUS
10
8.65507
20
-2.57
11
8.65038
21
-2.5752
0
LINE
8
BLACK
6
CONTINUOUS
10
8.65038
20
-2.5752
11
8.64472
21
-2.57932
0
LINE
8
BLACK
6
CONTINUOUS
10
8.64472
20
-2.57932
11
8.63833
21
-2.58216
0
LINE
8
BLACK
6
CONTINUOUS
10
8.63833
20
-2.58216
11
8.63149
21
-2.58362
0
LINE
8
BLACK
6
CONTINUOUS
10
8.63149
20
-2.58362
11
8.62449
21
-2.58362
0
LINE
8
BLACK
6
CONTINUOUS
10
8.62449
20
-2.58362
11
8.61765
21
-2.58216
0
LINE
8
BLACK
6
CONTINUOUS
10
8.61765
20
-2.58216
11
8.61126
21
-2.57932
0
LINE
8
BLACK
6
CONTINUOUS
10
8.61126
20
-2.57932
11
8.6056
21
-2.5752
0
LINE
8
BLACK
6
CONTINUOUS
10
8.6056
20
-2.5752
11
8.60092
21
-2.57
0
LINE
8
BLACK
6
CONTINUOUS
10
8.60092
20
-2.57
11
8.59742
21
-2.56395
0
LINE
8
BLACK
6
CONTINUOUS
10
8.59742
20
-2.56395
11
8.59526
21
-2.55729
0
LINE
8
BLACK
6
CONTINUOUS
10
8.59526
20
-2.55729
11
8.59453
21
-2.55033
0
LINE
8
BLACK
6
CONTINUOUS
10
8.59453
20
-2.55033
11
8.59526
21
-2.54338
0
LINE
8
BLACK
6
CONTINUOUS
10
8.59526
20
-2.54338
11
8.59742
21
-2.53672
0
LINE
8
BLACK
6
CONTINUOUS
10
8.59742
20
-2.53672
11
8.60092
21
-2.53066
0
LINE
8
BLACK
6
CONTINUOUS
10
8.60092
20
-2.53066
11
8.6056
21
-2.52547
0
LINE
8
BLACK
6
CONTINUOUS
10
8.6056
20
-2.52547
11
8.61126
21
-2.52135
0
LINE
8
BLACK
6
CONTINUOUS
10
8.61126
20
-2.52135
11
8.61765
21
-2.51851
0
LINE
8
BLACK
6
CONTINUOUS
10
8.61765
20
-2.51851
11
8.62449
21
-2.51705
0
LINE
8
BLACK
6
CONTINUOUS
10
8.62449
20
-2.51705
11
8.63149
21
-2.51705
0
LINE
8
BLACK
6
CONTINUOUS
10
8.63149
20
-2.51705
11
8.63833
21
-2.51851
0
LINE
8
BLACK
6
CONTINUOUS
10
5.21096
20
-2.54846
11
5.14404
21
-2.54846
0
LINE
8
BLACK
6
CONTINUOUS
10
5.14404
20
-2.54846
11
5.14404
21
-2.48154
0
LINE
8
BLACK
6
CONTINUOUS
10
5.14404
20
-2.48154
11
5.21096
21
-2.48154
0
LINE
8
BLACK
6
CONTINUOUS
10
5.21096
20
-2.48154
11
5.21096
21
-2.54846
0
LINE
8
BLACK
6
CONTINUOUS
10
4.88784
20
-2.48317
11
4.89423
21
-2.48602
0
LINE
8
BLACK
6
CONTINUOUS
10
4.89423
20
-2.48602
11
4.89989
21
-2.49013
0
LINE
8
BLACK
6
CONTINUOUS
10
4.89989
20
-2.49013
11
4.90457
21
-2.49533
0
LINE
8
BLACK
6
CONTINUOUS
10
4.90457
20
-2.49533
11
4.90807
21
-2.50139
0
LINE
8
BLACK
6
CONTINUOUS
10
4.90807
20
-2.50139
11
4.91023
21
-2.50804
0
LINE
8
BLACK
6
CONTINUOUS
10
4.91023
20
-2.50804
11
4.91096
21
-2.515
0
LINE
8
BLACK
6
CONTINUOUS
10
4.91096
20
-2.515
11
4.91023
21
-2.52196
0
LINE
8
BLACK
6
CONTINUOUS
10
4.91023
20
-2.52196
11
4.90807
21
-2.52861
0
LINE
8
BLACK
6
CONTINUOUS
10
4.90807
20
-2.52861
11
4.90457
21
-2.53467
0
LINE
8
BLACK
6
CONTINUOUS
10
4.90457
20
-2.53467
11
4.89989
21
-2.53987
0
LINE
8
BLACK
6
CONTINUOUS
10
4.89989
20
-2.53987
11
4.89423
21
-2.54398
0
LINE
8
BLACK
6
CONTINUOUS
10
4.89423
20
-2.54398
11
4.88784
21
-2.54683
0
LINE
8
BLACK
6
CONTINUOUS
10
4.88784
20
-2.54683
11
4.881
21
-2.54828
0
LINE
8
BLACK
6
CONTINUOUS
10
4.881
20
-2.54828
11
4.874
21
-2.54828
0
LINE
8
BLACK
6
CONTINUOUS
10
4.874
20
-2.54828
11
4.86716
21
-2.54683
0
LINE
8
BLACK
6
CONTINUOUS
10
4.86716
20
-2.54683
11
4.86077
21
-2.54398
0
LINE
8
BLACK
6
CONTINUOUS
10
4.86077
20
-2.54398
11
4.85511
21
-2.53987
0
LINE
8
BLACK
6
CONTINUOUS
10
4.85511
20
-2.53987
11
4.85043
21
-2.53467
0
LINE
8
BLACK
6
CONTINUOUS
10
4.85043
20
-2.53467
11
4.84693
21
-2.52861
0
LINE
8
BLACK
6
CONTINUOUS
10
4.84693
20
-2.52861
11
4.84477
21
-2.52196
0
LINE
8
BLACK
6
CONTINUOUS
10
4.84477
20
-2.52196
11
4.84404
21
-2.515
0
LINE
8
BLACK
6
CONTINUOUS
10
4.84404
20
-2.515
11
4.84477
21
-2.50804
0
LINE
8
BLACK
6
CONTINUOUS
10
4.84477
20
-2.50804
11
4.84693
21
-2.50139
0
LINE
8
BLACK
6
CONTINUOUS
10
4.84693
20
-2.50139
11
4.85043
21
-2.49533
0
LINE
8
BLACK
6
CONTINUOUS
10
4.85043
20
-2.49533
11
4.85511
21
-2.49013
0
LINE
8
BLACK
6
CONTINUOUS
10
4.85511
20
-2.49013
11
4.86077
21
-2.48602
0
LINE
8
BLACK
6
CONTINUOUS
10
4.86077
20
-2.48602
11
4.86716
21
-2.48317
0
LINE
8
BLACK
6
CONTINUOUS
10
4.86716
20
-2.48317
11
4.874
21
-2.48172
0
LINE
8
BLACK
6
CONTINUOUS
10
4.874
20
-2.48172
11
4.881
21
-2.48172
0
LINE
8
BLACK
6
CONTINUOUS
10
4.881
20
-2.48172
11
4.88784
21
-2.48317
0
LINE
8
BLACK
6
CONTINUOUS
10
4.98784
20
-2.48317
11
4.99423
21
-2.48602
0
LINE
8
BLACK
6
CONTINUOUS
10
4.99423
20
-2.48602
11
4.99989
21
-2.49013
0
LINE
8
BLACK
6
CONTINUOUS
10
4.99989
20
-2.49013
11
5.00457
21
-2.49533
0
LINE
8
BLACK
6
CONTINUOUS
10
5.00457
20
-2.49533
11
5.00807
21
-2.50139
0
LINE
8
BLACK
6
CONTINUOUS
10
5.00807
20
-2.50139
11
5.01023
21
-2.50804
0
LINE
8
BLACK
6
CONTINUOUS
10
5.01023
20
-2.50804
11
5.01096
21
-2.515
0
LINE
8
BLACK
6
CONTINUOUS
10
5.01096
20
-2.515
11
5.01023
21
-2.52196
0
LINE
8
BLACK
6
CONTINUOUS
10
5.01023
20
-2.52196
11
5.00807
21
-2.52861
0
LINE
8
BLACK
6
CONTINUOUS
10
5.00807
20
-2.52861
11
5.00457
21
-2.53467
0
LINE
8
BLACK
6
CONTINUOUS
10
5.00457
20
-2.53467
11
4.99989
21
-2.53987
0
LINE
8
BLACK
6
CONTINUOUS
10
4.99989
20
-2.53987
11
4.99423
21
-2.54398
0
LINE
8
BLACK
6
CONTINUOUS
10
4.99423
20
-2.54398
11
4.98784
21
-2.54683
0
LINE
8
BLACK
6
CONTINUOUS
10
4.98784
20
-2.54683
11
4.981
21
-2.54828
0
LINE
8
BLACK
6
CONTINUOUS
10
4.981
20
-2.54828
11
4.974
21
-2.54828
0
LINE
8
BLACK
6
CONTINUOUS
10
4.974
20
-2.54828
11
4.96716
21
-2.54683
0
LINE
8
BLACK
6
CONTINUOUS
10
4.96716
20
-2.54683
11
4.96077
21
-2.54398
0
LINE
8
BLACK
6
CONTINUOUS
10
4.96077
20
-2.54398
11
4.95511
21
-2.53987
0
LINE
8
BLACK
6
CONTINUOUS
10
4.95511
20
-2.53987
11
4.95043
21
-2.53467
0
LINE
8
BLACK
6
CONTINUOUS
10
4.95043
20
-2.53467
11
4.94693
21
-2.52861
0
LINE
8
BLACK
6
CONTINUOUS
10
4.94693
20
-2.52861
11
4.94477
21
-2.52196
0
LINE
8
BLACK
6
CONTINUOUS
10
4.94477
20
-2.52196
11
4.94404
21
-2.515
0
LINE
8
BLACK
6
CONTINUOUS
10
4.94404
20
-2.515
11
4.94477
21
-2.50804
0
LINE
8
BLACK
6
CONTINUOUS
10
4.94477
20
-2.50804
11
4.94693
21
-2.50139
0
LINE
8
BLACK
6
CONTINUOUS
10
4.94693
20
-2.50139
11
4.95043
21
-2.49533
0
LINE
8
BLACK
6
CONTINUOUS
10
4.95043
20
-2.49533
11
4.95511
21
-2.49013
0
LINE
8
BLACK
6
CONTINUOUS
10
4.95511
20
-2.49013
11
4.96077
21
-2.48602
0
LINE
8
BLACK
6
CONTINUOUS
10
4.96077
20
-2.48602
11
4.96716
21
-2.48317
0
LINE
8
BLACK
6
CONTINUOUS
10
4.96716
20
-2.48317
11
4.974
21
-2.48172
0
LINE
8
BLACK
6
CONTINUOUS
10
4.974
20
-2.48172
11
4.981
21
-2.48172
0
LINE
8
BLACK
6
CONTINUOUS
10
4.981
20
-2.48172
11
4.98784
21
-2.48317
0
LINE
8
BLACK
6
CONTINUOUS
10
5.08784
20
-2.48317
11
5.09423
21
-2.48602
0
LINE
8
BLACK
6
CONTINUOUS
10
5.09423
20
-2.48602
11
5.09989
21
-2.49013
0
LINE
8
BLACK
6
CONTINUOUS
10
5.09989
20
-2.49013
11
5.10457
21
-2.49533
0
LINE
8
BLACK
6
CONTINUOUS
10
5.10457
20
-2.49533
11
5.10807
21
-2.50139
0
LINE
8
BLACK
6
CONTINUOUS
10
5.10807
20
-2.50139
11
5.11023
21
-2.50804
0
LINE
8
BLACK
6
CONTINUOUS
10
5.11023
20
-2.50804
11
5.11096
21
-2.515
0
LINE
8
BLACK
6
CONTINUOUS
10
5.11096
20
-2.515
11
5.11023
21
-2.52196
0
LINE
8
BLACK
6
CONTINUOUS
10
5.11023
20
-2.52196
11
5.10807
21
-2.52861
0
LINE
8
BLACK
6
CONTINUOUS
10
5.10807
20
-2.52861
11
5.10457
21
-2.53467
0
LINE
8
BLACK
6
CONTINUOUS
10
5.10457
20
-2.53467
11
5.09989
21
-2.53987
0
LINE
8
BLACK
6
CONTINUOUS
10
5.09989
20
-2.53987
11
5.09423
21
-2.54398
0
LINE
8
BLACK
6
CONTINUOUS
10
5.09423
20
-2.54398
11
5.08784
21
-2.54683
0
LINE
8
BLACK
6
CONTINUOUS
10
5.08784
20
-2.54683
11
5.081
21
-2.54828
0
LINE
8
BLACK
6
CONTINUOUS
10
5.081
20
-2.54828
11
5.074
21
-2.54828
0
LINE
8
BLACK
6
CONTINUOUS
10
5.074
20
-2.54828
11
5.06716
21
-2.54683
0
LINE
8
BLACK
6
CONTINUOUS
10
5.06716
20
-2.54683
11
5.06077
21
-2.54398
0
LINE
8
BLACK
6
CONTINUOUS
10
5.06077
20
-2.54398
11
5.05511
21
-2.53987
0
LINE
8
BLACK
6
CONTINUOUS
10
5.05511
20
-2.53987
11
5.05043
21
-2.53467
0
LINE
8
BLACK
6
CONTINUOUS
10
5.05043
20
-2.53467
11
5.04693
21
-2.52861
0
LINE
8
BLACK
6
CONTINUOUS
10
5.04693
20
-2.52861
11
5.04477
21
-2.52196
0
LINE
8
BLACK
6
CONTINUOUS
10
5.04477
20
-2.52196
11
5.04404
21
-2.515
0
LINE
8
BLACK
6
CONTINUOUS
10
5.04404
20
-2.515
11
5.04477
21
-2.50804
0
LINE
8
BLACK
6
CONTINUOUS
10
5.04477
20
-2.50804
11
5.04693
21
-2.50139
0
LINE
8
BLACK
6
CONTINUOUS
10
5.04693
20
-2.50139
11
5.05043
21
-2.49533
0
LINE
8
BLACK
6
CONTINUOUS
10
5.05043
20
-2.49533
11
5.05511
21
-2.49013
0
LINE
8
BLACK
6
CONTINUOUS
10
5.05511
20
-2.49013
11
5.06077
21
-2.48602
0
LINE
8
BLACK
6
CONTINUOUS
10
5.06077
20
-2.48602
11
5.06716
21
-2.48317
0
LINE
8
BLACK
6
CONTINUOUS
10
5.06716
20
-2.48317
11
5.074
21
-2.48172
0
LINE
8
BLACK
6
CONTINUOUS
10
5.074
20
-2.48172
11
5.081
21
-2.48172
0
LINE
8
BLACK
6
CONTINUOUS
10
5.081
20
-2.48172
11
5.08784
21
-2.48317
0
LINE
8
BLACK
6
CONTINUOUS
10
7.73833
20
-2.41851
11
7.74472
21
-2.42135
0
LINE
8
BLACK
6
CONTINUOUS
10
7.74472
20
-2.42135
11
7.75038
21
-2.42547
0
LINE
8
BLACK
6
CONTINUOUS
10
7.75038
20
-2.42547
11
7.75507
21
-2.43066
0
LINE
8
BLACK
6
CONTINUOUS
10
7.75507
20
-2.43066
11
7.75856
21
-2.43672
0
LINE
8
BLACK
6
CONTINUOUS
10
7.75856
20
-2.43672
11
7.76073
21
-2.44338
0
LINE
8
BLACK
6
CONTINUOUS
10
7.76073
20
-2.44338
11
7.76146
21
-2.45033
0
LINE
8
BLACK
6
CONTINUOUS
10
7.76146
20
-2.45033
11
7.76073
21
-2.45729
0
LINE
8
BLACK
6
CONTINUOUS
10
7.76073
20
-2.45729
11
7.75856
21
-2.46395
0
LINE
8
BLACK
6
CONTINUOUS
10
7.75856
20
-2.46395
11
7.75507
21
-2.47
0
LINE
8
BLACK
6
CONTINUOUS
10
7.75507
20
-2.47
11
7.75038
21
-2.4752
0
LINE
8
BLACK
6
CONTINUOUS
10
7.75038
20
-2.4752
11
7.74472
21
-2.47932
0
LINE
8
BLACK
6
CONTINUOUS
10
7.74472
20
-2.47932
11
7.73833
21
-2.48216
0
LINE
8
BLACK
6
CONTINUOUS
10
7.73833
20
-2.48216
11
7.73149
21
-2.48362
0
LINE
8
BLACK
6
CONTINUOUS
10
7.73149
20
-2.48362
11
7.72449
21
-2.48362
0
LINE
8
BLACK
6
CONTINUOUS
10
7.72449
20
-2.48362
11
7.71765
21
-2.48216
0
LINE
8
BLACK
6
CONTINUOUS
10
7.71765
20
-2.48216
11
7.71126
21
-2.47932
0
LINE
8
BLACK
6
CONTINUOUS
10
7.71126
20
-2.47932
11
7.7056
21
-2.4752
0
LINE
8
BLACK
6
CONTINUOUS
10
7.7056
20
-2.4752
11
7.70092
21
-2.47
0
LINE
8
BLACK
6
CONTINUOUS
10
7.70092
20
-2.47
11
7.69742
21
-2.46395
0
LINE
8
BLACK
6
CONTINUOUS
10
7.69742
20
-2.46395
11
7.69526
21
-2.45729
0
LINE
8
BLACK
6
CONTINUOUS
10
7.69526
20
-2.45729
11
7.69453
21
-2.45033
0
LINE
8
BLACK
6
CONTINUOUS
10
7.69453
20
-2.45033
11
7.69526
21
-2.44338
0
LINE
8
BLACK
6
CONTINUOUS
10
7.69526
20
-2.44338
11
7.69742
21
-2.43672
0
LINE
8
BLACK
6
CONTINUOUS
10
7.69742
20
-2.43672
11
7.70092
21
-2.43066
0
LINE
8
BLACK
6
CONTINUOUS
10
7.70092
20
-2.43066
11
7.7056
21
-2.42547
0
LINE
8
BLACK
6
CONTINUOUS
10
7.7056
20
-2.42547
11
7.71126
21
-2.42135
0
LINE
8
BLACK
6
CONTINUOUS
10
7.71126
20
-2.42135
11
7.71765
21
-2.41851
0
LINE
8
BLACK
6
CONTINUOUS
10
7.71765
20
-2.41851
11
7.72449
21
-2.41705
0
LINE
8
BLACK
6
CONTINUOUS
10
7.72449
20
-2.41705
11
7.73149
21
-2.41705
0
LINE
8
BLACK
6
CONTINUOUS
10
7.73149
20
-2.41705
11
7.73833
21
-2.41851
0
LINE
8
BLACK
6
CONTINUOUS
10
8.63833
20
-2.41851
11
8.64472
21
-2.42135
0
LINE
8
BLACK
6
CONTINUOUS
10
8.64472
20
-2.42135
11
8.65038
21
-2.42547
0
LINE
8
BLACK
6
CONTINUOUS
10
8.65038
20
-2.42547
11
8.65507
21
-2.43066
0
LINE
8
BLACK
6
CONTINUOUS
10
8.65507
20
-2.43066
11
8.65856
21
-2.43672
0
LINE
8
BLACK
6
CONTINUOUS
10
8.65856
20
-2.43672
11
8.66073
21
-2.44338
0
LINE
8
BLACK
6
CONTINUOUS
10
8.66073
20
-2.44338
11
8.66146
21
-2.45033
0
LINE
8
BLACK
6
CONTINUOUS
10
8.66146
20
-2.45033
11
8.66073
21
-2.45729
0
LINE
8
BLACK
6
CONTINUOUS
10
8.66073
20
-2.45729
11
8.65856
21
-2.46395
0
LINE
8
BLACK
6
CONTINUOUS
10
8.65856
20
-2.46395
11
8.65507
21
-2.47
0
LINE
8
BLACK
6
CONTINUOUS
10
8.65507
20
-2.47
11
8.65038
21
-2.4752
0
LINE
8
BLACK
6
CONTINUOUS
10
8.65038
20
-2.4752
11
8.64472
21
-2.47932
0
LINE
8
BLACK
6
CONTINUOUS
10
8.64472
20
-2.47932
11
8.63833
21
-2.48216
0
LINE
8
BLACK
6
CONTINUOUS
10
8.63833
20
-2.48216
11
8.63149
21
-2.48362
0
LINE
8
BLACK
6
CONTINUOUS
10
8.63149
20
-2.48362
11
8.62449
21
-2.48362
0
LINE
8
BLACK
6
CONTINUOUS
10
8.62449
20
-2.48362
11
8.61765
21
-2.48216
0
LINE
8
BLACK
6
CONTINUOUS
10
8.61765
20
-2.48216
11
8.61126
21
-2.47932
0
LINE
8
BLACK
6
CONTINUOUS
10
8.61126
20
-2.47932
11
8.6056
21
-2.4752
0
LINE
8
BLACK
6
CONTINUOUS
10
8.6056
20
-2.4752
11
8.60092
21
-2.47
0
LINE
8
BLACK
6
CONTINUOUS
10
8.60092
20
-2.47
11
8.59742
21
-2.46395
0
LINE
8
BLACK
6
CONTINUOUS
10
8.59742
20
-2.46395
11
8.59526
21
-2.45729
0
LINE
8
BLACK
6
CONTINUOUS
10
8.59526
20
-2.45729
11
8.59453
21
-2.45033
0
LINE
8
BLACK
6
CONTINUOUS
10
8.59453
20
-2.45033
11
8.59526
21
-2.44338
0
LINE
8
BLACK
6
CONTINUOUS
10
8.59526
20
-2.44338
11
8.59742
21
-2.43672
0
LINE
8
BLACK
6
CONTINUOUS
10
8.59742
20
-2.43672
11
8.60092
21
-2.43066
0
LINE
8
BLACK
6
CONTINUOUS
10
8.60092
20
-2.43066
11
8.6056
21
-2.42547
0
LINE
8
BLACK
6
CONTINUOUS
10
8.6056
20
-2.42547
11
8.61126
21
-2.42135
0
LINE
8
BLACK
6
CONTINUOUS
10
8.61126
20
-2.42135
11
8.61765
21
-2.41851
0
LINE
8
BLACK
6
CONTINUOUS
10
8.61765
20
-2.41851
11
8.62449
21
-2.41705
0
LINE
8
BLACK
6
CONTINUOUS
10
8.62449
20
-2.41705
11
8.63149
21
-2.41705
0
LINE
8
BLACK
6
CONTINUOUS
10
8.63149
20
-2.41705
11
8.63833
21
-2.41851
0
LINE
8
BLACK
6
CONTINUOUS
10
7.73833
20
-2.31851
11
7.74472
21
-2.32135
0
LINE
8
BLACK
6
CONTINUOUS
10
7.74472
20
-2.32135
11
7.75038
21
-2.32547
0
LINE
8
BLACK
6
CONTINUOUS
10
7.75038
20
-2.32547
11
7.75507
21
-2.33066
0
LINE
8
BLACK
6
CONTINUOUS
10
7.75507
20
-2.33066
11
7.75856
21
-2.33672
0
LINE
8
BLACK
6
CONTINUOUS
10
7.75856
20
-2.33672
11
7.76073
21
-2.34338
0
LINE
8
BLACK
6
CONTINUOUS
10
7.76073
20
-2.34338
11
7.76146
21
-2.35033
0
LINE
8
BLACK
6
CONTINUOUS
10
7.76146
20
-2.35033
11
7.76073
21
-2.35729
0
LINE
8
BLACK
6
CONTINUOUS
10
7.76073
20
-2.35729
11
7.75856
21
-2.36395
0
LINE
8
BLACK
6
CONTINUOUS
10
7.75856
20
-2.36395
11
7.75507
21
-2.37
0
LINE
8
BLACK
6
CONTINUOUS
10
7.75507
20
-2.37
11
7.75038
21
-2.3752
0
LINE
8
BLACK
6
CONTINUOUS
10
7.75038
20
-2.3752
11
7.74472
21
-2.37932
0
LINE
8
BLACK
6
CONTINUOUS
10
7.74472
20
-2.37932
11
7.73833
21
-2.38216
0
LINE
8
BLACK
6
CONTINUOUS
10
7.73833
20
-2.38216
11
7.73149
21
-2.38362
0
LINE
8
BLACK
6
CONTINUOUS
10
7.73149
20
-2.38362
11
7.72449
21
-2.38362
0
LINE
8
BLACK
6
CONTINUOUS
10
7.72449
20
-2.38362
11
7.71765
21
-2.38216
0
LINE
8
BLACK
6
CONTINUOUS
10
7.71765
20
-2.38216
11
7.71126
21
-2.37932
0
LINE
8
BLACK
6
CONTINUOUS
10
7.71126
20
-2.37932
11
7.7056
21
-2.3752
0
LINE
8
BLACK
6
CONTINUOUS
10
7.7056
20
-2.3752
11
7.70092
21
-2.37
0
LINE
8
BLACK
6
CONTINUOUS
10
7.70092
20
-2.37
11
7.69742
21
-2.36395
0
LINE
8
BLACK
6
CONTINUOUS
10
7.69742
20
-2.36395
11
7.69526
21
-2.35729
0
LINE
8
BLACK
6
CONTINUOUS
10
7.69526
20
-2.35729
11
7.69453
21
-2.35033
0
LINE
8
BLACK
6
CONTINUOUS
10
7.69453
20
-2.35033
11
7.69526
21
-2.34338
0
LINE
8
BLACK
6
CONTINUOUS
10
7.69526
20
-2.34338
11
7.69742
21
-2.33672
0
LINE
8
BLACK
6
CONTINUOUS
10
7.69742
20
-2.33672
11
7.70092
21
-2.33066
0
LINE
8
BLACK
6
CONTINUOUS
10
7.70092
20
-2.33066
11
7.7056
21
-2.32547
0
LINE
8
BLACK
6
CONTINUOUS
10
7.7056
20
-2.32547
11
7.71126
21
-2.32135
0
LINE
8
BLACK
6
CONTINUOUS
10
7.71126
20
-2.32135
11
7.71765
21
-2.31851
0
LINE
8
BLACK
6
CONTINUOUS
10
7.71765
20
-2.31851
11
7.72449
21
-2.31705
0
LINE
8
BLACK
6
CONTINUOUS
10
7.72449
20
-2.31705
11
7.73149
21
-2.31705
0
LINE
8
BLACK
6
CONTINUOUS
10
7.73149
20
-2.31705
11
7.73833
21
-2.31851
0
LINE
8
BLACK
6
CONTINUOUS
10
8.63833
20
-2.31851
11
8.64472
21
-2.32135
0
LINE
8
BLACK
6
CONTINUOUS
10
8.64472
20
-2.32135
11
8.65038
21
-2.32547
0
LINE
8
BLACK
6
CONTINUOUS
10
8.65038
20
-2.32547
11
8.65507
21
-2.33066
0
LINE
8
BLACK
6
CONTINUOUS
10
8.65507
20
-2.33066
11
8.65856
21
-2.33672
0
LINE
8
BLACK
6
CONTINUOUS
10
8.65856
20
-2.33672
11
8.66073
21
-2.34338
0
LINE
8
BLACK
6
CONTINUOUS
10
8.66073
20
-2.34338
11
8.66146
21
-2.35033
0
LINE
8
BLACK
6
CONTINUOUS
10
8.66146
20
-2.35033
11
8.66073
21
-2.35729
0
LINE
8
BLACK
6
CONTINUOUS
10
8.66073
20
-2.35729
11
8.65856
21
-2.36395
0
LINE
8
BLACK
6
CONTINUOUS
10
8.65856
20
-2.36395
11
8.65507
21
-2.37
0
LINE
8
BLACK
6
CONTINUOUS
10
8.65507
20
-2.37
11
8.65038
21
-2.3752
0
LINE
8
BLACK
6
CONTINUOUS
10
8.65038
20
-2.3752
11
8.64472
21
-2.37932
0
LINE
8
BLACK
6
CONTINUOUS
10
8.64472
20
-2.37932
11
8.63833
21
-2.38216
0
LINE
8
BLACK
6
CONTINUOUS
10
8.63833
20
-2.38216
11
8.63149
21
-2.38362
0
LINE
8
BLACK
6
CONTINUOUS
10
8.63149
20
-2.38362
11
8.62449
21
-2.38362
0
LINE
8
BLACK
6
CONTINUOUS
10
8.62449
20
-2.38362
11
8.61765
21
-2.38216
0
LINE
8
BLACK
6
CONTINUOUS
10
8.61765
20
-2.38216
11
8.61126
21
-2.37932
0
LINE
8
BLACK
6
CONTINUOUS
10
8.61126
20
-2.37932
11
8.6056
21
-2.3752
0
LINE
8
BLACK
6
CONTINUOUS
10
8.6056
20
-2.3752
11
8.60092
21
-2.37
0
LINE
8
BLACK
6
CONTINUOUS
10
8.60092
20
-2.37
11
8.59742
21
-2.36395
0
LINE
8
BLACK
6
CONTINUOUS
10
8.59742
20
-2.36395
11
8.59526
21
-2.35729
0
LINE
8
BLACK
6
CONTINUOUS
10
8.59526
20
-2.35729
11
8.59453
21
-2.35033
0
LINE
8
BLACK
6
CONTINUOUS
10
8.59453
20
-2.35033
11
8.59526
21
-2.34338
0
LINE
8
BLACK
6
CONTINUOUS
10
8.59526
20
-2.34338
11
8.59742
21
-2.33672
0
LINE
8
BLACK
6
CONTINUOUS
10
8.59742
20
-2.33672
11
8.60092
21
-2.33066
0
LINE
8
BLACK
6
CONTINUOUS
10
8.60092
20
-2.33066
11
8.6056
21
-2.32547
0
LINE
8
BLACK
6
CONTINUOUS
10
8.6056
20
-2.32547
11
8.61126
21
-2.32135
0
LINE
8
BLACK
6
CONTINUOUS
10
8.61126
20
-2.32135
11
8.61765
21
-2.31851
0
LINE
8
BLACK
6
CONTINUOUS
10
8.61765
20
-2.31851
11
8.62449
21
-2.31705
0
LINE
8
BLACK
6
CONTINUOUS
10
8.62449
20
-2.31705
11
8.63149
21
-2.31705
0
LINE
8
BLACK
6
CONTINUOUS
10
8.63149
20
-2.31705
11
8.63833
21
-2.31851
0
LINE
8
BLACK
6
CONTINUOUS
10
7.73833
20
-2.21851
11
7.74472
21
-2.22135
0
LINE
8
BLACK
6
CONTINUOUS
10
7.74472
20
-2.22135
11
7.75038
21
-2.22547
0
LINE
8
BLACK
6
CONTINUOUS
10
7.75038
20
-2.22547
11
7.75507
21
-2.23066
0
LINE
8
BLACK
6
CONTINUOUS
10
7.75507
20
-2.23066
11
7.75856
21
-2.23672
0
LINE
8
BLACK
6
CONTINUOUS
10
7.75856
20
-2.23672
11
7.76073
21
-2.24338
0
LINE
8
BLACK
6
CONTINUOUS
10
7.76073
20
-2.24338
11
7.76146
21
-2.25033
0
LINE
8
BLACK
6
CONTINUOUS
10
7.76146
20
-2.25033
11
7.76073
21
-2.25729
0
LINE
8
BLACK
6
CONTINUOUS
10
7.76073
20
-2.25729
11
7.75856
21
-2.26395
0
LINE
8
BLACK
6
CONTINUOUS
10
7.75856
20
-2.26395
11
7.75507
21
-2.27
0
LINE
8
BLACK
6
CONTINUOUS
10
7.75507
20
-2.27
11
7.75038
21
-2.2752
0
LINE
8
BLACK
6
CONTINUOUS
10
7.75038
20
-2.2752
11
7.74472
21
-2.27932
0
LINE
8
BLACK
6
CONTINUOUS
10
7.74472
20
-2.27932
11
7.73833
21
-2.28216
0
LINE
8
BLACK
6
CONTINUOUS
10
7.73833
20
-2.28216
11
7.73149
21
-2.28362
0
LINE
8
BLACK
6
CONTINUOUS
10
7.73149
20
-2.28362
11
7.72449
21
-2.28362
0
LINE
8
BLACK
6
CONTINUOUS
10
7.72449
20
-2.28362
11
7.71765
21
-2.28216
0
LINE
8
BLACK
6
CONTINUOUS
10
7.71765
20
-2.28216
11
7.71126
21
-2.27932
0
LINE
8
BLACK
6
CONTINUOUS
10
7.71126
20
-2.27932
11
7.7056
21
-2.2752
0
LINE
8
BLACK
6
CONTINUOUS
10
7.7056
20
-2.2752
11
7.70092
21
-2.27
0
LINE
8
BLACK
6
CONTINUOUS
10
7.70092
20
-2.27
11
7.69742
21
-2.26395
0
LINE
8
BLACK
6
CONTINUOUS
10
7.69742
20
-2.26395
11
7.69526
21
-2.25729
0
LINE
8
BLACK
6
CONTINUOUS
10
7.69526
20
-2.25729
11
7.69453
21
-2.25033
0
LINE
8
BLACK
6
CONTINUOUS
10
7.69453
20
-2.25033
11
7.69526
21
-2.24338
0
LINE
8
BLACK
6
CONTINUOUS
10
7.69526
20
-2.24338
11
7.69742
21
-2.23672
0
LINE
8
BLACK
6
CONTINUOUS
10
7.69742
20
-2.23672
11
7.70092
21
-2.23066
0
LINE
8
BLACK
6
CONTINUOUS
10
7.70092
20
-2.23066
11
7.7056
21
-2.22547
0
LINE
8
BLACK
6
CONTINUOUS
10
7.7056
20
-2.22547
11
7.71126
21
-2.22135
0
LINE
8
BLACK
6
CONTINUOUS
10
7.71126
20
-2.22135
11
7.71765
21
-2.21851
0
LINE
8
BLACK
6
CONTINUOUS
10
7.71765
20
-2.21851
11
7.72449
21
-2.21705
0
LINE
8
BLACK
6
CONTINUOUS
10
7.72449
20
-2.21705
11
7.73149
21
-2.21705
0
LINE
8
BLACK
6
CONTINUOUS
10
7.73149
20
-2.21705
11
7.73833
21
-2.21851
0
LINE
8
BLACK
6
CONTINUOUS
10
8.63833
20
-2.21851
11
8.64472
21
-2.22135
0
LINE
8
BLACK
6
CONTINUOUS
10
8.64472
20
-2.22135
11
8.65038
21
-2.22547
0
LINE
8
BLACK
6
CONTINUOUS
10
8.65038
20
-2.22547
11
8.65507
21
-2.23066
0
LINE
8
BLACK
6
CONTINUOUS
10
8.65507
20
-2.23066
11
8.65856
21
-2.23672
0
LINE
8
BLACK
6
CONTINUOUS
10
8.65856
20
-2.23672
11
8.66073
21
-2.24338
0
LINE
8
BLACK
6
CONTINUOUS
10
8.66073
20
-2.24338
11
8.66146
21
-2.25033
0
LINE
8
BLACK
6
CONTINUOUS
10
8.66146
20
-2.25033
11
8.66073
21
-2.25729
0
LINE
8
BLACK
6
CONTINUOUS
10
8.66073
20
-2.25729
11
8.65856
21
-2.26395
0
LINE
8
BLACK
6
CONTINUOUS
10
8.65856
20
-2.26395
11
8.65507
21
-2.27
0
LINE
8
BLACK
6
CONTINUOUS
10
8.65507
20
-2.27
11
8.65038
21
-2.2752
0
LINE
8
BLACK
6
CONTINUOUS
10
8.65038
20
-2.2752
11
8.64472
21
-2.27932
0
LINE
8
BLACK
6
CONTINUOUS
10
8.64472
20
-2.27932
11
8.63833
21
-2.28216
0
LINE
8
BLACK
6
CONTINUOUS
10
8.63833
20
-2.28216
11
8.63149
21
-2.28362
0
LINE
8
BLACK
6
CONTINUOUS
10
8.63149
20
-2.28362
11
8.62449
21
-2.28362
0
LINE
8
BLACK
6
CONTINUOUS
10
8.62449
20
-2.28362
11
8.61765
21
-2.28216
0
LINE
8
BLACK
6
CONTINUOUS
10
8.61765
20
-2.28216
11
8.61126
21
-2.27932
0
LINE
8
BLACK
6
CONTINUOUS
10
8.61126
20
-2.27932
11
8.6056
21
-2.2752
0
LINE
8
BLACK
6
CONTINUOUS
10
8.6056
20
-2.2752
11
8.60092
21
-2.27
0
LINE
8
BLACK
6
CONTINUOUS
10
8.60092
20
-2.27
11
8.59742
21
-2.26395
0
LINE
8
BLACK
6
CONTINUOUS
10
8.59742
20
-2.26395
11
8.59526
21
-2.25729
0
LINE
8
BLACK
6
CONTINUOUS
10
8.59526
20
-2.25729
11
8.59453
21
-2.25033
0
LINE
8
BLACK
6
CONTINUOUS
10
8.59453
20
-2.25033
11
8.59526
21
-2.24338
0
LINE
8
BLACK
6
CONTINUOUS
10
8.59526
20
-2.24338
11
8.59742
21
-2.23672
0
LINE
8
BLACK
6
CONTINUOUS
10
8.59742
20
-2.23672
11
8.60092
21
-2.23066
0
LINE
8
BLACK
6
CONTINUOUS
10
8.60092
20
-2.23066
11
8.6056
21
-2.22547
0
LINE
8
BLACK
6
CONTINUOUS
10
8.6056
20
-2.22547
11
8.61126
21
-2.22135
0
LINE
8
BLACK
6
CONTINUOUS
10
8.61126
20
-2.22135
11
8.61765
21
-2.21851
0
LINE
8
BLACK
6
CONTINUOUS
10
8.61765
20
-2.21851
11
8.62449
21
-2.21705
0
LINE
8
BLACK
6
CONTINUOUS
10
8.62449
20
-2.21705
11
8.63149
21
-2.21705
0
LINE
8
BLACK
6
CONTINUOUS
10
8.63149
20
-2.21705
11
8.63833
21
-2.21851
0
LINE
8
BLACK
6
CONTINUOUS
10
7.73833
20
-2.11851
11
7.74472
21
-2.12135
0
LINE
8
BLACK
6
CONTINUOUS
10
7.74472
20
-2.12135
11
7.75038
21
-2.12547
0
LINE
8
BLACK
6
CONTINUOUS
10
7.75038
20
-2.12547
11
7.75507
21
-2.13066
0
LINE
8
BLACK
6
CONTINUOUS
10
7.75507
20
-2.13066
11
7.75856
21
-2.13672
0
LINE
8
BLACK
6
CONTINUOUS
10
7.75856
20
-2.13672
11
7.76073
21
-2.14338
0
LINE
8
BLACK
6
CONTINUOUS
10
7.76073
20
-2.14338
11
7.76146
21
-2.15033
0
LINE
8
BLACK
6
CONTINUOUS
10
7.76146
20
-2.15033
11
7.76073
21
-2.15729
0
LINE
8
BLACK
6
CONTINUOUS
10
7.76073
20
-2.15729
11
7.75856
21
-2.16395
0
LINE
8
BLACK
6
CONTINUOUS
10
7.75856
20
-2.16395
11
7.75507
21
-2.17
0
LINE
8
BLACK
6
CONTINUOUS
10
7.75507
20
-2.17
11
7.75038
21
-2.1752
0
LINE
8
BLACK
6
CONTINUOUS
10
7.75038
20
-2.1752
11
7.74472
21
-2.17932
0
LINE
8
BLACK
6
CONTINUOUS
10
7.74472
20
-2.17932
11
7.73833
21
-2.18216
0
LINE
8
BLACK
6
CONTINUOUS
10
7.73833
20
-2.18216
11
7.73149
21
-2.18362
0
LINE
8
BLACK
6
CONTINUOUS
10
7.73149
20
-2.18362
11
7.72449
21
-2.18362
0
LINE
8
BLACK
6
CONTINUOUS
10
7.72449
20
-2.18362
11
7.71765
21
-2.18216
0
LINE
8
BLACK
6
CONTINUOUS
10
7.71765
20
-2.18216
11
7.71126
21
-2.17932
0
LINE
8
BLACK
6
CONTINUOUS
10
7.71126
20
-2.17932
11
7.7056
21
-2.1752
0
LINE
8
BLACK
6
CONTINUOUS
10
7.7056
20
-2.1752
11
7.70092
21
-2.17
0
LINE
8
BLACK
6
CONTINUOUS
10
7.70092
20
-2.17
11
7.69742
21
-2.16395
0
LINE
8
BLACK
6
CONTINUOUS
10
7.69742
20
-2.16395
11
7.69526
21
-2.15729
0
LINE
8
BLACK
6
CONTINUOUS
10
7.69526
20
-2.15729
11
7.69453
21
-2.15033
0
LINE
8
BLACK
6
CONTINUOUS
10
7.69453
20
-2.15033
11
7.69526
21
-2.14338
0
LINE
8
BLACK
6
CONTINUOUS
10
7.69526
20
-2.14338
11
7.69742
21
-2.13672
0
LINE
8
BLACK
6
CONTINUOUS
10
7.69742
20
-2.13672
11
7.70092
21
-2.13066
0
LINE
8
BLACK
6
CONTINUOUS
10
7.70092
20
-2.13066
11
7.7056
21
-2.12547
0
LINE
8
BLACK
6
CONTINUOUS
10
7.7056
20
-2.12547
11
7.71126
21
-2.12135
0
LINE
8
BLACK
6
CONTINUOUS
10
7.71126
20
-2.12135
11
7.71765
21
-2.11851
0
LINE
8
BLACK
6
CONTINUOUS
10
7.71765
20
-2.11851
11
7.72449
21
-2.11705
0
LINE
8
BLACK
6
CONTINUOUS
10
7.72449
20
-2.11705
11
7.73149
21
-2.11705
0
LINE
8
BLACK
6
CONTINUOUS
10
7.73149
20
-2.11705
11
7.73833
21
-2.11851
0
LINE
8
BLACK
6
CONTINUOUS
10
8.63833
20
-2.11851
11
8.64472
21
-2.12135
0
LINE
8
BLACK
6
CONTINUOUS
10
8.64472
20
-2.12135
11
8.65038
21
-2.12547
0
LINE
8
BLACK
6
CONTINUOUS
10
8.65038
20
-2.12547
11
8.65507
21
-2.13066
0
LINE
8
BLACK
6
CONTINUOUS
10
8.65507
20
-2.13066
11
8.65856
21
-2.13672
0
LINE
8
BLACK
6
CONTINUOUS
10
8.65856
20
-2.13672
11
8.66073
21
-2.14338
0
LINE
8
BLACK
6
CONTINUOUS
10
8.66073
20
-2.14338
11
8.66146
21
-2.15033
0
LINE
8
BLACK
6
CONTINUOUS
10
8.66146
20
-2.15033
11
8.66073
21
-2.15729
0
LINE
8
BLACK
6
CONTINUOUS
10
8.66073
20
-2.15729
11
8.65856
21
-2.16395
0
LINE
8
BLACK
6
CONTINUOUS
10
8.65856
20
-2.16395
11
8.65507
21
-2.17
0
LINE
8
BLACK
6
CONTINUOUS
10
8.65507
20
-2.17
11
8.65038
21
-2.1752
0
LINE
8
BLACK
6
CONTINUOUS
10
8.65038
20
-2.1752
11
8.64472
21
-2.17932
0
LINE
8
BLACK
6
CONTINUOUS
10
8.64472
20
-2.17932
11
8.63833
21
-2.18216
0
LINE
8
BLACK
6
CONTINUOUS
10
8.63833
20
-2.18216
11
8.63149
21
-2.18362
0
LINE
8
BLACK
6
CONTINUOUS
10
8.63149
20
-2.18362
11
8.62449
21
-2.18362
0
LINE
8
BLACK
6
CONTINUOUS
10
8.62449
20
-2.18362
11
8.61765
21
-2.18216
0
LINE
8
BLACK
6
CONTINUOUS
10
8.61765
20
-2.18216
11
8.61126
21
-2.17932
0
LINE
8
BLACK
6
CONTINUOUS
10
8.61126
20
-2.17932
11
8.6056
21
-2.1752
0
LINE
8
BLACK
6
CONTINUOUS
10
8.6056
20
-2.1752
11
8.60092
21
-2.17
0
LINE
8
BLACK
6
CONTINUOUS
10
8.60092
20
-2.17
11
8.59742
21
-2.16395
0
LINE
8
BLACK
6
CONTINUOUS
10
8.59742
20
-2.16395
11
8.59526
21
-2.15729
0
LINE
8
BLACK
6
CONTINUOUS
10
8.59526
20
-2.15729
11
8.59453
21
-2.15033
0
LINE
8
BLACK
6
CONTINUOUS
10
8.59453
20
-2.15033
11
8.59526
21
-2.14338
0
LINE
8
BLACK
6
CONTINUOUS
10
8.59526
20
-2.14338
11
8.59742
21
-2.13672
0
LINE
8
BLACK
6
CONTINUOUS
10
8.59742
20
-2.13672
11
8.60092
21
-2.13066
0
LINE
8
BLACK
6
CONTINUOUS
10
8.60092
20
-2.13066
11
8.6056
21
-2.12547
0
LINE
8
BLACK
6
CONTINUOUS
10
8.6056
20
-2.12547
11
8.61126
21
-2.12135
0
LINE
8
BLACK
6
CONTINUOUS
10
8.61126
20
-2.12135
11
8.61765
21
-2.11851
0
LINE
8
BLACK
6
CONTINUOUS
10
8.61765
20
-2.11851
11
8.62449
21
-2.11705
0
LINE
8
BLACK
6
CONTINUOUS
10
8.62449
20
-2.11705
11
8.63149
21
-2.11705
0
LINE
8
BLACK
6
CONTINUOUS
10
8.63149
20
-2.11705
11
8.63833
21
-2.11851
0
LINE
8
BLACK
6
CONTINUOUS
10
2.84419
20
-2.17642
11
2.76545
21
-2.17642
0
LINE
8
BLACK
6
CONTINUOUS
10
2.76545
20
-2.17642
11
2.76545
21
-2.09768
0
LINE
8
BLACK
6
CONTINUOUS
10
2.76545
20
-2.09768
11
2.84419
21
-2.09768
0
LINE
8
BLACK
6
CONTINUOUS
10
2.84419
20
-2.09768
11
2.84419
21
-2.17642
0
LINE
8
BLACK
6
CONTINUOUS
10
5.41735
20
-2.02278
11
5.42697
21
-2.02509
0
LINE
8
BLACK
6
CONTINUOUS
10
5.42697
20
-2.02509
11
5.4361
21
-2.02887
0
LINE
8
BLACK
6
CONTINUOUS
10
5.4361
20
-2.02887
11
5.44453
21
-2.03404
0
LINE
8
BLACK
6
CONTINUOUS
10
5.44453
20
-2.03404
11
5.45204
21
-2.04046
0
LINE
8
BLACK
6
CONTINUOUS
10
5.45204
20
-2.04046
11
5.45846
21
-2.04797
0
LINE
8
BLACK
6
CONTINUOUS
10
5.45846
20
-2.04797
11
5.46363
21
-2.0564
0
LINE
8
BLACK
6
CONTINUOUS
10
5.46363
20
-2.0564
11
5.46741
21
-2.06553
0
LINE
8
BLACK
6
CONTINUOUS
10
5.46741
20
-2.06553
11
5.46972
21
-2.07515
0
LINE
8
BLACK
6
CONTINUOUS
10
5.46972
20
-2.07515
11
5.47049
21
-2.085
0
LINE
8
BLACK
6
CONTINUOUS
10
5.47049
20
-2.085
11
5.46972
21
-2.09485
0
LINE
8
BLACK
6
CONTINUOUS
10
5.46972
20
-2.09485
11
5.46741
21
-2.10447
0
LINE
8
BLACK
6
CONTINUOUS
10
5.46741
20
-2.10447
11
5.46363
21
-2.1136
0
LINE
8
BLACK
6
CONTINUOUS
10
5.46363
20
-2.1136
11
5.45846
21
-2.12203
0
LINE
8
BLACK
6
CONTINUOUS
10
5.45846
20
-2.12203
11
5.45204
21
-2.12954
0
LINE
8
BLACK
6
CONTINUOUS
10
5.45204
20
-2.12954
11
5.44453
21
-2.13596
0
LINE
8
BLACK
6
CONTINUOUS
10
5.44453
20
-2.13596
11
5.4361
21
-2.14113
0
LINE
8
BLACK
6
CONTINUOUS
10
5.4361
20
-2.14113
11
5.42697
21
-2.14491
0
LINE
8
BLACK
6
CONTINUOUS
10
5.42697
20
-2.14491
11
5.41735
21
-2.14722
0
LINE
8
BLACK
6
CONTINUOUS
10
5.41735
20
-2.14722
11
5.4075
21
-2.14799
0
LINE
8
BLACK
6
CONTINUOUS
10
5.4075
20
-2.14799
11
5.39765
21
-2.14722
0
LINE
8
BLACK
6
CONTINUOUS
10
5.39765
20
-2.14722
11
5.38803
21
-2.14491
0
LINE
8
BLACK
6
CONTINUOUS
10
5.38803
20
-2.14491
11
5.3789
21
-2.14113
0
LINE
8
BLACK
6
CONTINUOUS
10
5.3789
20
-2.14113
11
5.37047
21
-2.13596
0
LINE
8
BLACK
6
CONTINUOUS
10
5.37047
20
-2.13596
11
5.36296
21
-2.12954
0
LINE
8
BLACK
6
CONTINUOUS
10
5.36296
20
-2.12954
11
5.35654
21
-2.12203
0
LINE
8
BLACK
6
CONTINUOUS
10
5.35654
20
-2.12203
11
5.35137
21
-2.1136
0
LINE
8
BLACK
6
CONTINUOUS
10
5.35137
20
-2.1136
11
5.34759
21
-2.10447
0
LINE
8
BLACK
6
CONTINUOUS
10
5.34759
20
-2.10447
11
5.34528
21
-2.09485
0
LINE
8
BLACK
6
CONTINUOUS
10
5.34528
20
-2.09485
11
5.34451
21
-2.085
0
LINE
8
BLACK
6
CONTINUOUS
10
5.34451
20
-2.085
11
5.34528
21
-2.07515
0
LINE
8
BLACK
6
CONTINUOUS
10
5.34528
20
-2.07515
11
5.34759
21
-2.06553
0
LINE
8
BLACK
6
CONTINUOUS
10
5.34759
20
-2.06553
11
5.35137
21
-2.0564
0
LINE
8
BLACK
6
CONTINUOUS
10
5.35137
20
-2.0564
11
5.35654
21
-2.04797
0
LINE
8
BLACK
6
CONTINUOUS
10
5.35654
20
-2.04797
11
5.36296
21
-2.04046
0
LINE
8
BLACK
6
CONTINUOUS
10
5.36296
20
-2.04046
11
5.37047
21
-2.03404
0
LINE
8
BLACK
6
CONTINUOUS
10
5.37047
20
-2.03404
11
5.3789
21
-2.02887
0
LINE
8
BLACK
6
CONTINUOUS
10
5.3789
20
-2.02887
11
5.38803
21
-2.02509
0
LINE
8
BLACK
6
CONTINUOUS
10
5.38803
20
-2.02509
11
5.39765
21
-2.02278
0
LINE
8
BLACK
6
CONTINUOUS
10
5.39765
20
-2.02278
11
5.4075
21
-2.02201
0
LINE
8
BLACK
6
CONTINUOUS
10
5.4075
20
-2.02201
11
5.41735
21
-2.02278
0
LINE
8
BLACK
6
CONTINUOUS
10
7.29924
20
-2.02278
11
7.30886
21
-2.02509
0
LINE
8
BLACK
6
CONTINUOUS
10
7.30886
20
-2.02509
11
7.31799
21
-2.02887
0
LINE
8
BLACK
6
CONTINUOUS
10
7.31799
20
-2.02887
11
7.32642
21
-2.03404
0
LINE
8
BLACK
6
CONTINUOUS
10
7.32642
20
-2.03404
11
7.33393
21
-2.04046
0
LINE
8
BLACK
6
CONTINUOUS
10
7.33393
20
-2.04046
11
7.34035
21
-2.04797
0
LINE
8
BLACK
6
CONTINUOUS
10
7.34035
20
-2.04797
11
7.34552
21
-2.0564
0
LINE
8
BLACK
6
CONTINUOUS
10
7.34552
20
-2.0564
11
7.3493
21
-2.06553
0
LINE
8
BLACK
6
CONTINUOUS
10
7.3493
20
-2.06553
11
7.35161
21
-2.07515
0
LINE
8
BLACK
6
CONTINUOUS
10
7.35161
20
-2.07515
11
7.35238
21
-2.085
0
LINE
8
BLACK
6
CONTINUOUS
10
7.35238
20
-2.085
11
7.35161
21
-2.09485
0
LINE
8
BLACK
6
CONTINUOUS
10
7.35161
20
-2.09485
11
7.3493
21
-2.10447
0
LINE
8
BLACK
6
CONTINUOUS
10
7.3493
20
-2.10447
11
7.34552
21
-2.1136
0
LINE
8
BLACK
6
CONTINUOUS
10
7.34552
20
-2.1136
11
7.34035
21
-2.12203
0
LINE
8
BLACK
6
CONTINUOUS
10
7.34035
20
-2.12203
11
7.33393
21
-2.12954
0
LINE
8
BLACK
6
CONTINUOUS
10
7.33393
20
-2.12954
11
7.32642
21
-2.13596
0
LINE
8
BLACK
6
CONTINUOUS
10
7.32642
20
-2.13596
11
7.31799
21
-2.14113
0
LINE
8
BLACK
6
CONTINUOUS
10
7.31799
20
-2.14113
11
7.30886
21
-2.14491
0
LINE
8
BLACK
6
CONTINUOUS
10
7.30886
20
-2.14491
11
7.29924
21
-2.14722
0
LINE
8
BLACK
6
CONTINUOUS
10
7.29924
20
-2.14722
11
7.28939
21
-2.14799
0
LINE
8
BLACK
6
CONTINUOUS
10
7.28939
20
-2.14799
11
7.27954
21
-2.14722
0
LINE
8
BLACK
6
CONTINUOUS
10
7.27954
20
-2.14722
11
7.26992
21
-2.14491
0
LINE
8
BLACK
6
CONTINUOUS
10
7.26992
20
-2.14491
11
7.26079
21
-2.14113
0
LINE
8
BLACK
6
CONTINUOUS
10
7.26079
20
-2.14113
11
7.25236
21
-2.13596
0
LINE
8
BLACK
6
CONTINUOUS
10
7.25236
20
-2.13596
11
7.24485
21
-2.12954
0
LINE
8
BLACK
6
CONTINUOUS
10
7.24485
20
-2.12954
11
7.23843
21
-2.12203
0
LINE
8
BLACK
6
CONTINUOUS
10
7.23843
20
-2.12203
11
7.23326
21
-2.1136
0
LINE
8
BLACK
6
CONTINUOUS
10
7.23326
20
-2.1136
11
7.22948
21
-2.10447
0
LINE
8
BLACK
6
CONTINUOUS
10
7.22948
20
-2.10447
11
7.22717
21
-2.09485
0
LINE
8
BLACK
6
CONTINUOUS
10
7.22717
20
-2.09485
11
7.2264
21
-2.085
0
LINE
8
BLACK
6
CONTINUOUS
10
7.2264
20
-2.085
11
7.22717
21
-2.07515
0
LINE
8
BLACK
6
CONTINUOUS
10
7.22717
20
-2.07515
11
7.22948
21
-2.06553
0
LINE
8
BLACK
6
CONTINUOUS
10
7.22948
20
-2.06553
11
7.23326
21
-2.0564
0
LINE
8
BLACK
6
CONTINUOUS
10
7.23326
20
-2.0564
11
7.23843
21
-2.04797
0
LINE
8
BLACK
6
CONTINUOUS
10
7.23843
20
-2.04797
11
7.24485
21
-2.04046
0
LINE
8
BLACK
6
CONTINUOUS
10
7.24485
20
-2.04046
11
7.25236
21
-2.03404
0
LINE
8
BLACK
6
CONTINUOUS
10
7.25236
20
-2.03404
11
7.26079
21
-2.02887
0
LINE
8
BLACK
6
CONTINUOUS
10
7.26079
20
-2.02887
11
7.26992
21
-2.02509
0
LINE
8
BLACK
6
CONTINUOUS
10
7.26992
20
-2.02509
11
7.27954
21
-2.02278
0
LINE
8
BLACK
6
CONTINUOUS
10
7.27954
20
-2.02278
11
7.28939
21
-2.02201
0
LINE
8
BLACK
6
CONTINUOUS
10
7.28939
20
-2.02201
11
7.29924
21
-2.02278
0
LINE
8
BLACK
6
CONTINUOUS
10
7.73833
20
-2.01851
11
7.74472
21
-2.02135
0
LINE
8
BLACK
6
CONTINUOUS
10
7.74472
20
-2.02135
11
7.75038
21
-2.02547
0
LINE
8
BLACK
6
CONTINUOUS
10
7.75038
20
-2.02547
11
7.75507
21
-2.03066
0
LINE
8
BLACK
6
CONTINUOUS
10
7.75507
20
-2.03066
11
7.75856
21
-2.03672
0
LINE
8
BLACK
6
CONTINUOUS
10
7.75856
20
-2.03672
11
7.76073
21
-2.04338
0
LINE
8
BLACK
6
CONTINUOUS
10
7.76073
20
-2.04338
11
7.76146
21
-2.05033
0
LINE
8
BLACK
6
CONTINUOUS
10
7.76146
20
-2.05033
11
7.76073
21
-2.05729
0
LINE
8
BLACK
6
CONTINUOUS
10
7.76073
20
-2.05729
11
7.75856
21
-2.06395
0
LINE
8
BLACK
6
CONTINUOUS
10
7.75856
20
-2.06395
11
7.75507
21
-2.07
0
LINE
8
BLACK
6
CONTINUOUS
10
7.75507
20
-2.07
11
7.75038
21
-2.0752
0
LINE
8
BLACK
6
CONTINUOUS
10
7.75038
20
-2.0752
11
7.74472
21
-2.07932
0
LINE
8
BLACK
6
CONTINUOUS
10
7.74472
20
-2.07932
11
7.73833
21
-2.08216
0
LINE
8
BLACK
6
CONTINUOUS
10
7.73833
20
-2.08216
11
7.73149
21
-2.08362
0
LINE
8
BLACK
6
CONTINUOUS
10
7.73149
20
-2.08362
11
7.72449
21
-2.08362
0
LINE
8
BLACK
6
CONTINUOUS
10
7.72449
20
-2.08362
11
7.71765
21
-2.08216
0
LINE
8
BLACK
6
CONTINUOUS
10
7.71765
20
-2.08216
11
7.71126
21
-2.07932
0
LINE
8
BLACK
6
CONTINUOUS
10
7.71126
20
-2.07932
11
7.7056
21
-2.0752
0
LINE
8
BLACK
6
CONTINUOUS
10
7.7056
20
-2.0752
11
7.70092
21
-2.07
0
LINE
8
BLACK
6
CONTINUOUS
10
7.70092
20
-2.07
11
7.69742
21
-2.06395
0
LINE
8
BLACK
6
CONTINUOUS
10
7.69742
20
-2.06395
11
7.69526
21
-2.05729
0
LINE
8
BLACK
6
CONTINUOUS
10
7.69526
20
-2.05729
11
7.69453
21
-2.05033
0
LINE
8
BLACK
6
CONTINUOUS
10
7.69453
20
-2.05033
11
7.69526
21
-2.04338
0
LINE
8
BLACK
6
CONTINUOUS
10
7.69526
20
-2.04338
11
7.69742
21
-2.03672
0
LINE
8
BLACK
6
CONTINUOUS
10
7.69742
20
-2.03672
11
7.70092
21
-2.03066
0
LINE
8
BLACK
6
CONTINUOUS
10
7.70092
20
-2.03066
11
7.7056
21
-2.02547
0
LINE
8
BLACK
6
CONTINUOUS
10
7.7056
20
-2.02547
11
7.71126
21
-2.02135
0
LINE
8
BLACK
6
CONTINUOUS
10
7.71126
20
-2.02135
11
7.71765
21
-2.01851
0
LINE
8
BLACK
6
CONTINUOUS
10
7.71765
20
-2.01851
11
7.72449
21
-2.01705
0
LINE
8
BLACK
6
CONTINUOUS
10
7.72449
20
-2.01705
11
7.73149
21
-2.01705
0
LINE
8
BLACK
6
CONTINUOUS
10
7.73149
20
-2.01705
11
7.73833
21
-2.01851
0
LINE
8
BLACK
6
CONTINUOUS
10
8.63833
20
-2.01851
11
8.64472
21
-2.02135
0
LINE
8
BLACK
6
CONTINUOUS
10
8.64472
20
-2.02135
11
8.65038
21
-2.02547
0
LINE
8
BLACK
6
CONTINUOUS
10
8.65038
20
-2.02547
11
8.65507
21
-2.03066
0
LINE
8
BLACK
6
CONTINUOUS
10
8.65507
20
-2.03066
11
8.65856
21
-2.03672
0
LINE
8
BLACK
6
CONTINUOUS
10
8.65856
20
-2.03672
11
8.66073
21
-2.04338
0
LINE
8
BLACK
6
CONTINUOUS
10
8.66073
20
-2.04338
11
8.66146
21
-2.05033
0
LINE
8
BLACK
6
CONTINUOUS
10
8.66146
20
-2.05033
11
8.66073
21
-2.05729
0
LINE
8
BLACK
6
CONTINUOUS
10
8.66073
20
-2.05729
11
8.65856
21
-2.06395
0
LINE
8
BLACK
6
CONTINUOUS
10
8.65856
20
-2.06395
11
8.65507
21
-2.07
0
LINE
8
BLACK
6
CONTINUOUS
10
8.65507
20
-2.07
11
8.65038
21
-2.0752
0
LINE
8
BLACK
6
CONTINUOUS
10
8.65038
20
-2.0752
11
8.64472
21
-2.07932
0
LINE
8
BLACK
6
CONTINUOUS
10
8.64472
20
-2.07932
11
8.63833
21
-2.08216
0
LINE
8
BLACK
6
CONTINUOUS
10
8.63833
20
-2.08216
11
8.63149
21
-2.08362
0
LINE
8
BLACK
6
CONTINUOUS
10
8.63149
20
-2.08362
11
8.62449
21
-2.08362
0
LINE
8
BLACK
6
CONTINUOUS
10
8.62449
20
-2.08362
11
8.61765
21
-2.08216
0
LINE
8
BLACK
6
CONTINUOUS
10
8.61765
20
-2.08216
11
8.61126
21
-2.07932
0
LINE
8
BLACK
6
CONTINUOUS
10
8.61126
20
-2.07932
11
8.6056
21
-2.0752
0
LINE
8
BLACK
6
CONTINUOUS
10
8.6056
20
-2.0752
11
8.60092
21
-2.07
0
LINE
8
BLACK
6
CONTINUOUS
10
8.60092
20
-2.07
11
8.59742
21
-2.06395
0
LINE
8
BLACK
6
CONTINUOUS
10
8.59742
20
-2.06395
11
8.59526
21
-2.05729
0
LINE
8
BLACK
6
CONTINUOUS
10
8.59526
20
-2.05729
11
8.59453
21
-2.05033
0
LINE
8
BLACK
6
CONTINUOUS
10
8.59453
20
-2.05033
11
8.59526
21
-2.04338
0
LINE
8
BLACK
6
CONTINUOUS
10
8.59526
20
-2.04338
11
8.59742
21
-2.03672
0
LINE
8
BLACK
6
CONTINUOUS
10
8.59742
20
-2.03672
11
8.60092
21
-2.03066
0
LINE
8
BLACK
6
CONTINUOUS
10
8.60092
20
-2.03066
11
8.6056
21
-2.02547
0
LINE
8
BLACK
6
CONTINUOUS
10
8.6056
20
-2.02547
11
8.61126
21
-2.02135
0
LINE
8
BLACK
6
CONTINUOUS
10
8.61126
20
-2.02135
11
8.61765
21
-2.01851
0
LINE
8
BLACK
6
CONTINUOUS
10
8.61765
20
-2.01851
11
8.62449
21
-2.01705
0
LINE
8
BLACK
6
CONTINUOUS
10
8.62449
20
-2.01705
11
8.63149
21
-2.01705
0
LINE
8
BLACK
6
CONTINUOUS
10
8.63149
20
-2.01705
11
8.63833
21
-2.01851
0
LINE
8
BLACK
6
CONTINUOUS
10
7.73833
20
-1.91851
11
7.74472
21
-1.92135
0
LINE
8
BLACK
6
CONTINUOUS
10
7.74472
20
-1.92135
11
7.75038
21
-1.92547
0
LINE
8
BLACK
6
CONTINUOUS
10
7.75038
20
-1.92547
11
7.75507
21
-1.93066
0
LINE
8
BLACK
6
CONTINUOUS
10
7.75507
20
-1.93066
11
7.75856
21
-1.93672
0
LINE
8
BLACK
6
CONTINUOUS
10
7.75856
20
-1.93672
11
7.76073
21
-1.94338
0
LINE
8
BLACK
6
CONTINUOUS
10
7.76073
20
-1.94338
11
7.76146
21
-1.95033
0
LINE
8
BLACK
6
CONTINUOUS
10
7.76146
20
-1.95033
11
7.76073
21
-1.95729
0
LINE
8
BLACK
6
CONTINUOUS
10
7.76073
20
-1.95729
11
7.75856
21
-1.96395
0
LINE
8
BLACK
6
CONTINUOUS
10
7.75856
20
-1.96395
11
7.75507
21
-1.97
0
LINE
8
BLACK
6
CONTINUOUS
10
7.75507
20
-1.97
11
7.75038
21
-1.9752
0
LINE
8
BLACK
6
CONTINUOUS
10
7.75038
20
-1.9752
11
7.74472
21
-1.97932
0
LINE
8
BLACK
6
CONTINUOUS
10
7.74472
20
-1.97932
11
7.73833
21
-1.98216
0
LINE
8
BLACK
6
CONTINUOUS
10
7.73833
20
-1.98216
11
7.73149
21
-1.98362
0
LINE
8
BLACK
6
CONTINUOUS
10
7.73149
20
-1.98362
11
7.72449
21
-1.98362
0
LINE
8
BLACK
6
CONTINUOUS
10
7.72449
20
-1.98362
11
7.71765
21
-1.98216
0
LINE
8
BLACK
6
CONTINUOUS
10
7.71765
20
-1.98216
11
7.71126
21
-1.97932
0
LINE
8
BLACK
6
CONTINUOUS
10
7.71126
20
-1.97932
11
7.7056
21
-1.9752
0
LINE
8
BLACK
6
CONTINUOUS
10
7.7056
20
-1.9752
11
7.70092
21
-1.97
0
LINE
8
BLACK
6
CONTINUOUS
10
7.70092
20
-1.97
11
7.69742
21
-1.96395
0
LINE
8
BLACK
6
CONTINUOUS
10
7.69742
20
-1.96395
11
7.69526
21
-1.95729
0
LINE
8
BLACK
6
CONTINUOUS
10
7.69526
20
-1.95729
11
7.69453
21
-1.95033
0
LINE
8
BLACK
6
CONTINUOUS
10
7.69453
20
-1.95033
11
7.69526
21
-1.94338
0
LINE
8
BLACK
6
CONTINUOUS
10
7.69526
20
-1.94338
11
7.69742
21
-1.93672
0
LINE
8
BLACK
6
CONTINUOUS
10
7.69742
20
-1.93672
11
7.70092
21
-1.93066
0
LINE
8
BLACK
6
CONTINUOUS
10
7.70092
20
-1.93066
11
7.7056
21
-1.92547
0
LINE
8
BLACK
6
CONTINUOUS
10
7.7056
20
-1.92547
11
7.71126
21
-1.92135
0
LINE
8
BLACK
6
CONTINUOUS
10
7.71126
20
-1.92135
11
7.71765
21
-1.91851
0
LINE
8
BLACK
6
CONTINUOUS
10
7.71765
20
-1.91851
11
7.72449
21
-1.91705
0
LINE
8
BLACK
6
CONTINUOUS
10
7.72449
20
-1.91705
11
7.73149
21
-1.91705
0
LINE
8
BLACK
6
CONTINUOUS
10
7.73149
20
-1.91705
11
7.73833
21
-1.91851
0
LINE
8
BLACK
6
CONTINUOUS
10
8.63833
20
-1.91851
11
8.64472
21
-1.92135
0
LINE
8
BLACK
6
CONTINUOUS
10
8.64472
20
-1.92135
11
8.65038
21
-1.92547
0
LINE
8
BLACK
6
CONTINUOUS
10
8.65038
20
-1.92547
11
8.65507
21
-1.93066
0
LINE
8
BLACK
6
CONTINUOUS
10
8.65507
20
-1.93066
11
8.65856
21
-1.93672
0
LINE
8
BLACK
6
CONTINUOUS
10
8.65856
20
-1.93672
11
8.66073
21
-1.94338
0
LINE
8
BLACK
6
CONTINUOUS
10
8.66073
20
-1.94338
11
8.66146
21
-1.95033
0
LINE
8
BLACK
6
CONTINUOUS
10
8.66146
20
-1.95033
11
8.66073
21
-1.95729
0
LINE
8
BLACK
6
CONTINUOUS
10
8.66073
20
-1.95729
11
8.65856
21
-1.96395
0
LINE
8
BLACK
6
CONTINUOUS
10
8.65856
20
-1.96395
11
8.65507
21
-1.97
0
LINE
8
BLACK
6
CONTINUOUS
10
8.65507
20
-1.97
11
8.65038
21
-1.9752
0
LINE
8
BLACK
6
CONTINUOUS
10
8.65038
20
-1.9752
11
8.64472
21
-1.97932
0
LINE
8
BLACK
6
CONTINUOUS
10
8.64472
20
-1.97932
11
8.63833
21
-1.98216
0
LINE
8
BLACK
6
CONTINUOUS
10
8.63833
20
-1.98216
11
8.63149
21
-1.98362
0
LINE
8
BLACK
6
CONTINUOUS
10
8.63149
20
-1.98362
11
8.62449
21
-1.98362
0
LINE
8
BLACK
6
CONTINUOUS
10
8.62449
20
-1.98362
11
8.61765
21
-1.98216
0
LINE
8
BLACK
6
CONTINUOUS
10
8.61765
20
-1.98216
11
8.61126
21
-1.97932
0
LINE
8
BLACK
6
CONTINUOUS
10
8.61126
20
-1.97932
11
8.6056
21
-1.9752
0
LINE
8
BLACK
6
CONTINUOUS
10
8.6056
20
-1.9752
11
8.60092
21
-1.97
0
LINE
8
BLACK
6
CONTINUOUS
10
8.60092
20
-1.97
11
8.59742
21
-1.96395
0
LINE
8
BLACK
6
CONTINUOUS
10
8.59742
20
-1.96395
11
8.59526
21
-1.95729
0
LINE
8
BLACK
6
CONTINUOUS
10
8.59526
20
-1.95729
11
8.59453
21
-1.95033
0
LINE
8
BLACK
6
CONTINUOUS
10
8.59453
20
-1.95033
11
8.59526
21
-1.94338
0
LINE
8
BLACK
6
CONTINUOUS
10
8.59526
20
-1.94338
11
8.59742
21
-1.93672
0
LINE
8
BLACK
6
CONTINUOUS
10
8.59742
20
-1.93672
11
8.60092
21
-1.93066
0
LINE
8
BLACK
6
CONTINUOUS
10
8.60092
20
-1.93066
11
8.6056
21
-1.92547
0
LINE
8
BLACK
6
CONTINUOUS
10
8.6056
20
-1.92547
11
8.61126
21
-1.92135
0
LINE
8
BLACK
6
CONTINUOUS
10
8.61126
20
-1.92135
11
8.61765
21
-1.91851
0
LINE
8
BLACK
6
CONTINUOUS
10
8.61765
20
-1.91851
11
8.62449
21
-1.91705
0
LINE
8
BLACK
6
CONTINUOUS
10
8.62449
20
-1.91705
11
8.63149
21
-1.91705
0
LINE
8
BLACK
6
CONTINUOUS
10
8.63149
20
-1.91705
11
8.63833
21
-1.91851
0
LINE
8
BLACK
6
CONTINUOUS
10
7.73833
20
-1.81851
11
7.74472
21
-1.82135
0
LINE
8
BLACK
6
CONTINUOUS
10
7.74472
20
-1.82135
11
7.75038
21
-1.82547
0
LINE
8
BLACK
6
CONTINUOUS
10
7.75038
20
-1.82547
11
7.75507
21
-1.83066
0
LINE
8
BLACK
6
CONTINUOUS
10
7.75507
20
-1.83066
11
7.75856
21
-1.83672
0
LINE
8
BLACK
6
CONTINUOUS
10
7.75856
20
-1.83672
11
7.76073
21
-1.84338
0
LINE
8
BLACK
6
CONTINUOUS
10
7.76073
20
-1.84338
11
7.76146
21
-1.85033
0
LINE
8
BLACK
6
CONTINUOUS
10
7.76146
20
-1.85033
11
7.76073
21
-1.85729
0
LINE
8
BLACK
6
CONTINUOUS
10
7.76073
20
-1.85729
11
7.75856
21
-1.86395
0
LINE
8
BLACK
6
CONTINUOUS
10
7.75856
20
-1.86395
11
7.75507
21
-1.87
0
LINE
8
BLACK
6
CONTINUOUS
10
7.75507
20
-1.87
11
7.75038
21
-1.8752
0
LINE
8
BLACK
6
CONTINUOUS
10
7.75038
20
-1.8752
11
7.74472
21
-1.87932
0
LINE
8
BLACK
6
CONTINUOUS
10
7.74472
20
-1.87932
11
7.73833
21
-1.88216
0
LINE
8
BLACK
6
CONTINUOUS
10
7.73833
20
-1.88216
11
7.73149
21
-1.88362
0
LINE
8
BLACK
6
CONTINUOUS
10
7.73149
20
-1.88362
11
7.72449
21
-1.88362
0
LINE
8
BLACK
6
CONTINUOUS
10
7.72449
20
-1.88362
11
7.71765
21
-1.88216
0
LINE
8
BLACK
6
CONTINUOUS
10
7.71765
20
-1.88216
11
7.71126
21
-1.87932
0
LINE
8
BLACK
6
CONTINUOUS
10
7.71126
20
-1.87932
11
7.7056
21
-1.8752
0
LINE
8
BLACK
6
CONTINUOUS
10
7.7056
20
-1.8752
11
7.70092
21
-1.87
0
LINE
8
BLACK
6
CONTINUOUS
10
7.70092
20
-1.87
11
7.69742
21
-1.86395
0
LINE
8
BLACK
6
CONTINUOUS
10
7.69742
20
-1.86395
11
7.69526
21
-1.85729
0
LINE
8
BLACK
6
CONTINUOUS
10
7.69526
20
-1.85729
11
7.69453
21
-1.85033
0
LINE
8
BLACK
6
CONTINUOUS
10
7.69453
20
-1.85033
11
7.69526
21
-1.84338
0
LINE
8
BLACK
6
CONTINUOUS
10
7.69526
20
-1.84338
11
7.69742
21
-1.83672
0
LINE
8
BLACK
6
CONTINUOUS
10
7.69742
20
-1.83672
11
7.70092
21
-1.83066
0
LINE
8
BLACK
6
CONTINUOUS
10
7.70092
20
-1.83066
11
7.7056
21
-1.82547
0
LINE
8
BLACK
6
CONTINUOUS
10
7.7056
20
-1.82547
11
7.71126
21
-1.82135
0
LINE
8
BLACK
6
CONTINUOUS
10
7.71126
20
-1.82135
11
7.71765
21
-1.81851
0
LINE
8
BLACK
6
CONTINUOUS
10
7.71765
20
-1.81851
11
7.72449
21
-1.81705
0
LINE
8
BLACK
6
CONTINUOUS
10
7.72449
20
-1.81705
11
7.73149
21
-1.81705
0
LINE
8
BLACK
6
CONTINUOUS
10
7.73149
20
-1.81705
11
7.73833
21
-1.81851
0
LINE
8
BLACK
6
CONTINUOUS
10
8.63833
20
-1.81851
11
8.64472
21
-1.82135
0
LINE
8
BLACK
6
CONTINUOUS
10
8.64472
20
-1.82135
11
8.65038
21
-1.82547
0
LINE
8
BLACK
6
CONTINUOUS
10
8.65038
20
-1.82547
11
8.65507
21
-1.83066
0
LINE
8
BLACK
6
CONTINUOUS
10
8.65507
20
-1.83066
11
8.65856
21
-1.83672
0
LINE
8
BLACK
6
CONTINUOUS
10
8.65856
20
-1.83672
11
8.66073
21
-1.84338
0
LINE
8
BLACK
6
CONTINUOUS
10
8.66073
20
-1.84338
11
8.66146
21
-1.85033
0
LINE
8
BLACK
6
CONTINUOUS
10
8.66146
20
-1.85033
11
8.66073
21
-1.85729
0
LINE
8
BLACK
6
CONTINUOUS
10
8.66073
20
-1.85729
11
8.65856
21
-1.86395
0
LINE
8
BLACK
6
CONTINUOUS
10
8.65856
20
-1.86395
11
8.65507
21
-1.87
0
LINE
8
BLACK
6
CONTINUOUS
10
8.65507
20
-1.87
11
8.65038
21
-1.8752
0
LINE
8
BLACK
6
CONTINUOUS
10
8.65038
20
-1.8752
11
8.64472
21
-1.87932
0
LINE
8
BLACK
6
CONTINUOUS
10
8.64472
20
-1.87932
11
8.63833
21
-1.88216
0
LINE
8
BLACK
6
CONTINUOUS
10
8.63833
20
-1.88216
11
8.63149
21
-1.88362
0
LINE
8
BLACK
6
CONTINUOUS
10
8.63149
20
-1.88362
11
8.62449
21
-1.88362
0
LINE
8
BLACK
6
CONTINUOUS
10
8.62449
20
-1.88362
11
8.61765
21
-1.88216
0
LINE
8
BLACK
6
CONTINUOUS
10
8.61765
20
-1.88216
11
8.61126
21
-1.87932
0
LINE
8
BLACK
6
CONTINUOUS
10
8.61126
20
-1.87932
11
8.6056
21
-1.8752
0
LINE
8
BLACK
6
CONTINUOUS
10
8.6056
20
-1.8752
11
8.60092
21
-1.87
0
LINE
8
BLACK
6
CONTINUOUS
10
8.60092
20
-1.87
11
8.59742
21
-1.86395
0
LINE
8
BLACK
6
CONTINUOUS
10
8.59742
20
-1.86395
11
8.59526
21
-1.85729
0
LINE
8
BLACK
6
CONTINUOUS
10
8.59526
20
-1.85729
11
8.59453
21
-1.85033
0
LINE
8
BLACK
6
CONTINUOUS
10
8.59453
20
-1.85033
11
8.59526
21
-1.84338
0
LINE
8
BLACK
6
CONTINUOUS
10
8.59526
20
-1.84338
11
8.59742
21
-1.83672
0
LINE
8
BLACK
6
CONTINUOUS
10
8.59742
20
-1.83672
11
8.60092
21
-1.83066
0
LINE
8
BLACK
6
CONTINUOUS
10
8.60092
20
-1.83066
11
8.6056
21
-1.82547
0
LINE
8
BLACK
6
CONTINUOUS
10
8.6056
20
-1.82547
11
8.61126
21
-1.82135
0
LINE
8
BLACK
6
CONTINUOUS
10
8.61126
20
-1.82135
11
8.61765
21
-1.81851
0
LINE
8
BLACK
6
CONTINUOUS
10
8.61765
20
-1.81851
11
8.62449
21
-1.81705
0
LINE
8
BLACK
6
CONTINUOUS
10
8.62449
20
-1.81705
11
8.63149
21
-1.81705
0
LINE
8
BLACK
6
CONTINUOUS
10
8.63149
20
-1.81705
11
8.63833
21
-1.81851
0
LINE
8
BLACK
6
CONTINUOUS
10
3.14849
20
-1.73146
11
3.15572
21
-1.73325
0
LINE
8
BLACK
6
CONTINUOUS
10
3.15572
20
-1.73325
11
3.16239
21
-1.73656
0
LINE
8
BLACK
6
CONTINUOUS
10
3.16239
20
-1.73656
11
3.1682
21
-1.74123
0
LINE
8
BLACK
6
CONTINUOUS
10
3.1682
20
-1.74123
11
3.17286
21
-1.74704
0
LINE
8
BLACK
6
CONTINUOUS
10
3.17286
20
-1.74704
11
3.17617
21
-1.75371
0
LINE
8
BLACK
6
CONTINUOUS
10
3.17617
20
-1.75371
11
3.17797
21
-1.76094
0
LINE
8
BLACK
6
CONTINUOUS
10
3.17797
20
-1.76094
11
3.17829
21
-1.76559
0
LINE
8
BLACK
6
CONTINUOUS
10
3.17829
20
-1.76559
11
3.17829
21
-1.83449
0
LINE
8
BLACK
6
CONTINUOUS
10
3.17829
20
-1.83449
11
3.17797
21
-1.83914
0
LINE
8
BLACK
6
CONTINUOUS
10
3.17797
20
-1.83914
11
3.17617
21
-1.84637
0
LINE
8
BLACK
6
CONTINUOUS
10
3.17617
20
-1.84637
11
3.17286
21
-1.85304
0
LINE
8
BLACK
6
CONTINUOUS
10
3.17286
20
-1.85304
11
3.1682
21
-1.85885
0
LINE
8
BLACK
6
CONTINUOUS
10
3.1682
20
-1.85885
11
3.16239
21
-1.86351
0
LINE
8
BLACK
6
CONTINUOUS
10
3.16239
20
-1.86351
11
3.15572
21
-1.86682
0
LINE
8
BLACK
6
CONTINUOUS
10
3.15572
20
-1.86682
11
3.14849
21
-1.86862
0
LINE
8
BLACK
6
CONTINUOUS
10
3.14849
20
-1.86862
11
3.14384
21
-1.86894
0
LINE
8
BLACK
6
CONTINUOUS
10
3.14384
20
-1.86894
11
3.07494
21
-1.86894
0
LINE
8
BLACK
6
CONTINUOUS
10
3.07494
20
-1.86894
11
3.07029
21
-1.86862
0
LINE
8
BLACK
6
CONTINUOUS
10
3.07029
20
-1.86862
11
3.06306
21
-1.86682
0
LINE
8
BLACK
6
CONTINUOUS
10
3.06306
20
-1.86682
11
3.05639
21
-1.86351
0
LINE
8
BLACK
6
CONTINUOUS
10
3.05639
20
-1.86351
11
3.05058
21
-1.85885
0
LINE
8
BLACK
6
CONTINUOUS
10
3.05058
20
-1.85885
11
3.04591
21
-1.85304
0
LINE
8
BLACK
6
CONTINUOUS
10
3.04591
20
-1.85304
11
3.04261
21
-1.84637
0
LINE
8
BLACK
6
CONTINUOUS
10
3.04261
20
-1.84637
11
3.04081
21
-1.83914
0
LINE
8
BLACK
6
CONTINUOUS
10
3.04081
20
-1.83914
11
3.04049
21
-1.83449
0
LINE
8
BLACK
6
CONTINUOUS
10
3.04049
20
-1.83449
11
3.04049
21
-1.76559
0
LINE
8
BLACK
6
CONTINUOUS
10
3.04049
20
-1.76559
11
3.04081
21
-1.76094
0
LINE
8
BLACK
6
CONTINUOUS
10
3.04081
20
-1.76094
11
3.04261
21
-1.75371
0
LINE
8
BLACK
6
CONTINUOUS
10
3.04261
20
-1.75371
11
3.04591
21
-1.74704
0
LINE
8
BLACK
6
CONTINUOUS
10
3.04591
20
-1.74704
11
3.05058
21
-1.74123
0
LINE
8
BLACK
6
CONTINUOUS
10
3.05058
20
-1.74123
11
3.05639
21
-1.73656
0
LINE
8
BLACK
6
CONTINUOUS
10
3.05639
20
-1.73656
11
3.06306
21
-1.73325
0
LINE
8
BLACK
6
CONTINUOUS
10
3.06306
20
-1.73325
11
3.07029
21
-1.73146
0
LINE
8
BLACK
6
CONTINUOUS
10
3.07029
20
-1.73146
11
3.07494
21
-1.73114
0
LINE
8
BLACK
6
CONTINUOUS
10
3.07494
20
-1.73114
11
3.14384
21
-1.73114
0
LINE
8
BLACK
6
CONTINUOUS
10
3.14384
20
-1.73114
11
3.14849
21
-1.73146
0
LINE
8
BLACK
6
CONTINUOUS
10
7.73833
20
-1.71851
11
7.74472
21
-1.72135
0
LINE
8
BLACK
6
CONTINUOUS
10
7.74472
20
-1.72135
11
7.75038
21
-1.72547
0
LINE
8
BLACK
6
CONTINUOUS
10
7.75038
20
-1.72547
11
7.75507
21
-1.73066
0
LINE
8
BLACK
6
CONTINUOUS
10
7.75507
20
-1.73066
11
7.75856
21
-1.73672
0
LINE
8
BLACK
6
CONTINUOUS
10
7.75856
20
-1.73672
11
7.76073
21
-1.74338
0
LINE
8
BLACK
6
CONTINUOUS
10
7.76073
20
-1.74338
11
7.76146
21
-1.75033
0
LINE
8
BLACK
6
CONTINUOUS
10
7.76146
20
-1.75033
11
7.76073
21
-1.75729
0
LINE
8
BLACK
6
CONTINUOUS
10
7.76073
20
-1.75729
11
7.75856
21
-1.76395
0
LINE
8
BLACK
6
CONTINUOUS
10
7.75856
20
-1.76395
11
7.75507
21
-1.77
0
LINE
8
BLACK
6
CONTINUOUS
10
7.75507
20
-1.77
11
7.75038
21
-1.7752
0
LINE
8
BLACK
6
CONTINUOUS
10
7.75038
20
-1.7752
11
7.74472
21
-1.77932
0
LINE
8
BLACK
6
CONTINUOUS
10
7.74472
20
-1.77932
11
7.73833
21
-1.78216
0
LINE
8
BLACK
6
CONTINUOUS
10
7.73833
20
-1.78216
11
7.73149
21
-1.78362
0
LINE
8
BLACK
6
CONTINUOUS
10
7.73149
20
-1.78362
11
7.72449
21
-1.78362
0
LINE
8
BLACK
6
CONTINUOUS
10
7.72449
20
-1.78362
11
7.71765
21
-1.78216
0
LINE
8
BLACK
6
CONTINUOUS
10
7.71765
20
-1.78216
11
7.71126
21
-1.77932
0
LINE
8
BLACK
6
CONTINUOUS
10
7.71126
20
-1.77932
11
7.7056
21
-1.7752
0
LINE
8
BLACK
6
CONTINUOUS
10
7.7056
20
-1.7752
11
7.70092
21
-1.77
0
LINE
8
BLACK
6
CONTINUOUS
10
7.70092
20
-1.77
11
7.69742
21
-1.76395
0
LINE
8
BLACK
6
CONTINUOUS
10
7.69742
20
-1.76395
11
7.69526
21
-1.75729
0
LINE
8
BLACK
6
CONTINUOUS
10
7.69526
20
-1.75729
11
7.69453
21
-1.75033
0
LINE
8
BLACK
6
CONTINUOUS
10
7.69453
20
-1.75033
11
7.69526
21
-1.74338
0
LINE
8
BLACK
6
CONTINUOUS
10
7.69526
20
-1.74338
11
7.69742
21
-1.73672
0
LINE
8
BLACK
6
CONTINUOUS
10
7.69742
20
-1.73672
11
7.70092
21
-1.73066
0
LINE
8
BLACK
6
CONTINUOUS
10
7.70092
20
-1.73066
11
7.7056
21
-1.72547
0
LINE
8
BLACK
6
CONTINUOUS
10
7.7056
20
-1.72547
11
7.71126
21
-1.72135
0
LINE
8
BLACK
6
CONTINUOUS
10
7.71126
20
-1.72135
11
7.71765
21
-1.71851
0
LINE
8
BLACK
6
CONTINUOUS
10
7.71765
20
-1.71851
11
7.72449
21
-1.71705
0
LINE
8
BLACK
6
CONTINUOUS
10
7.72449
20
-1.71705
11
7.73149
21
-1.71705
0
LINE
8
BLACK
6
CONTINUOUS
10
7.73149
20
-1.71705
11
7.73833
21
-1.71851
0
LINE
8
BLACK
6
CONTINUOUS
10
8.63833
20
-1.71851
11
8.64472
21
-1.72135
0
LINE
8
BLACK
6
CONTINUOUS
10
8.64472
20
-1.72135
11
8.65038
21
-1.72547
0
LINE
8
BLACK
6
CONTINUOUS
10
8.65038
20
-1.72547
11
8.65507
21
-1.73066
0
LINE
8
BLACK
6
CONTINUOUS
10
8.65507
20
-1.73066
11
8.65856
21
-1.73672
0
LINE
8
BLACK
6
CONTINUOUS
10
8.65856
20
-1.73672
11
8.66073
21
-1.74338
0
LINE
8
BLACK
6
CONTINUOUS
10
8.66073
20
-1.74338
11
8.66146
21
-1.75033
0
LINE
8
BLACK
6
CONTINUOUS
10
8.66146
20
-1.75033
11
8.66073
21
-1.75729
0
LINE
8
BLACK
6
CONTINUOUS
10
8.66073
20
-1.75729
11
8.65856
21
-1.76395
0
LINE
8
BLACK
6
CONTINUOUS
10
8.65856
20
-1.76395
11
8.65507
21
-1.77
0
LINE
8
BLACK
6
CONTINUOUS
10
8.65507
20
-1.77
11
8.65038
21
-1.7752
0
LINE
8
BLACK
6
CONTINUOUS
10
8.65038
20
-1.7752
11
8.64472
21
-1.77932
0
LINE
8
BLACK
6
CONTINUOUS
10
8.64472
20
-1.77932
11
8.63833
21
-1.78216
0
LINE
8
BLACK
6
CONTINUOUS
10
8.63833
20
-1.78216
11
8.63149
21
-1.78362
0
LINE
8
BLACK
6
CONTINUOUS
10
8.63149
20
-1.78362
11
8.62449
21
-1.78362
0
LINE
8
BLACK
6
CONTINUOUS
10
8.62449
20
-1.78362
11
8.61765
21
-1.78216
0
LINE
8
BLACK
6
CONTINUOUS
10
8.61765
20
-1.78216
11
8.61126
21
-1.77932
0
LINE
8
BLACK
6
CONTINUOUS
10
8.61126
20
-1.77932
11
8.6056
21
-1.7752
0
LINE
8
BLACK
6
CONTINUOUS
10
8.6056
20
-1.7752
11
8.60092
21
-1.77
0
LINE
8
BLACK
6
CONTINUOUS
10
8.60092
20
-1.77
11
8.59742
21
-1.76395
0
LINE
8
BLACK
6
CONTINUOUS
10
8.59742
20
-1.76395
11
8.59526
21
-1.75729
0
LINE
8
BLACK
6
CONTINUOUS
10
8.59526
20
-1.75729
11
8.59453
21
-1.75033
0
LINE
8
BLACK
6
CONTINUOUS
10
8.59453
20
-1.75033
11
8.59526
21
-1.74338
0
LINE
8
BLACK
6
CONTINUOUS
10
8.59526
20
-1.74338
11
8.59742
21
-1.73672
0
LINE
8
BLACK
6
CONTINUOUS
10
8.59742
20
-1.73672
11
8.60092
21
-1.73066
0
LINE
8
BLACK
6
CONTINUOUS
10
8.60092
20
-1.73066
11
8.6056
21
-1.72547
0
LINE
8
BLACK
6
CONTINUOUS
10
8.6056
20
-1.72547
11
8.61126
21
-1.72135
0
LINE
8
BLACK
6
CONTINUOUS
10
8.61126
20
-1.72135
11
8.61765
21
-1.71851
0
LINE
8
BLACK
6
CONTINUOUS
10
8.61765
20
-1.71851
11
8.62449
21
-1.71705
0
LINE
8
BLACK
6
CONTINUOUS
10
8.62449
20
-1.71705
11
8.63149
21
-1.71705
0
LINE
8
BLACK
6
CONTINUOUS
10
8.63149
20
-1.71705
11
8.63833
21
-1.71851
0
LINE
8
BLACK
6
CONTINUOUS
10
3.02678
20
-1.54671
11
3.03329
21
-1.54887
0
LINE
8
BLACK
6
CONTINUOUS
10
3.03329
20
-1.54887
11
3.03912
21
-1.55247
0
LINE
8
BLACK
6
CONTINUOUS
10
3.03912
20
-1.55247
11
3.04397
21
-1.55732
0
LINE
8
BLACK
6
CONTINUOUS
10
3.04397
20
-1.55732
11
3.04757
21
-1.56315
0
LINE
8
BLACK
6
CONTINUOUS
10
3.04757
20
-1.56315
11
3.04972
21
-1.56966
0
LINE
8
BLACK
6
CONTINUOUS
10
3.04972
20
-1.56966
11
3.05033
21
-1.57563
0
LINE
8
BLACK
6
CONTINUOUS
10
3.05033
20
-1.57563
11
3.05033
21
-1.65437
0
LINE
8
BLACK
6
CONTINUOUS
10
3.05033
20
-1.65437
11
3.04972
21
-1.66034
0
LINE
8
BLACK
6
CONTINUOUS
10
3.04972
20
-1.66034
11
3.04757
21
-1.66685
0
LINE
8
BLACK
6
CONTINUOUS
10
3.04757
20
-1.66685
11
3.04397
21
-1.67268
0
LINE
8
BLACK
6
CONTINUOUS
10
3.04397
20
-1.67268
11
3.03912
21
-1.67753
0
LINE
8
BLACK
6
CONTINUOUS
10
3.03912
20
-1.67753
11
3.03329
21
-1.68113
0
LINE
8
BLACK
6
CONTINUOUS
10
3.03329
20
-1.68113
11
3.02678
21
-1.68329
0
LINE
8
BLACK
6
CONTINUOUS
10
3.02678
20
-1.68329
11
3.02081
21
-1.6839
0
LINE
8
BLACK
6
CONTINUOUS
10
3.02081
20
-1.6839
11
2.96175
21
-1.6839
0
LINE
8
BLACK
6
CONTINUOUS
10
2.96175
20
-1.6839
11
2.95578
21
-1.68329
0
LINE
8
BLACK
6
CONTINUOUS
10
2.95578
20
-1.68329
11
2.94927
21
-1.68113
0
LINE
8
BLACK
6
CONTINUOUS
10
2.94927
20
-1.68113
11
2.94344
21
-1.67753
0
LINE
8
BLACK
6
CONTINUOUS
10
2.94344
20
-1.67753
11
2.93859
21
-1.67268
0
LINE
8
BLACK
6
CONTINUOUS
10
2.93859
20
-1.67268
11
2.93499
21
-1.66685
0
LINE
8
BLACK
6
CONTINUOUS
10
2.93499
20
-1.66685
11
2.93283
21
-1.66034
0
LINE
8
BLACK
6
CONTINUOUS
10
2.93283
20
-1.66034
11
2.93222
21
-1.65437
0
LINE
8
BLACK
6
CONTINUOUS
10
2.93222
20
-1.65437
11
2.93222
21
-1.57563
0
LINE
8
BLACK
6
CONTINUOUS
10
2.93222
20
-1.57563
11
2.93283
21
-1.56966
0
LINE
8
BLACK
6
CONTINUOUS
10
2.93283
20
-1.56966
11
2.93499
21
-1.56315
0
LINE
8
BLACK
6
CONTINUOUS
10
2.93499
20
-1.56315
11
2.93859
21
-1.55732
0
LINE
8
BLACK
6
CONTINUOUS
10
2.93859
20
-1.55732
11
2.94344
21
-1.55247
0
LINE
8
BLACK
6
CONTINUOUS
10
2.94344
20
-1.55247
11
2.94927
21
-1.54887
0
LINE
8
BLACK
6
CONTINUOUS
10
2.94927
20
-1.54887
11
2.95578
21
-1.54671
0
LINE
8
BLACK
6
CONTINUOUS
10
2.95578
20
-1.54671
11
2.96175
21
-1.5461
0
LINE
8
BLACK
6
CONTINUOUS
10
2.96175
20
-1.5461
11
3.02081
21
-1.5461
0
LINE
8
BLACK
6
CONTINUOUS
10
3.02081
20
-1.5461
11
3.02678
21
-1.54671
0
LINE
8
BLACK
6
CONTINUOUS
10
3.2964
20
-1.6839
11
3.1586
21
-1.6839
0
LINE
8
BLACK
6
CONTINUOUS
10
3.1586
20
-1.6839
11
3.1586
21
-1.5461
0
LINE
8
BLACK
6
CONTINUOUS
10
3.1586
20
-1.5461
11
3.2964
21
-1.5461
0
LINE
8
BLACK
6
CONTINUOUS
10
3.2964
20
-1.5461
11
3.2964
21
-1.6839
0
LINE
8
BLACK
6
CONTINUOUS
10
7.73833
20
-1.61851
11
7.74472
21
-1.62135
0
LINE
8
BLACK
6
CONTINUOUS
10
7.74472
20
-1.62135
11
7.75038
21
-1.62547
0
LINE
8
BLACK
6
CONTINUOUS
10
7.75038
20
-1.62547
11
7.75507
21
-1.63066
0
LINE
8
BLACK
6
CONTINUOUS
10
7.75507
20
-1.63066
11
7.75856
21
-1.63672
0
LINE
8
BLACK
6
CONTINUOUS
10
7.75856
20
-1.63672
11
7.76073
21
-1.64338
0
LINE
8
BLACK
6
CONTINUOUS
10
7.76073
20
-1.64338
11
7.76146
21
-1.65033
0
LINE
8
BLACK
6
CONTINUOUS
10
7.76146
20
-1.65033
11
7.76073
21
-1.65729
0
LINE
8
BLACK
6
CONTINUOUS
10
7.76073
20
-1.65729
11
7.75856
21
-1.66395
0
LINE
8
BLACK
6
CONTINUOUS
10
7.75856
20
-1.66395
11
7.75507
21
-1.67
0
LINE
8
BLACK
6
CONTINUOUS
10
7.75507
20
-1.67
11
7.75038
21
-1.6752
0
LINE
8
BLACK
6
CONTINUOUS
10
7.75038
20
-1.6752
11
7.74472
21
-1.67932
0
LINE
8
BLACK
6
CONTINUOUS
10
7.74472
20
-1.67932
11
7.73833
21
-1.68216
0
LINE
8
BLACK
6
CONTINUOUS
10
7.73833
20
-1.68216
11
7.73149
21
-1.68362
0
LINE
8
BLACK
6
CONTINUOUS
10
7.73149
20
-1.68362
11
7.72449
21
-1.68362
0
LINE
8
BLACK
6
CONTINUOUS
10
7.72449
20
-1.68362
11
7.71765
21
-1.68216
0
LINE
8
BLACK
6
CONTINUOUS
10
7.71765
20
-1.68216
11
7.71126
21
-1.67932
0
LINE
8
BLACK
6
CONTINUOUS
10
7.71126
20
-1.67932
11
7.7056
21
-1.6752
0
LINE
8
BLACK
6
CONTINUOUS
10
7.7056
20
-1.6752
11
7.70092
21
-1.67
0
LINE
8
BLACK
6
CONTINUOUS
10
7.70092
20
-1.67
11
7.69742
21
-1.66395
0
LINE
8
BLACK
6
CONTINUOUS
10
7.69742
20
-1.66395
11
7.69526
21
-1.65729
0
LINE
8
BLACK
6
CONTINUOUS
10
7.69526
20
-1.65729
11
7.69453
21
-1.65033
0
LINE
8
BLACK
6
CONTINUOUS
10
7.69453
20
-1.65033
11
7.69526
21
-1.64338
0
LINE
8
BLACK
6
CONTINUOUS
10
7.69526
20
-1.64338
11
7.69742
21
-1.63672
0
LINE
8
BLACK
6
CONTINUOUS
10
7.69742
20
-1.63672
11
7.70092
21
-1.63066
0
LINE
8
BLACK
6
CONTINUOUS
10
7.70092
20
-1.63066
11
7.7056
21
-1.62547
0
LINE
8
BLACK
6
CONTINUOUS
10
7.7056
20
-1.62547
11
7.71126
21
-1.62135
0
LINE
8
BLACK
6
CONTINUOUS
10
7.71126
20
-1.62135
11
7.71765
21
-1.61851
0
LINE
8
BLACK
6
CONTINUOUS
10
7.71765
20
-1.61851
11
7.72449
21
-1.61705
0
LINE
8
BLACK
6
CONTINUOUS
10
7.72449
20
-1.61705
11
7.73149
21
-1.61705
0
LINE
8
BLACK
6
CONTINUOUS
10
7.73149
20
-1.61705
11
7.73833
21
-1.61851
0
LINE
8
BLACK
6
CONTINUOUS
10
8.63833
20
-1.61851
11
8.64472
21
-1.62135
0
LINE
8
BLACK
6
CONTINUOUS
10
8.64472
20
-1.62135
11
8.65038
21
-1.62547
0
LINE
8
BLACK
6
CONTINUOUS
10
8.65038
20
-1.62547
11
8.65507
21
-1.63066
0
LINE
8
BLACK
6
CONTINUOUS
10
8.65507
20
-1.63066
11
8.65856
21
-1.63672
0
LINE
8
BLACK
6
CONTINUOUS
10
8.65856
20
-1.63672
11
8.66073
21
-1.64338
0
LINE
8
BLACK
6
CONTINUOUS
10
8.66073
20
-1.64338
11
8.66146
21
-1.65033
0
LINE
8
BLACK
6
CONTINUOUS
10
8.66146
20
-1.65033
11
8.66073
21
-1.65729
0
LINE
8
BLACK
6
CONTINUOUS
10
8.66073
20
-1.65729
11
8.65856
21
-1.66395
0
LINE
8
BLACK
6
CONTINUOUS
10
8.65856
20
-1.66395
11
8.65507
21
-1.67
0
LINE
8
BLACK
6
CONTINUOUS
10
8.65507
20
-1.67
11
8.65038
21
-1.6752
0
LINE
8
BLACK
6
CONTINUOUS
10
8.65038
20
-1.6752
11
8.64472
21
-1.67932
0
LINE
8
BLACK
6
CONTINUOUS
10
8.64472
20
-1.67932
11
8.63833
21
-1.68216
0
LINE
8
BLACK
6
CONTINUOUS
10
8.63833
20
-1.68216
11
8.63149
21
-1.68362
0
LINE
8
BLACK
6
CONTINUOUS
10
8.63149
20
-1.68362
11
8.62449
21
-1.68362
0
LINE
8
BLACK
6
CONTINUOUS
10
8.62449
20
-1.68362
11
8.61765
21
-1.68216
0
LINE
8
BLACK
6
CONTINUOUS
10
8.61765
20
-1.68216
11
8.61126
21
-1.67932
0
LINE
8
BLACK
6
CONTINUOUS
10
8.61126
20
-1.67932
11
8.6056
21
-1.6752
0
LINE
8
BLACK
6
CONTINUOUS
10
8.6056
20
-1.6752
11
8.60092
21
-1.67
0
LINE
8
BLACK
6
CONTINUOUS
10
8.60092
20
-1.67
11
8.59742
21
-1.66395
0
LINE
8
BLACK
6
CONTINUOUS
10
8.59742
20
-1.66395
11
8.59526
21
-1.65729
0
LINE
8
BLACK
6
CONTINUOUS
10
8.59526
20
-1.65729
11
8.59453
21
-1.65033
0
LINE
8
BLACK
6
CONTINUOUS
10
8.59453
20
-1.65033
11
8.59526
21
-1.64338
0
LINE
8
BLACK
6
CONTINUOUS
10
8.59526
20
-1.64338
11
8.59742
21
-1.63672
0
LINE
8
BLACK
6
CONTINUOUS
10
8.59742
20
-1.63672
11
8.60092
21
-1.63066
0
LINE
8
BLACK
6
CONTINUOUS
10
8.60092
20
-1.63066
11
8.6056
21
-1.62547
0
LINE
8
BLACK
6
CONTINUOUS
10
8.6056
20
-1.62547
11
8.61126
21
-1.62135
0
LINE
8
BLACK
6
CONTINUOUS
10
8.61126
20
-1.62135
11
8.61765
21
-1.61851
0
LINE
8
BLACK
6
CONTINUOUS
10
8.61765
20
-1.61851
11
8.62449
21
-1.61705
0
LINE
8
BLACK
6
CONTINUOUS
10
8.62449
20
-1.61705
11
8.63149
21
-1.61705
0
LINE
8
BLACK
6
CONTINUOUS
10
8.63149
20
-1.61705
11
8.63833
21
-1.61851
0
LINE
8
BLACK
6
CONTINUOUS
10
5.46096
20
-1.59846
11
5.39404
21
-1.59846
0
LINE
8
BLACK
6
CONTINUOUS
10
5.39404
20
-1.59846
11
5.39404
21
-1.53154
0
LINE
8
BLACK
6
CONTINUOUS
10
5.39404
20
-1.53154
11
5.46096
21
-1.53154
0
LINE
8
BLACK
6
CONTINUOUS
10
5.46096
20
-1.53154
11
5.46096
21
-1.59846
0
LINE
8
BLACK
6
CONTINUOUS
10
7.76146
20
-1.5838
11
7.69453
21
-1.5838
0
LINE
8
BLACK
6
CONTINUOUS
10
7.69453
20
-1.5838
11
7.69453
21
-1.51687
0
LINE
8
BLACK
6
CONTINUOUS
10
7.69453
20
-1.51687
11
7.76146
21
-1.51687
0
LINE
8
BLACK
6
CONTINUOUS
10
7.76146
20
-1.51687
11
7.76146
21
-1.5838
0
LINE
8
BLACK
6
CONTINUOUS
10
8.66146
20
-1.5838
11
8.59453
21
-1.5838
0
LINE
8
BLACK
6
CONTINUOUS
10
8.59453
20
-1.5838
11
8.59453
21
-1.51687
0
LINE
8
BLACK
6
CONTINUOUS
10
8.59453
20
-1.51687
11
8.66146
21
-1.51687
0
LINE
8
BLACK
6
CONTINUOUS
10
8.66146
20
-1.51687
11
8.66146
21
-1.5838
0
LINE
8
BLACK
6
CONTINUOUS
10
6.25981
20
-1.47914
11
6.263
21
-1.48127
0
LINE
8
BLACK
6
CONTINUOUS
10
6.263
20
-1.48127
11
6.26514
21
-1.48446
0
LINE
8
BLACK
6
CONTINUOUS
10
6.26514
20
-1.48446
11
6.26589
21
-1.48823
0
LINE
8
BLACK
6
CONTINUOUS
10
6.26589
20
-1.48823
11
6.26589
21
-1.53547
0
LINE
8
BLACK
6
CONTINUOUS
10
6.26589
20
-1.53547
11
6.26514
21
-1.53924
0
LINE
8
BLACK
6
CONTINUOUS
10
6.26514
20
-1.53924
11
6.263
21
-1.54243
0
LINE
8
BLACK
6
CONTINUOUS
10
6.263
20
-1.54243
11
6.25981
21
-1.54457
0
LINE
8
BLACK
6
CONTINUOUS
10
6.25981
20
-1.54457
11
6.25604
21
-1.54531
0
LINE
8
BLACK
6
CONTINUOUS
10
6.25604
20
-1.54531
11
6.19896
21
-1.54531
0
LINE
8
BLACK
6
CONTINUOUS
10
6.19896
20
-1.54531
11
6.19519
21
-1.54457
0
LINE
8
BLACK
6
CONTINUOUS
10
6.19519
20
-1.54457
11
6.192
21
-1.54243
0
LINE
8
BLACK
6
CONTINUOUS
10
6.192
20
-1.54243
11
6.18986
21
-1.53924
0
LINE
8
BLACK
6
CONTINUOUS
10
6.18986
20
-1.53924
11
6.18911
21
-1.53547
0
LINE
8
BLACK
6
CONTINUOUS
10
6.18911
20
-1.53547
11
6.18911
21
-1.48823
0
LINE
8
BLACK
6
CONTINUOUS
10
6.18911
20
-1.48823
11
6.18986
21
-1.48446
0
LINE
8
BLACK
6
CONTINUOUS
10
6.18986
20
-1.48446
11
6.192
21
-1.48127
0
LINE
8
BLACK
6
CONTINUOUS
10
6.192
20
-1.48127
11
6.19519
21
-1.47914
0
LINE
8
BLACK
6
CONTINUOUS
10
6.19519
20
-1.47914
11
6.19896
21
-1.47839
0
LINE
8
BLACK
6
CONTINUOUS
10
6.19896
20
-1.47839
11
6.25604
21
-1.47839
0
LINE
8
BLACK
6
CONTINUOUS
10
6.25604
20
-1.47839
11
6.25981
21
-1.47914
0
LINE
8
BLACK
6
CONTINUOUS
10
4.63784
20
-1.43317
11
4.64423
21
-1.43602
0
LINE
8
BLACK
6
CONTINUOUS
10
4.64423
20
-1.43602
11
4.64989
21
-1.44013
0
LINE
8
BLACK
6
CONTINUOUS
10
4.64989
20
-1.44013
11
4.65457
21
-1.44533
0
LINE
8
BLACK
6
CONTINUOUS
10
4.65457
20
-1.44533
11
4.65807
21
-1.45139
0
LINE
8
BLACK
6
CONTINUOUS
10
4.65807
20
-1.45139
11
4.66023
21
-1.45804
0
LINE
8
BLACK
6
CONTINUOUS
10
4.66023
20
-1.45804
11
4.66096
21
-1.465
0
LINE
8
BLACK
6
CONTINUOUS
10
4.66096
20
-1.465
11
4.66023
21
-1.47196
0
LINE
8
BLACK
6
CONTINUOUS
10
4.66023
20
-1.47196
11
4.65807
21
-1.47861
0
LINE
8
BLACK
6
CONTINUOUS
10
4.65807
20
-1.47861
11
4.65457
21
-1.48467
0
LINE
8
BLACK
6
CONTINUOUS
10
4.65457
20
-1.48467
11
4.64989
21
-1.48987
0
LINE
8
BLACK
6
CONTINUOUS
10
4.64989
20
-1.48987
11
4.64423
21
-1.49398
0
LINE
8
BLACK
6
CONTINUOUS
10
4.64423
20
-1.49398
11
4.63784
21
-1.49683
0
LINE
8
BLACK
6
CONTINUOUS
10
4.63784
20
-1.49683
11
4.631
21
-1.49828
0
LINE
8
BLACK
6
CONTINUOUS
10
4.631
20
-1.49828
11
4.624
21
-1.49828
0
LINE
8
BLACK
6
CONTINUOUS
10
4.624
20
-1.49828
11
4.61716
21
-1.49683
0
LINE
8
BLACK
6
CONTINUOUS
10
4.61716
20
-1.49683
11
4.61077
21
-1.49398
0
LINE
8
BLACK
6
CONTINUOUS
10
4.61077
20
-1.49398
11
4.60511
21
-1.48987
0
LINE
8
BLACK
6
CONTINUOUS
10
4.60511
20
-1.48987
11
4.60043
21
-1.48467
0
LINE
8
BLACK
6
CONTINUOUS
10
4.60043
20
-1.48467
11
4.59693
21
-1.47861
0
LINE
8
BLACK
6
CONTINUOUS
10
4.59693
20
-1.47861
11
4.59477
21
-1.47196
0
LINE
8
BLACK
6
CONTINUOUS
10
4.59477
20
-1.47196
11
4.59404
21
-1.465
0
LINE
8
BLACK
6
CONTINUOUS
10
4.59404
20
-1.465
11
4.59477
21
-1.45804
0
LINE
8
BLACK
6
CONTINUOUS
10
4.59477
20
-1.45804
11
4.59693
21
-1.45139
0
LINE
8
BLACK
6
CONTINUOUS
10
4.59693
20
-1.45139
11
4.60043
21
-1.44533
0
LINE
8
BLACK
6
CONTINUOUS
10
4.60043
20
-1.44533
11
4.60511
21
-1.44013
0
LINE
8
BLACK
6
CONTINUOUS
10
4.60511
20
-1.44013
11
4.61077
21
-1.43602
0
LINE
8
BLACK
6
CONTINUOUS
10
4.61077
20
-1.43602
11
4.61716
21
-1.43317
0
LINE
8
BLACK
6
CONTINUOUS
10
4.61716
20
-1.43317
11
4.624
21
-1.43172
0
LINE
8
BLACK
6
CONTINUOUS
10
4.624
20
-1.43172
11
4.631
21
-1.43172
0
LINE
8
BLACK
6
CONTINUOUS
10
4.631
20
-1.43172
11
4.63784
21
-1.43317
0
LINE
8
BLACK
6
CONTINUOUS
10
5.43784
20
-1.43317
11
5.44423
21
-1.43602
0
LINE
8
BLACK
6
CONTINUOUS
10
5.44423
20
-1.43602
11
5.44989
21
-1.44013
0
LINE
8
BLACK
6
CONTINUOUS
10
5.44989
20
-1.44013
11
5.45457
21
-1.44533
0
LINE
8
BLACK
6
CONTINUOUS
10
5.45457
20
-1.44533
11
5.45807
21
-1.45139
0
LINE
8
BLACK
6
CONTINUOUS
10
5.45807
20
-1.45139
11
5.46023
21
-1.45804
0
LINE
8
BLACK
6
CONTINUOUS
10
5.46023
20
-1.45804
11
5.46096
21
-1.465
0
LINE
8
BLACK
6
CONTINUOUS
10
5.46096
20
-1.465
11
5.46023
21
-1.47196
0
LINE
8
BLACK
6
CONTINUOUS
10
5.46023
20
-1.47196
11
5.45807
21
-1.47861
0
LINE
8
BLACK
6
CONTINUOUS
10
5.45807
20
-1.47861
11
5.45457
21
-1.48467
0
LINE
8
BLACK
6
CONTINUOUS
10
5.45457
20
-1.48467
11
5.44989
21
-1.48987
0
LINE
8
BLACK
6
CONTINUOUS
10
5.44989
20
-1.48987
11
5.44423
21
-1.49398
0
LINE
8
BLACK
6
CONTINUOUS
10
5.44423
20
-1.49398
11
5.43784
21
-1.49683
0
LINE
8
BLACK
6
CONTINUOUS
10
5.43784
20
-1.49683
11
5.431
21
-1.49828
0
LINE
8
BLACK
6
CONTINUOUS
10
5.431
20
-1.49828
11
5.424
21
-1.49828
0
LINE
8
BLACK
6
CONTINUOUS
10
5.424
20
-1.49828
11
5.41716
21
-1.49683
0
LINE
8
BLACK
6
CONTINUOUS
10
5.41716
20
-1.49683
11
5.41077
21
-1.49398
0
LINE
8
BLACK
6
CONTINUOUS
10
5.41077
20
-1.49398
11
5.40511
21
-1.48987
0
LINE
8
BLACK
6
CONTINUOUS
10
5.40511
20
-1.48987
11
5.40043
21
-1.48467
0
LINE
8
BLACK
6
CONTINUOUS
10
5.40043
20
-1.48467
11
5.39693
21
-1.47861
0
LINE
8
BLACK
6
CONTINUOUS
10
5.39693
20
-1.47861
11
5.39477
21
-1.47196
0
LINE
8
BLACK
6
CONTINUOUS
10
5.39477
20
-1.47196
11
5.39404
21
-1.465
0
LINE
8
BLACK
6
CONTINUOUS
10
5.39404
20
-1.465
11
5.39477
21
-1.45804
0
LINE
8
BLACK
6
CONTINUOUS
10
5.39477
20
-1.45804
11
5.39693
21
-1.45139
0
LINE
8
BLACK
6
CONTINUOUS
10
5.39693
20
-1.45139
11
5.40043
21
-1.44533
0
LINE
8
BLACK
6
CONTINUOUS
10
5.40043
20
-1.44533
11
5.40511
21
-1.44013
0
LINE
8
BLACK
6
CONTINUOUS
10
5.40511
20
-1.44013
11
5.41077
21
-1.43602
0
LINE
8
BLACK
6
CONTINUOUS
10
5.41077
20
-1.43602
11
5.41716
21
-1.43317
0
LINE
8
BLACK
6
CONTINUOUS
10
5.41716
20
-1.43317
11
5.424
21
-1.43172
0
LINE
8
BLACK
6
CONTINUOUS
10
5.424
20
-1.43172
11
5.431
21
-1.43172
0
LINE
8
BLACK
6
CONTINUOUS
10
5.431
20
-1.43172
11
5.43784
21
-1.43317
0
LINE
8
BLACK
6
CONTINUOUS
10
3.85998
20
-1.49748
11
3.79502
21
-1.49748
0
LINE
8
BLACK
6
CONTINUOUS
10
3.79502
20
-1.49748
11
3.79502
21
-1.43252
0
LINE
8
BLACK
6
CONTINUOUS
10
3.79502
20
-1.43252
11
3.85998
21
-1.43252
0
LINE
8
BLACK
6
CONTINUOUS
10
3.85998
20
-1.43252
11
3.85998
21
-1.49748
0
LINE
8
BLACK
6
CONTINUOUS
10
6.23604
20
-1.38016
11
6.24311
21
-1.38171
0
LINE
8
BLACK
6
CONTINUOUS
10
6.24311
20
-1.38171
11
6.24967
21
-1.38475
0
LINE
8
BLACK
6
CONTINUOUS
10
6.24967
20
-1.38475
11
6.25543
21
-1.38913
0
LINE
8
BLACK
6
CONTINUOUS
10
6.25543
20
-1.38913
11
6.26012
21
-1.39465
0
LINE
8
BLACK
6
CONTINUOUS
10
6.26012
20
-1.39465
11
6.26351
21
-1.40104
0
LINE
8
BLACK
6
CONTINUOUS
10
6.26351
20
-1.40104
11
6.26544
21
-1.40801
0
LINE
8
BLACK
6
CONTINUOUS
10
6.26544
20
-1.40801
11
6.26584
21
-1.41524
0
LINE
8
BLACK
6
CONTINUOUS
10
6.26584
20
-1.41524
11
6.26467
21
-1.42238
0
LINE
8
BLACK
6
CONTINUOUS
10
6.26467
20
-1.42238
11
6.26199
21
-1.4291
0
LINE
8
BLACK
6
CONTINUOUS
10
6.26199
20
-1.4291
11
6.25793
21
-1.43509
0
LINE
8
BLACK
6
CONTINUOUS
10
6.25793
20
-1.43509
11
6.25267
21
-1.44007
0
LINE
8
BLACK
6
CONTINUOUS
10
6.25267
20
-1.44007
11
6.24647
21
-1.4438
0
LINE
8
BLACK
6
CONTINUOUS
10
6.24647
20
-1.4438
11
6.23962
21
-1.44611
0
LINE
8
BLACK
6
CONTINUOUS
10
6.23962
20
-1.44611
11
6.23242
21
-1.44689
0
LINE
8
BLACK
6
CONTINUOUS
10
6.23242
20
-1.44689
11
6.22258
21
-1.44689
0
LINE
8
BLACK
6
CONTINUOUS
10
6.22258
20
-1.44689
11
6.21896
21
-1.44669
0
LINE
8
BLACK
6
CONTINUOUS
10
6.21896
20
-1.44669
11
6.21189
21
-1.44514
0
LINE
8
BLACK
6
CONTINUOUS
10
6.21189
20
-1.44514
11
6.20533
21
-1.4421
0
LINE
8
BLACK
6
CONTINUOUS
10
6.20533
20
-1.4421
11
6.19957
21
-1.43772
0
LINE
8
BLACK
6
CONTINUOUS
10
6.19957
20
-1.43772
11
6.19488
21
-1.43221
0
LINE
8
BLACK
6
CONTINUOUS
10
6.19488
20
-1.43221
11
6.19149
21
-1.42581
0
LINE
8
BLACK
6
CONTINUOUS
10
6.19149
20
-1.42581
11
6.18955
21
-1.41884
0
LINE
8
BLACK
6
CONTINUOUS
10
6.18955
20
-1.41884
11
6.18916
21
-1.41161
0
LINE
8
BLACK
6
CONTINUOUS
10
6.18916
20
-1.41161
11
6.19033
21
-1.40447
0
LINE
8
BLACK
6
CONTINUOUS
10
6.19033
20
-1.40447
11
6.19301
21
-1.39775
0
LINE
8
BLACK
6
CONTINUOUS
10
6.19301
20
-1.39775
11
6.19707
21
-1.39176
0
LINE
8
BLACK
6
CONTINUOUS
10
6.19707
20
-1.39176
11
6.20233
21
-1.38678
0
LINE
8
BLACK
6
CONTINUOUS
10
6.20233
20
-1.38678
11
6.20853
21
-1.38305
0
LINE
8
BLACK
6
CONTINUOUS
10
6.20853
20
-1.38305
11
6.21538
21
-1.38074
0
LINE
8
BLACK
6
CONTINUOUS
10
6.21538
20
-1.38074
11
6.22258
21
-1.37996
0
LINE
8
BLACK
6
CONTINUOUS
10
6.22258
20
-1.37996
11
6.23242
21
-1.37996
0
LINE
8
BLACK
6
CONTINUOUS
10
6.23242
20
-1.37996
11
6.23604
21
-1.38016
0
LINE
8
BLACK
6
CONTINUOUS
10
4.63784
20
-1.33317
11
4.64423
21
-1.33602
0
LINE
8
BLACK
6
CONTINUOUS
10
4.64423
20
-1.33602
11
4.64989
21
-1.34013
0
LINE
8
BLACK
6
CONTINUOUS
10
4.64989
20
-1.34013
11
4.65457
21
-1.34533
0
LINE
8
BLACK
6
CONTINUOUS
10
4.65457
20
-1.34533
11
4.65807
21
-1.35139
0
LINE
8
BLACK
6
CONTINUOUS
10
4.65807
20
-1.35139
11
4.66023
21
-1.35804
0
LINE
8
BLACK
6
CONTINUOUS
10
4.66023
20
-1.35804
11
4.66096
21
-1.365
0
LINE
8
BLACK
6
CONTINUOUS
10
4.66096
20
-1.365
11
4.66023
21
-1.37196
0
LINE
8
BLACK
6
CONTINUOUS
10
4.66023
20
-1.37196
11
4.65807
21
-1.37861
0
LINE
8
BLACK
6
CONTINUOUS
10
4.65807
20
-1.37861
11
4.65457
21
-1.38467
0
LINE
8
BLACK
6
CONTINUOUS
10
4.65457
20
-1.38467
11
4.64989
21
-1.38987
0
LINE
8
BLACK
6
CONTINUOUS
10
4.64989
20
-1.38987
11
4.64423
21
-1.39398
0
LINE
8
BLACK
6
CONTINUOUS
10
4.64423
20
-1.39398
11
4.63784
21
-1.39683
0
LINE
8
BLACK
6
CONTINUOUS
10
4.63784
20
-1.39683
11
4.631
21
-1.39828
0
LINE
8
BLACK
6
CONTINUOUS
10
4.631
20
-1.39828
11
4.624
21
-1.39828
0
LINE
8
BLACK
6
CONTINUOUS
10
4.624
20
-1.39828
11
4.61716
21
-1.39683
0
LINE
8
BLACK
6
CONTINUOUS
10
4.61716
20
-1.39683
11
4.61077
21
-1.39398
0
LINE
8
BLACK
6
CONTINUOUS
10
4.61077
20
-1.39398
11
4.60511
21
-1.38987
0
LINE
8
BLACK
6
CONTINUOUS
10
4.60511
20
-1.38987
11
4.60043
21
-1.38467
0
LINE
8
BLACK
6
CONTINUOUS
10
4.60043
20
-1.38467
11
4.59693
21
-1.37861
0
LINE
8
BLACK
6
CONTINUOUS
10
4.59693
20
-1.37861
11
4.59477
21
-1.37196
0
LINE
8
BLACK
6
CONTINUOUS
10
4.59477
20
-1.37196
11
4.59404
21
-1.365
0
LINE
8
BLACK
6
CONTINUOUS
10
4.59404
20
-1.365
11
4.59477
21
-1.35804
0
LINE
8
BLACK
6
CONTINUOUS
10
4.59477
20
-1.35804
11
4.59693
21
-1.35139
0
LINE
8
BLACK
6
CONTINUOUS
10
4.59693
20
-1.35139
11
4.60043
21
-1.34533
0
LINE
8
BLACK
6
CONTINUOUS
10
4.60043
20
-1.34533
11
4.60511
21
-1.34013
0
LINE
8
BLACK
6
CONTINUOUS
10
4.60511
20
-1.34013
11
4.61077
21
-1.33602
0
LINE
8
BLACK
6
CONTINUOUS
10
4.61077
20
-1.33602
11
4.61716
21
-1.33317
0
LINE
8
BLACK
6
CONTINUOUS
10
4.61716
20
-1.33317
11
4.624
21
-1.33172
0
LINE
8
BLACK
6
CONTINUOUS
10
4.624
20
-1.33172
11
4.631
21
-1.33172
0
LINE
8
BLACK
6
CONTINUOUS
10
4.631
20
-1.33172
11
4.63784
21
-1.33317
0
LINE
8
BLACK
6
CONTINUOUS
10
5.43784
20
-1.33317
11
5.44423
21
-1.33602
0
LINE
8
BLACK
6
CONTINUOUS
10
5.44423
20
-1.33602
11
5.44989
21
-1.34013
0
LINE
8
BLACK
6
CONTINUOUS
10
5.44989
20
-1.34013
11
5.45457
21
-1.34533
0
LINE
8
BLACK
6
CONTINUOUS
10
5.45457
20
-1.34533
11
5.45807
21
-1.35139
0
LINE
8
BLACK
6
CONTINUOUS
10
5.45807
20
-1.35139
11
5.46023
21
-1.35804
0
LINE
8
BLACK
6
CONTINUOUS
10
5.46023
20
-1.35804
11
5.46096
21
-1.365
0
LINE
8
BLACK
6
CONTINUOUS
10
5.46096
20
-1.365
11
5.46023
21
-1.37196
0
LINE
8
BLACK
6
CONTINUOUS
10
5.46023
20
-1.37196
11
5.45807
21
-1.37861
0
LINE
8
BLACK
6
CONTINUOUS
10
5.45807
20
-1.37861
11
5.45457
21
-1.38467
0
LINE
8
BLACK
6
CONTINUOUS
10
5.45457
20
-1.38467
11
5.44989
21
-1.38987
0
LINE
8
BLACK
6
CONTINUOUS
10
5.44989
20
-1.38987
11
5.44423
21
-1.39398
0
LINE
8
BLACK
6
CONTINUOUS
10
5.44423
20
-1.39398
11
5.43784
21
-1.39683
0
LINE
8
BLACK
6
CONTINUOUS
10
5.43784
20
-1.39683
11
5.431
21
-1.39828
0
LINE
8
BLACK
6
CONTINUOUS
10
5.431
20
-1.39828
11
5.424
21
-1.39828
0
LINE
8
BLACK
6
CONTINUOUS
10
5.424
20
-1.39828
11
5.41716
21
-1.39683
0
LINE
8
BLACK
6
CONTINUOUS
10
5.41716
20
-1.39683
11
5.41077
21
-1.39398
0
LINE
8
BLACK
6
CONTINUOUS
10
5.41077
20
-1.39398
11
5.40511
21
-1.38987
0
LINE
8
BLACK
6
CONTINUOUS
10
5.40511
20
-1.38987
11
5.40043
21
-1.38467
0
LINE
8
BLACK
6
CONTINUOUS
10
5.40043
20
-1.38467
11
5.39693
21
-1.37861
0
LINE
8
BLACK
6
CONTINUOUS
10
5.39693
20
-1.37861
11
5.39477
21
-1.37196
0
LINE
8
BLACK
6
CONTINUOUS
10
5.39477
20
-1.37196
11
5.39404
21
-1.365
0
LINE
8
BLACK
6
CONTINUOUS
10
5.39404
20
-1.365
11
5.39477
21
-1.35804
0
LINE
8
BLACK
6
CONTINUOUS
10
5.39477
20
-1.35804
11
5.39693
21
-1.35139
0
LINE
8
BLACK
6
CONTINUOUS
10
5.39693
20
-1.35139
11
5.40043
21
-1.34533
0
LINE
8
BLACK
6
CONTINUOUS
10
5.40043
20
-1.34533
11
5.40511
21
-1.34013
0
LINE
8
BLACK
6
CONTINUOUS
10
5.40511
20
-1.34013
11
5.41077
21
-1.33602
0
LINE
8
BLACK
6
CONTINUOUS
10
5.41077
20
-1.33602
11
5.41716
21
-1.33317
0
LINE
8
BLACK
6
CONTINUOUS
10
5.41716
20
-1.33317
11
5.424
21
-1.33172
0
LINE
8
BLACK
6
CONTINUOUS
10
5.424
20
-1.33172
11
5.431
21
-1.33172
0
LINE
8
BLACK
6
CONTINUOUS
10
5.431
20
-1.33172
11
5.43784
21
-1.33317
0
LINE
8
BLACK
6
CONTINUOUS
10
6.23604
20
-1.28173
11
6.24311
21
-1.28329
0
LINE
8
BLACK
6
CONTINUOUS
10
6.24311
20
-1.28329
11
6.24967
21
-1.28633
0
LINE
8
BLACK
6
CONTINUOUS
10
6.24967
20
-1.28633
11
6.25543
21
-1.2907
0
LINE
8
BLACK
6
CONTINUOUS
10
6.25543
20
-1.2907
11
6.26012
21
-1.29622
0
LINE
8
BLACK
6
CONTINUOUS
10
6.26012
20
-1.29622
11
6.26351
21
-1.30261
0
LINE
8
BLACK
6
CONTINUOUS
10
6.26351
20
-1.30261
11
6.26544
21
-1.30959
0
LINE
8
BLACK
6
CONTINUOUS
10
6.26544
20
-1.30959
11
6.26584
21
-1.31681
0
LINE
8
BLACK
6
CONTINUOUS
10
6.26584
20
-1.31681
11
6.26467
21
-1.32395
0
LINE
8
BLACK
6
CONTINUOUS
10
6.26467
20
-1.32395
11
6.26199
21
-1.33068
0
LINE
8
BLACK
6
CONTINUOUS
10
6.26199
20
-1.33068
11
6.25793
21
-1.33666
0
LINE
8
BLACK
6
CONTINUOUS
10
6.25793
20
-1.33666
11
6.25267
21
-1.34164
0
LINE
8
BLACK
6
CONTINUOUS
10
6.25267
20
-1.34164
11
6.24647
21
-1.34537
0
LINE
8
BLACK
6
CONTINUOUS
10
6.24647
20
-1.34537
11
6.23962
21
-1.34768
0
LINE
8
BLACK
6
CONTINUOUS
10
6.23962
20
-1.34768
11
6.23242
21
-1.34846
0
LINE
8
BLACK
6
CONTINUOUS
10
6.23242
20
-1.34846
11
6.22258
21
-1.34846
0
LINE
8
BLACK
6
CONTINUOUS
10
6.22258
20
-1.34846
11
6.21896
21
-1.34827
0
LINE
8
BLACK
6
CONTINUOUS
10
6.21896
20
-1.34827
11
6.21189
21
-1.34671
0
LINE
8
BLACK
6
CONTINUOUS
10
6.21189
20
-1.34671
11
6.20533
21
-1.34367
0
LINE
8
BLACK
6
CONTINUOUS
10
6.20533
20
-1.34367
11
6.19957
21
-1.3393
0
LINE
8
BLACK
6
CONTINUOUS
10
6.19957
20
-1.3393
11
6.19488
21
-1.33378
0
LINE
8
BLACK
6
CONTINUOUS
10
6.19488
20
-1.33378
11
6.19149
21
-1.32739
0
LINE
8
BLACK
6
CONTINUOUS
10
6.19149
20
-1.32739
11
6.18955
21
-1.32041
0
LINE
8
BLACK
6
CONTINUOUS
10
6.18955
20
-1.32041
11
6.18916
21
-1.31319
0
LINE
8
BLACK
6
CONTINUOUS
10
6.18916
20
-1.31319
11
6.19033
21
-1.30605
0
LINE
8
BLACK
6
CONTINUOUS
10
6.19033
20
-1.30605
11
6.19301
21
-1.29932
0
LINE
8
BLACK
6
CONTINUOUS
10
6.19301
20
-1.29932
11
6.19707
21
-1.29334
0
LINE
8
BLACK
6
CONTINUOUS
10
6.19707
20
-1.29334
11
6.20233
21
-1.28836
0
LINE
8
BLACK
6
CONTINUOUS
10
6.20233
20
-1.28836
11
6.20853
21
-1.28463
0
LINE
8
BLACK
6
CONTINUOUS
10
6.20853
20
-1.28463
11
6.21538
21
-1.28232
0
LINE
8
BLACK
6
CONTINUOUS
10
6.21538
20
-1.28232
11
6.22258
21
-1.28154
0
LINE
8
BLACK
6
CONTINUOUS
10
6.22258
20
-1.28154
11
6.23242
21
-1.28154
0
LINE
8
BLACK
6
CONTINUOUS
10
6.23242
20
-1.28154
11
6.23604
21
-1.28173
0
LINE
8
BLACK
6
CONTINUOUS
10
4.63784
20
-1.23317
11
4.64423
21
-1.23602
0
LINE
8
BLACK
6
CONTINUOUS
10
4.64423
20
-1.23602
11
4.64989
21
-1.24013
0
LINE
8
BLACK
6
CONTINUOUS
10
4.64989
20
-1.24013
11
4.65457
21
-1.24533
0
LINE
8
BLACK
6
CONTINUOUS
10
4.65457
20
-1.24533
11
4.65807
21
-1.25139
0
LINE
8
BLACK
6
CONTINUOUS
10
4.65807
20
-1.25139
11
4.66023
21
-1.25804
0
LINE
8
BLACK
6
CONTINUOUS
10
4.66023
20
-1.25804
11
4.66096
21
-1.265
0
LINE
8
BLACK
6
CONTINUOUS
10
4.66096
20
-1.265
11
4.66023
21
-1.27196
0
LINE
8
BLACK
6
CONTINUOUS
10
4.66023
20
-1.27196
11
4.65807
21
-1.27861
0
LINE
8
BLACK
6
CONTINUOUS
10
4.65807
20
-1.27861
11
4.65457
21
-1.28467
0
LINE
8
BLACK
6
CONTINUOUS
10
4.65457
20
-1.28467
11
4.64989
21
-1.28987
0
LINE
8
BLACK
6
CONTINUOUS
10
4.64989
20
-1.28987
11
4.64423
21
-1.29398
0
LINE
8
BLACK
6
CONTINUOUS
10
4.64423
20
-1.29398
11
4.63784
21
-1.29683
0
LINE
8
BLACK
6
CONTINUOUS
10
4.63784
20
-1.29683
11
4.631
21
-1.29828
0
LINE
8
BLACK
6
CONTINUOUS
10
4.631
20
-1.29828
11
4.624
21
-1.29828
0
LINE
8
BLACK
6
CONTINUOUS
10
4.624
20
-1.29828
11
4.61716
21
-1.29683
0
LINE
8
BLACK
6
CONTINUOUS
10
4.61716
20
-1.29683
11
4.61077
21
-1.29398
0
LINE
8
BLACK
6
CONTINUOUS
10
4.61077
20
-1.29398
11
4.60511
21
-1.28987
0
LINE
8
BLACK
6
CONTINUOUS
10
4.60511
20
-1.28987
11
4.60043
21
-1.28467
0
LINE
8
BLACK
6
CONTINUOUS
10
4.60043
20
-1.28467
11
4.59693
21
-1.27861
0
LINE
8
BLACK
6
CONTINUOUS
10
4.59693
20
-1.27861
11
4.59477
21
-1.27196
0
LINE
8
BLACK
6
CONTINUOUS
10
4.59477
20
-1.27196
11
4.59404
21
-1.265
0
LINE
8
BLACK
6
CONTINUOUS
10
4.59404
20
-1.265
11
4.59477
21
-1.25804
0
LINE
8
BLACK
6
CONTINUOUS
10
4.59477
20
-1.25804
11
4.59693
21
-1.25139
0
LINE
8
BLACK
6
CONTINUOUS
10
4.59693
20
-1.25139
11
4.60043
21
-1.24533
0
LINE
8
BLACK
6
CONTINUOUS
10
4.60043
20
-1.24533
11
4.60511
21
-1.24013
0
LINE
8
BLACK
6
CONTINUOUS
10
4.60511
20
-1.24013
11
4.61077
21
-1.23602
0
LINE
8
BLACK
6
CONTINUOUS
10
4.61077
20
-1.23602
11
4.61716
21
-1.23317
0
LINE
8
BLACK
6
CONTINUOUS
10
4.61716
20
-1.23317
11
4.624
21
-1.23172
0
LINE
8
BLACK
6
CONTINUOUS
10
4.624
20
-1.23172
11
4.631
21
-1.23172
0
LINE
8
BLACK
6
CONTINUOUS
10
4.631
20
-1.23172
11
4.63784
21
-1.23317
0
LINE
8
BLACK
6
CONTINUOUS
10
3.83754
20
-1.23411
11
3.84374
21
-1.23687
0
LINE
8
BLACK
6
CONTINUOUS
10
3.84374
20
-1.23687
11
3.84923
21
-1.24086
0
LINE
8
BLACK
6
CONTINUOUS
10
3.84923
20
-1.24086
11
3.85378
21
-1.24591
0
LINE
8
BLACK
6
CONTINUOUS
10
3.85378
20
-1.24591
11
3.85717
21
-1.25179
0
LINE
8
BLACK
6
CONTINUOUS
10
3.85717
20
-1.25179
11
3.85927
21
-1.25825
0
LINE
8
BLACK
6
CONTINUOUS
10
3.85927
20
-1.25825
11
3.85998
21
-1.265
0
LINE
8
BLACK
6
CONTINUOUS
10
3.85998
20
-1.265
11
3.85927
21
-1.27175
0
LINE
8
BLACK
6
CONTINUOUS
10
3.85927
20
-1.27175
11
3.85717
21
-1.27821
0
LINE
8
BLACK
6
CONTINUOUS
10
3.85717
20
-1.27821
11
3.85378
21
-1.28409
0
LINE
8
BLACK
6
CONTINUOUS
10
3.85378
20
-1.28409
11
3.84923
21
-1.28914
0
LINE
8
BLACK
6
CONTINUOUS
10
3.84923
20
-1.28914
11
3.84374
21
-1.29313
0
LINE
8
BLACK
6
CONTINUOUS
10
3.84374
20
-1.29313
11
3.83754
21
-1.29589
0
LINE
8
BLACK
6
CONTINUOUS
10
3.83754
20
-1.29589
11
3.8309
21
-1.2973
0
LINE
8
BLACK
6
CONTINUOUS
10
3.8309
20
-1.2973
11
3.8241
21
-1.2973
0
LINE
8
BLACK
6
CONTINUOUS
10
3.8241
20
-1.2973
11
3.81746
21
-1.29589
0
LINE
8
BLACK
6
CONTINUOUS
10
3.81746
20
-1.29589
11
3.81126
21
-1.29313
0
LINE
8
BLACK
6
CONTINUOUS
10
3.81126
20
-1.29313
11
3.80577
21
-1.28914
0
LINE
8
BLACK
6
CONTINUOUS
10
3.80577
20
-1.28914
11
3.80122
21
-1.28409
0
LINE
8
BLACK
6
CONTINUOUS
10
3.80122
20
-1.28409
11
3.79783
21
-1.27821
0
LINE
8
BLACK
6
CONTINUOUS
10
3.79783
20
-1.27821
11
3.79573
21
-1.27175
0
LINE
8
BLACK
6
CONTINUOUS
10
3.79573
20
-1.27175
11
3.79502
21
-1.265
0
LINE
8
BLACK
6
CONTINUOUS
10
3.79502
20
-1.265
11
3.79573
21
-1.25825
0
LINE
8
BLACK
6
CONTINUOUS
10
3.79573
20
-1.25825
11
3.79783
21
-1.25179
0
LINE
8
BLACK
6
CONTINUOUS
10
3.79783
20
-1.25179
11
3.80122
21
-1.24591
0
LINE
8
BLACK
6
CONTINUOUS
10
3.80122
20
-1.24591
11
3.80577
21
-1.24086
0
LINE
8
BLACK
6
CONTINUOUS
10
3.80577
20
-1.24086
11
3.81126
21
-1.23687
0
LINE
8
BLACK
6
CONTINUOUS
10
3.81126
20
-1.23687
11
3.81746
21
-1.23411
0
LINE
8
BLACK
6
CONTINUOUS
10
3.81746
20
-1.23411
11
3.8241
21
-1.2327
0
LINE
8
BLACK
6
CONTINUOUS
10
3.8241
20
-1.2327
11
3.8309
21
-1.2327
0
LINE
8
BLACK
6
CONTINUOUS
10
3.8309
20
-1.2327
11
3.83754
21
-1.23411
0
LINE
8
BLACK
6
CONTINUOUS
10
4.66096
20
-1.19846
11
4.59404
21
-1.19846
0
LINE
8
BLACK
6
CONTINUOUS
10
4.59404
20
-1.19846
11
4.59404
21
-1.13154
0
LINE
8
BLACK
6
CONTINUOUS
10
4.59404
20
-1.13154
11
4.66096
21
-1.13154
0
LINE
8
BLACK
6
CONTINUOUS
10
4.66096
20
-1.13154
11
4.66096
21
-1.19846
0
LINE
8
BLACK
6
CONTINUOUS
10
2.79094
20
-0.813318
11
2.80292
21
-0.816392
0
LINE
8
BLACK
6
CONTINUOUS
10
2.80292
20
-0.816392
11
2.81441
21
-0.820942
0
LINE
8
BLACK
6
CONTINUOUS
10
2.81441
20
-0.820942
11
2.82524
21
-0.826897
0
LINE
8
BLACK
6
CONTINUOUS
10
2.82524
20
-0.826897
11
2.83524
21
-0.834162
0
LINE
8
BLACK
6
CONTINUOUS
10
2.83524
20
-0.834162
11
2.84425
21
-0.842623
0
LINE
8
BLACK
6
CONTINUOUS
10
2.84425
20
-0.842623
11
2.85213
21
-0.852147
0
LINE
8
BLACK
6
CONTINUOUS
10
2.85213
20
-0.852147
11
2.85875
21
-0.862583
0
LINE
8
BLACK
6
CONTINUOUS
10
2.85875
20
-0.862583
11
2.86401
21
-0.873767
0
LINE
8
BLACK
6
CONTINUOUS
10
2.86401
20
-0.873767
11
2.86783
21
-0.885523
0
LINE
8
BLACK
6
CONTINUOUS
10
2.86783
20
-0.885523
11
2.87015
21
-0.897664
0
LINE
8
BLACK
6
CONTINUOUS
10
2.87015
20
-0.897664
11
2.87093
21
-0.91
0
LINE
8
BLACK
6
CONTINUOUS
10
2.87093
20
-0.91
11
2.87015
21
-0.922336
0
LINE
8
BLACK
6
CONTINUOUS
10
2.87015
20
-0.922336
11
2.86783
21
-0.934477
0
LINE
8
BLACK
6
CONTINUOUS
10
2.86783
20
-0.934477
11
2.86401
21
-0.946233
0
LINE
8
BLACK
6
CONTINUOUS
10
2.86401
20
-0.946233
11
2.85875
21
-0.957417
0
LINE
8
BLACK
6
CONTINUOUS
10
2.85875
20
-0.957417
11
2.85213
21
-0.967853
0
LINE
8
BLACK
6
CONTINUOUS
10
2.85213
20
-0.967853
11
2.84425
21
-0.977377
0
LINE
8
BLACK
6
CONTINUOUS
10
2.84425
20
-0.977377
11
2.83524
21
-0.985838
0
LINE
8
BLACK
6
CONTINUOUS
10
2.83524
20
-0.985838
11
2.82524
21
-0.993103
0
LINE
8
BLACK
6
CONTINUOUS
10
2.82524
20
-0.993103
11
2.81441
21
-0.999058
0
LINE
8
BLACK
6
CONTINUOUS
10
2.81441
20
-0.999058
11
2.80292
21
-1.00361
0
LINE
8
BLACK
6
CONTINUOUS
10
2.80292
20
-1.00361
11
2.79094
21
-1.00668
0
LINE
8
BLACK
6
CONTINUOUS
10
2.79094
20
-1.00668
11
2.77868
21
-1.00823
0
LINE
8
BLACK
6
CONTINUOUS
10
2.77868
20
-1.00823
11
2.76632
21
-1.00823
0
LINE
8
BLACK
6
CONTINUOUS
10
2.76632
20
-1.00823
11
2.75406
21
-1.00668
0
LINE
8
BLACK
6
CONTINUOUS
10
2.75406
20
-1.00668
11
2.74208
21
-1.00361
0
LINE
8
BLACK
6
CONTINUOUS
10
2.74208
20
-1.00361
11
2.73059
21
-0.999058
0
LINE
8
BLACK
6
CONTINUOUS
10
2.73059
20
-0.999058
11
2.71976
21
-0.993103
0
LINE
8
BLACK
6
CONTINUOUS
10
2.71976
20
-0.993103
11
2.70976
21
-0.985838
0
LINE
8
BLACK
6
CONTINUOUS
10
2.70976
20
-0.985838
11
2.70075
21
-0.977377
0
LINE
8
BLACK
6
CONTINUOUS
10
2.70075
20
-0.977377
11
2.69287
21
-0.967853
0
LINE
8
BLACK
6
CONTINUOUS
10
2.69287
20
-0.967853
11
2.68625
21
-0.957417
0
LINE
8
BLACK
6
CONTINUOUS
10
2.68625
20
-0.957417
11
2.68099
21
-0.946233
0
LINE
8
BLACK
6
CONTINUOUS
10
2.68099
20
-0.946233
11
2.67717
21
-0.934477
0
LINE
8
BLACK
6
CONTINUOUS
10
2.67717
20
-0.934477
11
2.67485
21
-0.922336
0
LINE
8
BLACK
6
CONTINUOUS
10
2.67485
20
-0.922336
11
2.67407
21
-0.91
0
LINE
8
BLACK
6
CONTINUOUS
10
2.67407
20
-0.91
11
2.67485
21
-0.897664
0
LINE
8
BLACK
6
CONTINUOUS
10
2.67485
20
-0.897664
11
2.67717
21
-0.885523
0
LINE
8
BLACK
6
CONTINUOUS
10
2.67717
20
-0.885523
11
2.68099
21
-0.873767
0
LINE
8
BLACK
6
CONTINUOUS
10
2.68099
20
-0.873767
11
2.68625
21
-0.862583
0
LINE
8
BLACK
6
CONTINUOUS
10
2.68625
20
-0.862583
11
2.69287
21
-0.852147
0
LINE
8
BLACK
6
CONTINUOUS
10
2.69287
20
-0.852147
11
2.70075
21
-0.842623
0
LINE
8
BLACK
6
CONTINUOUS
10
2.70075
20
-0.842623
11
2.70976
21
-0.834162
0
LINE
8
BLACK
6
CONTINUOUS
10
2.70976
20
-0.834162
11
2.71976
21
-0.826897
0
LINE
8
BLACK
6
CONTINUOUS
10
2.71976
20
-0.826897
11
2.73059
21
-0.820942
0
LINE
8
BLACK
6
CONTINUOUS
10
2.73059
20
-0.820942
11
2.74208
21
-0.816392
0
LINE
8
BLACK
6
CONTINUOUS
10
2.74208
20
-0.816392
11
2.75406
21
-0.813318
0
LINE
8
BLACK
6
CONTINUOUS
10
2.75406
20
-0.813318
11
2.76632
21
-0.811769
0
LINE
8
BLACK
6
CONTINUOUS
10
2.76632
20
-0.811769
11
2.77868
21
-0.811769
0
LINE
8
BLACK
6
CONTINUOUS
10
2.77868
20
-0.811769
11
2.79094
21
-0.813318
0
LINE
8
BLACK
6
CONTINUOUS
10
9.30094
20
-0.813318
11
9.31292
21
-0.816392
0
LINE
8
BLACK
6
CONTINUOUS
10
9.31292
20
-0.816392
11
9.32441
21
-0.820942
0
LINE
8
BLACK
6
CONTINUOUS
10
9.32441
20
-0.820942
11
9.33524
21
-0.826897
0
LINE
8
BLACK
6
CONTINUOUS
10
9.33524
20
-0.826897
11
9.34524
21
-0.834162
0
LINE
8
BLACK
6
CONTINUOUS
10
9.34524
20
-0.834162
11
9.35425
21
-0.842623
0
LINE
8
BLACK
6
CONTINUOUS
10
9.35425
20
-0.842623
11
9.36213
21
-0.852147
0
LINE
8
BLACK
6
CONTINUOUS
10
9.36213
20
-0.852147
11
9.36875
21
-0.862583
0
LINE
8
BLACK
6
CONTINUOUS
10
9.36875
20
-0.862583
11
9.37401
21
-0.873767
0
LINE
8
BLACK
6
CONTINUOUS
10
9.37401
20
-0.873767
11
9.37783
21
-0.885523
0
LINE
8
BLACK
6
CONTINUOUS
10
9.37783
20
-0.885523
11
9.38015
21
-0.897664
0
LINE
8
BLACK
6
CONTINUOUS
10
9.38015
20
-0.897664
11
9.38093
21
-0.91
0
LINE
8
BLACK
6
CONTINUOUS
10
9.38093
20
-0.91
11
9.38015
21
-0.922336
0
LINE
8
BLACK
6
CONTINUOUS
10
9.38015
20
-0.922336
11
9.37783
21
-0.934477
0
LINE
8
BLACK
6
CONTINUOUS
10
9.37783
20
-0.934477
11
9.37401
21
-0.946233
0
LINE
8
BLACK
6
CONTINUOUS
10
9.37401
20
-0.946233
11
9.36875
21
-0.957417
0
LINE
8
BLACK
6
CONTINUOUS
10
9.36875
20
-0.957417
11
9.36213
21
-0.967853
0
LINE
8
BLACK
6
CONTINUOUS
10
9.36213
20
-0.967853
11
9.35425
21
-0.977377
0
LINE
8
BLACK
6
CONTINUOUS
10
9.35425
20
-0.977377
11
9.34524
21
-0.985838
0
LINE
8
BLACK
6
CONTINUOUS
10
9.34524
20
-0.985838
11
9.33524
21
-0.993103
0
LINE
8
BLACK
6
CONTINUOUS
10
9.33524
20
-0.993103
11
9.32441
21
-0.999058
0
LINE
8
BLACK
6
CONTINUOUS
10
9.32441
20
-0.999058
11
9.31292
21
-1.00361
0
LINE
8
BLACK
6
CONTINUOUS
10
9.31292
20
-1.00361
11
9.30094
21
-1.00668
0
LINE
8
BLACK
6
CONTINUOUS
10
9.30094
20
-1.00668
11
9.28868
21
-1.00823
0
LINE
8
BLACK
6
CONTINUOUS
10
9.28868
20
-1.00823
11
9.27632
21
-1.00823
0
LINE
8
BLACK
6
CONTINUOUS
10
9.27632
20
-1.00823
11
9.26406
21
-1.00668
0
LINE
8
BLACK
6
CONTINUOUS
10
9.26406
20
-1.00668
11
9.25208
21
-1.00361
0
LINE
8
BLACK
6
CONTINUOUS
10
9.25208
20
-1.00361
11
9.24059
21
-0.999058
0
LINE
8
BLACK
6
CONTINUOUS
10
9.24059
20
-0.999058
11
9.22976
21
-0.993103
0
LINE
8
BLACK
6
CONTINUOUS
10
9.22976
20
-0.993103
11
9.21976
21
-0.985838
0
LINE
8
BLACK
6
CONTINUOUS
10
9.21976
20
-0.985838
11
9.21075
21
-0.977377
0
LINE
8
BLACK
6
CONTINUOUS
10
9.21075
20
-0.977377
11
9.20287
21
-0.967853
0
LINE
8
BLACK
6
CONTINUOUS
10
9.20287
20
-0.967853
11
9.19625
21
-0.957417
0
LINE
8
BLACK
6
CONTINUOUS
10
9.19625
20
-0.957417
11
9.19099
21
-0.946233
0
LINE
8
BLACK
6
CONTINUOUS
10
9.19099
20
-0.946233
11
9.18717
21
-0.934477
0
LINE
8
BLACK
6
CONTINUOUS
10
9.18717
20
-0.934477
11
9.18485
21
-0.922336
0
LINE
8
BLACK
6
CONTINUOUS
10
9.18485
20
-0.922336
11
9.18407
21
-0.91
0
LINE
8
BLACK
6
CONTINUOUS
10
9.18407
20
-0.91
11
9.18485
21
-0.897664
0
LINE
8
BLACK
6
CONTINUOUS
10
9.18485
20
-0.897664
11
9.18717
21
-0.885523
0
LINE
8
BLACK
6
CONTINUOUS
10
9.18717
20
-0.885523
11
9.19099
21
-0.873767
0
LINE
8
BLACK
6
CONTINUOUS
10
9.19099
20
-0.873767
11
9.19625
21
-0.862583
0
LINE
8
BLACK
6
CONTINUOUS
10
9.19625
20
-0.862583
11
9.20287
21
-0.852147
0
LINE
8
BLACK
6
CONTINUOUS
10
9.20287
20
-0.852147
11
9.21075
21
-0.842623
0
LINE
8
BLACK
6
CONTINUOUS
10
9.21075
20
-0.842623
11
9.21976
21
-0.834162
0
LINE
8
BLACK
6
CONTINUOUS
10
9.21976
20
-0.834162
11
9.22976
21
-0.826897
0
LINE
8
BLACK
6
CONTINUOUS
10
9.22976
20
-0.826897
11
9.24059
21
-0.820942
0
LINE
8
BLACK
6
CONTINUOUS
10
9.24059
20
-0.820942
11
9.25208
21
-0.816392
0
LINE
8
BLACK
6
CONTINUOUS
10
9.25208
20
-0.816392
11
9.26406
21
-0.813318
0
LINE
8
BLACK
6
CONTINUOUS
10
9.26406
20
-0.813318
11
9.27632
21
-0.811769
0
LINE
8
BLACK
6
CONTINUOUS
10
9.27632
20
-0.811769
11
9.28868
21
-0.811769
0
LINE
8
BLACK
6
CONTINUOUS
10
9.28868
20
-0.811769
11
9.30094
21
-0.813318
  0
ENDSEC
  0
EOF
